M48
; DRILL file {KiCad 7.0.1} date Wed Jun 25 09:37:54 2025
; FORMAT={-:-/ absolute / metric / decimal}
; #@! TF.CreationDate,2025-06-25T09:37:54+07:00
; #@! TF.GenerationSoftware,Kicad,Pcbnew,7.0.1
; #@! TF.FileFunction,Plated,1,2,PTH
FMAT,2
METRIC
; #@! TA.AperFunction,Plated,PTH,ViaDrill
T1C0.350
; #@! TA.AperFunction,Plated,PTH,ViaDrill
T2C0.400
; #@! TA.AperFunction,Plated,PTH,ComponentDrill
T3C1.000
%
G90
G05
T1
X97.9Y-124.8
X97.9Y-125.92
X97.96Y-145.57
X97.96Y-146.69
X97.98Y-104.04
X97.98Y-105.16
X98.65Y-124.8
X98.65Y-125.92
X98.71Y-145.57
X98.71Y-146.69
X98.73Y-104.04
X98.73Y-105.16
X99.4Y-124.8
X99.4Y-125.92
X99.46Y-145.57
X99.46Y-146.69
X99.48Y-104.04
X99.48Y-105.16
X118.31Y-124.79
X118.31Y-125.91
X118.34Y-145.57
X118.34Y-146.69
X118.37Y-103.99
X118.37Y-105.11
X119.06Y-124.79
X119.06Y-125.91
X119.09Y-145.57
X119.09Y-146.69
X119.12Y-103.99
X119.12Y-105.11
X119.81Y-124.79
X119.81Y-125.91
X119.84Y-145.57
X119.84Y-146.69
X119.87Y-103.99
X119.87Y-105.11
X121.69Y-76.6
X121.69Y-77.35
X121.69Y-78.1
X122.81Y-76.6
X122.81Y-77.35
X122.81Y-78.1
X123.27Y-108.65
X123.27Y-109.4
X123.27Y-110.15
X123.27Y-150.18
X123.27Y-150.93
X123.27Y-151.68
X123.28Y-119.79
X123.28Y-120.54
X123.28Y-121.29
X123.28Y-129.31
X123.28Y-130.06
X123.28Y-130.81
X123.28Y-140.65
X123.28Y-141.4
X123.28Y-142.15
X123.28Y-161.42
X123.28Y-162.17
X123.28Y-162.92
X123.29Y-98.98
X123.29Y-99.73
X123.29Y-100.48
X123.3Y-87.87
X123.3Y-88.62
X123.3Y-89.37
X124.39Y-108.65
X124.39Y-109.4
X124.39Y-110.15
X124.39Y-150.18
X124.39Y-150.93
X124.39Y-151.68
X124.4Y-119.79
X124.4Y-120.54
X124.4Y-121.29
X124.4Y-129.31
X124.4Y-130.06
X124.4Y-130.81
X124.4Y-140.65
X124.4Y-141.4
X124.4Y-142.15
X124.4Y-161.42
X124.4Y-162.17
X124.4Y-162.92
X124.41Y-98.98
X124.41Y-99.73
X124.41Y-100.48
X124.42Y-87.87
X124.42Y-88.62
X124.42Y-89.37
X127.87Y-124.78
X127.87Y-125.9
X127.9Y-103.98
X127.9Y-105.1
X127.95Y-145.57
X127.95Y-146.69
X128.62Y-124.78
X128.62Y-125.9
X128.65Y-103.98
X128.65Y-105.1
X128.7Y-145.57
X128.7Y-146.69
X129.37Y-124.78
X129.37Y-125.9
X129.4Y-103.98
X129.4Y-105.1
X129.45Y-145.57
X129.45Y-146.69
X148.32Y-145.59
X148.32Y-146.71
X148.34Y-103.99
X148.34Y-105.11
X148.37Y-124.77
X148.37Y-125.89
X149.07Y-145.59
X149.07Y-146.71
X149.09Y-103.99
X149.09Y-105.11
X149.12Y-124.77
X149.12Y-125.89
X149.82Y-145.59
X149.82Y-146.71
X149.84Y-103.99
X149.84Y-105.11
X149.87Y-124.77
X149.87Y-125.89
X153.22Y-98.98
X153.22Y-99.73
X153.22Y-100.48
X153.22Y-108.67
X153.22Y-109.42
X153.22Y-110.17
X153.22Y-140.68
X153.22Y-141.43
X153.22Y-142.18
X153.23Y-87.87
X153.23Y-88.62
X153.23Y-89.37
X153.23Y-129.38
X153.23Y-130.13
X153.23Y-130.88
X153.23Y-150.22
X153.23Y-150.97
X153.23Y-151.72
X153.23Y-161.52
X153.23Y-162.27
X153.23Y-163.02
X153.24Y-119.88
X153.24Y-120.63
X153.24Y-121.38
X154.34Y-98.98
X154.34Y-99.73
X154.34Y-100.48
X154.34Y-108.67
X154.34Y-109.42
X154.34Y-110.17
X154.34Y-140.68
X154.34Y-141.43
X154.34Y-142.18
X154.35Y-87.87
X154.35Y-88.62
X154.35Y-89.37
X154.35Y-129.38
X154.35Y-130.13
X154.35Y-130.88
X154.35Y-150.22
X154.35Y-150.97
X154.35Y-151.72
X154.35Y-161.52
X154.35Y-162.27
X154.35Y-163.02
X154.36Y-119.88
X154.36Y-120.63
X154.36Y-121.38
X157.86Y-124.77
X157.86Y-125.89
X157.86Y-145.61
X157.86Y-146.73
X157.89Y-103.98
X157.89Y-105.1
X158.61Y-124.77
X158.61Y-125.89
X158.61Y-145.61
X158.61Y-146.73
X158.64Y-103.98
X158.64Y-105.1
X159.36Y-124.77
X159.36Y-125.89
X159.36Y-145.61
X159.36Y-146.73
X159.39Y-103.98
X159.39Y-105.1
X178.18Y-124.77
X178.18Y-125.89
X178.28Y-103.98
X178.28Y-105.1
X178.29Y-145.58
X178.29Y-146.7
X178.93Y-124.77
X178.93Y-125.89
X179.03Y-103.98
X179.03Y-105.1
X179.04Y-145.58
X179.04Y-146.7
X179.68Y-124.77
X179.68Y-125.89
X179.78Y-103.98
X179.78Y-105.1
X179.79Y-145.58
X179.79Y-146.7
T2
X99.012Y-91.402
X99.012Y-96.736
X99.012Y-112.206
X99.012Y-117.54
X99.012Y-133.01
X99.012Y-138.344
X99.012Y-153.814
X99.012Y-159.148
X100.028Y-85.56
X100.028Y-106.364
X100.028Y-127.168
X100.028Y-147.972
X100.536Y-102.832
X100.536Y-123.636
X100.536Y-144.44
X100.536Y-165.244
X102.06Y-100.8
X102.06Y-121.604
X102.06Y-142.408
X102.06Y-163.212
X104.854Y-91.91
X104.854Y-98.514
X104.854Y-112.714
X104.854Y-119.318
X104.854Y-133.518
X104.854Y-140.122
X104.854Y-154.322
X104.854Y-160.926
X105.108Y-89.116
X105.108Y-109.92
X105.108Y-130.724
X105.108Y-151.528
X105.997Y-98.133
X105.997Y-118.937
X105.997Y-139.741
X105.997Y-160.545
X106.124Y-88.1
X106.124Y-95.72
X106.124Y-108.904
X106.124Y-116.524
X106.124Y-129.708
X106.124Y-137.328
X106.124Y-150.512
X106.124Y-158.132
X106.378Y-91.656
X106.378Y-112.46
X106.378Y-133.264
X106.378Y-154.068
X108.918Y-94.196
X108.918Y-115.0
X108.918Y-135.804
X108.918Y-156.608
X110.188Y-89.878
X110.188Y-110.682
X110.188Y-131.486
X110.188Y-152.29
X111.458Y-91.656
X111.458Y-112.46
X111.458Y-133.264
X111.458Y-154.068
X111.459Y-99.486
X111.459Y-120.29
X111.459Y-141.094
X111.459Y-161.898
X112.22Y-93.942
X112.22Y-114.746
X112.22Y-135.55
X112.22Y-156.354
X113.285Y-95.862
X113.285Y-116.666
X113.285Y-137.47
X113.285Y-158.274
X113.49Y-86.576
X113.49Y-107.38
X113.49Y-128.184
X113.49Y-148.988
X114.252Y-85.56
X114.252Y-89.624
X114.252Y-106.364
X114.252Y-110.428
X114.252Y-127.168
X114.252Y-131.232
X114.252Y-147.972
X114.252Y-152.036
X117.046Y-91.656
X117.046Y-112.46
X117.046Y-133.264
X117.046Y-154.068
X117.3Y-94.45
X117.3Y-115.254
X117.3Y-136.058
X117.3Y-156.862
X117.808Y-85.814
X117.808Y-102.832
X117.808Y-106.618
X117.808Y-123.636
X117.808Y-127.422
X117.808Y-144.44
X117.808Y-148.226
X117.808Y-165.244
X120.856Y-95.212
X120.856Y-116.016
X120.856Y-136.82
X120.856Y-157.624
X128.96Y-91.402
X128.96Y-96.736
X128.96Y-112.206
X128.96Y-117.54
X128.96Y-133.01
X128.96Y-138.344
X128.96Y-153.814
X128.96Y-159.148
X129.976Y-85.56
X129.976Y-106.364
X129.976Y-127.168
X129.976Y-147.972
X130.484Y-102.832
X130.484Y-123.636
X130.484Y-144.44
X130.484Y-165.244
X132.008Y-100.8
X132.008Y-121.604
X132.008Y-142.408
X132.008Y-163.212
X134.802Y-91.91
X134.802Y-98.514
X134.802Y-112.714
X134.802Y-119.318
X134.802Y-133.518
X134.802Y-140.122
X134.802Y-154.322
X134.802Y-160.926
X135.056Y-89.116
X135.056Y-109.92
X135.056Y-130.724
X135.056Y-151.528
X135.945Y-98.133
X135.945Y-118.937
X135.945Y-139.741
X135.945Y-160.545
X136.072Y-88.1
X136.072Y-95.72
X136.072Y-108.904
X136.072Y-116.524
X136.072Y-129.708
X136.072Y-137.328
X136.072Y-150.512
X136.072Y-158.132
X136.326Y-91.656
X136.326Y-112.46
X136.326Y-133.264
X136.326Y-154.068
X138.866Y-94.196
X138.866Y-115.0
X138.866Y-135.804
X138.866Y-156.608
X140.136Y-89.878
X140.136Y-110.682
X140.136Y-131.486
X140.136Y-152.29
X141.406Y-91.656
X141.406Y-112.46
X141.406Y-133.264
X141.406Y-154.068
X141.407Y-99.486
X141.407Y-120.29
X141.407Y-141.094
X141.407Y-161.898
X142.168Y-93.942
X142.168Y-114.746
X142.168Y-135.55
X142.168Y-156.354
X143.233Y-95.862
X143.233Y-116.666
X143.233Y-137.47
X143.233Y-158.274
X143.438Y-86.576
X143.438Y-107.38
X143.438Y-128.184
X143.438Y-148.988
X144.2Y-85.56
X144.2Y-89.624
X144.2Y-106.364
X144.2Y-110.428
X144.2Y-127.168
X144.2Y-131.232
X144.2Y-147.972
X144.2Y-152.036
X146.994Y-91.656
X146.994Y-112.46
X146.994Y-133.264
X146.994Y-154.068
X147.248Y-94.45
X147.248Y-115.254
X147.248Y-136.058
X147.248Y-156.862
X147.756Y-85.814
X147.756Y-102.832
X147.756Y-106.618
X147.756Y-123.636
X147.756Y-127.422
X147.756Y-144.44
X147.756Y-148.226
X147.756Y-165.244
X150.804Y-95.212
X150.804Y-116.016
X150.804Y-136.82
X150.804Y-157.624
X158.908Y-91.402
X158.908Y-96.736
X158.908Y-112.206
X158.908Y-117.54
X158.908Y-133.01
X158.908Y-138.344
X158.908Y-153.814
X158.908Y-159.148
X159.924Y-85.56
X159.924Y-106.364
X159.924Y-127.168
X159.924Y-147.972
X160.432Y-102.832
X160.432Y-123.636
X160.432Y-144.44
X160.432Y-165.244
X161.956Y-100.8
X161.956Y-121.604
X161.956Y-142.408
X161.956Y-163.212
X164.75Y-91.91
X164.75Y-98.514
X164.75Y-112.714
X164.75Y-119.318
X164.75Y-133.518
X164.75Y-140.122
X164.75Y-154.322
X164.75Y-160.926
X165.004Y-89.116
X165.004Y-109.92
X165.004Y-130.724
X165.004Y-151.528
X165.893Y-98.133
X165.893Y-118.937
X165.893Y-139.741
X165.893Y-160.545
X166.02Y-88.1
X166.02Y-95.72
X166.02Y-108.904
X166.02Y-116.524
X166.02Y-129.708
X166.02Y-137.328
X166.02Y-150.512
X166.02Y-158.132
X166.274Y-91.656
X166.274Y-112.46
X166.274Y-133.264
X166.274Y-154.068
X168.814Y-94.196
X168.814Y-115.0
X168.814Y-135.804
X168.814Y-156.608
X170.084Y-89.878
X170.084Y-110.682
X170.084Y-131.486
X170.084Y-152.29
X171.354Y-91.656
X171.354Y-112.46
X171.354Y-133.264
X171.354Y-154.068
X171.355Y-99.486
X171.355Y-120.29
X171.355Y-141.094
X171.355Y-161.898
X172.116Y-93.942
X172.116Y-114.746
X172.116Y-135.55
X172.116Y-156.354
X173.181Y-95.862
X173.181Y-116.666
X173.181Y-137.47
X173.181Y-158.274
X173.386Y-86.576
X173.386Y-107.38
X173.386Y-128.184
X173.386Y-148.988
X174.148Y-85.56
X174.148Y-89.624
X174.148Y-106.364
X174.148Y-110.428
X174.148Y-127.168
X174.148Y-131.232
X174.148Y-147.972
X174.148Y-152.036
X176.942Y-91.656
X176.942Y-112.46
X176.942Y-133.264
X176.942Y-154.068
X177.196Y-94.45
X177.196Y-115.254
X177.196Y-136.058
X177.196Y-156.862
X177.704Y-85.814
X177.704Y-102.832
X177.704Y-106.618
X177.704Y-123.636
X177.704Y-127.422
X177.704Y-144.44
X177.704Y-148.226
X177.704Y-165.244
X180.752Y-95.212
X180.752Y-116.016
X180.752Y-136.82
X180.752Y-157.624
T3
X103.796Y-101.816
X103.796Y-122.62
X103.796Y-143.424
X103.796Y-164.228
X106.337Y-101.816
X106.337Y-122.62
X106.337Y-143.424
X106.337Y-164.228
X108.876Y-101.816
X108.876Y-122.62
X108.876Y-143.424
X108.876Y-164.228
X111.416Y-101.816
X111.416Y-122.62
X111.416Y-143.424
X111.416Y-164.228
X113.956Y-101.816
X113.956Y-122.62
X113.956Y-143.424
X113.956Y-164.228
X133.744Y-101.816
X133.744Y-122.62
X133.744Y-143.424
X133.744Y-164.228
X136.284Y-101.816
X136.284Y-122.62
X136.284Y-143.424
X136.284Y-164.228
X138.825Y-101.816
X138.825Y-122.62
X138.825Y-143.424
X138.825Y-164.228
X141.364Y-101.816
X141.364Y-122.62
X141.364Y-143.424
X141.364Y-164.228
X143.904Y-101.816
X143.904Y-122.62
X143.904Y-143.424
X143.904Y-164.228
X163.692Y-101.816
X163.692Y-122.62
X163.692Y-143.424
X163.692Y-164.228
X166.232Y-101.816
X166.232Y-122.62
X166.232Y-143.424
X166.232Y-164.228
X168.772Y-101.816
X168.772Y-122.62
X168.772Y-143.424
X168.772Y-164.228
X171.312Y-101.816
X171.312Y-122.62
X171.312Y-143.424
X171.312Y-164.228
X173.852Y-101.816
X173.852Y-122.62
X173.852Y-143.424
X173.852Y-164.228
T0
M30
