M48
; DRILL file {KiCad 7.0.1} date Wed Jun 25 09:37:54 2025
; FORMAT={-:-/ absolute / metric / decimal}
; #@! TF.CreationDate,2025-06-25T09:37:54+07:00
; #@! TF.GenerationSoftware,Kicad,Pcbnew,7.0.1
; #@! TF.FileFunction,NonPlated,1,2,NPTH
FMAT,2
METRIC
; #@! TA.AperFunction,NonPlated,NPTH,ComponentDrill
T1C2.100
%
G90
G05
T1
X97.234Y-87.084
X97.234Y-101.308
X97.234Y-107.888
X97.234Y-122.112
X97.234Y-128.692
X97.234Y-142.916
X97.234Y-149.496
X97.234Y-163.72
X120.602Y-87.084
X120.602Y-101.308
X120.602Y-107.888
X120.602Y-122.112
X120.602Y-128.692
X120.602Y-142.916
X120.602Y-149.496
X120.602Y-163.72
X127.182Y-87.084
X127.182Y-101.308
X127.182Y-107.888
X127.182Y-122.112
X127.182Y-128.692
X127.182Y-142.916
X127.182Y-149.496
X127.182Y-163.72
X150.55Y-87.084
X150.55Y-101.308
X150.55Y-107.888
X150.55Y-122.112
X150.55Y-128.692
X150.55Y-142.916
X150.55Y-149.496
X150.55Y-163.72
X157.13Y-87.084
X157.13Y-101.308
X157.13Y-107.888
X157.13Y-122.112
X157.13Y-128.692
X157.13Y-142.916
X157.13Y-149.496
X157.13Y-163.72
X180.498Y-87.084
X180.498Y-101.308
X180.498Y-107.888
X180.498Y-122.112
X180.498Y-128.692
X180.498Y-142.916
X180.498Y-149.496
X180.498Y-163.72
T0
M30
