%TF.GenerationSoftware,KiCad,Pcbnew,7.0.1*%
%TF.CreationDate,2025-06-25T09:37:51+07:00*%
%TF.ProjectId,panelize_2,70616e65-6c69-47a6-955f-322e6b696361,rev?*%
%TF.SameCoordinates,Original*%
%TF.FileFunction,Profile,NP*%
%FSLAX46Y46*%
G04 Gerber Fmt 4.6, Leading zero omitted, Abs format (unit mm)*
G04 Created by KiCad (PCBNEW 7.0.1) date 2025-06-25 09:37:51*
%MOMM*%
%LPD*%
G01*
G04 APERTURE LIST*
%TA.AperFunction,Profile*%
%ADD10C,0.100000*%
%TD*%
G04 APERTURE END LIST*
D10*
X160106000Y-124674000D02*
X177522000Y-124660000D01*
X124650000Y-90060000D02*
X124634000Y-98332000D01*
X123164000Y-98332000D02*
X123150000Y-90060000D01*
X154582000Y-98332000D02*
X154598000Y-90060000D01*
X153098000Y-90060000D02*
X153112000Y-98332000D01*
X177522000Y-103856000D02*
X160106000Y-103870000D01*
X160106000Y-105340000D02*
X177522000Y-105326000D01*
X100210000Y-103870000D02*
X117626000Y-103826000D01*
X117626000Y-105326000D02*
X100210000Y-105340000D01*
X147574000Y-103856000D02*
X130158000Y-103870000D01*
X130158000Y-105340000D02*
X147574000Y-105326000D01*
X124634000Y-119136000D02*
X124650000Y-110864000D01*
X123150000Y-110864000D02*
X123164000Y-119136000D01*
X100210000Y-124674000D02*
X117626000Y-124630000D01*
X100210000Y-126144000D02*
X117626000Y-126130000D01*
X124634000Y-139940000D02*
X124650000Y-131668000D01*
X123150000Y-131668000D02*
X123164000Y-139940000D01*
X130158000Y-124674000D02*
X147574000Y-124660000D01*
X130158000Y-126144000D02*
X147574000Y-126130000D01*
X154582000Y-119136000D02*
X154598000Y-110864000D01*
X153098000Y-110864000D02*
X153112000Y-119136000D01*
X160106000Y-126144000D02*
X177522000Y-126130000D01*
X154598000Y-131668000D02*
X154582000Y-139940000D01*
X153112000Y-139940000D02*
X153098000Y-131668000D01*
X160106000Y-145478000D02*
X177522000Y-145464000D01*
X160106000Y-146948000D02*
X177522000Y-146934000D01*
X154598000Y-152472000D02*
X154582000Y-160744000D01*
X153098000Y-152472000D02*
X153112000Y-160744000D01*
X147574000Y-146934000D02*
X130158000Y-146948000D01*
X130158000Y-145478000D02*
X147574000Y-145464000D01*
X124634000Y-160744000D02*
X124620000Y-152472000D01*
X123120000Y-152472000D02*
X123164000Y-160744000D01*
X117626000Y-145464000D02*
X100210000Y-145478000D01*
X100210000Y-146948000D02*
X117626000Y-146934000D01*
X120602000Y-166260000D02*
X97234000Y-166260000D01*
X147574000Y-105326000D02*
X147574000Y-103856000D01*
X150550000Y-103848000D02*
X150550000Y-105348000D01*
X147574000Y-126130000D02*
X147574000Y-124660000D01*
X150550000Y-124652000D02*
X150550000Y-126152000D01*
X147574000Y-146934000D02*
X147574000Y-145464000D01*
X150550000Y-145456000D02*
X150550000Y-146956000D01*
X153090000Y-149496000D02*
X154590000Y-149496000D01*
X154598000Y-152472000D02*
X153098000Y-152472000D01*
X153090000Y-128692000D02*
X154590000Y-128692000D01*
X154598000Y-131668000D02*
X153098000Y-131668000D01*
X153090000Y-107888000D02*
X154590000Y-107888000D01*
X154598000Y-110864000D02*
X153098000Y-110864000D01*
X153090000Y-87084000D02*
X154590000Y-87084000D01*
X154598000Y-90060000D02*
X153098000Y-90060000D01*
X123142000Y-87084000D02*
X124642000Y-87084000D01*
X124650000Y-90060000D02*
X123150000Y-90060000D01*
X123142000Y-107888000D02*
X124642000Y-107888000D01*
X124650000Y-110864000D02*
X123150000Y-110864000D01*
X123142000Y-128692000D02*
X124642000Y-128692000D01*
X124650000Y-131668000D02*
X123150000Y-131668000D01*
X123142000Y-149496000D02*
X124642000Y-149496000D01*
X124620000Y-152472000D02*
X123120000Y-152472000D01*
X153112000Y-160744000D02*
X154582000Y-160744000D01*
X154590000Y-163720000D02*
X153090000Y-163720000D01*
X153112000Y-139940000D02*
X154582000Y-139940000D01*
X154590000Y-142916000D02*
X153090000Y-142916000D01*
X153112000Y-119136000D02*
X154582000Y-119136000D01*
X154590000Y-122112000D02*
X153090000Y-122112000D01*
X153112000Y-98332000D02*
X154582000Y-98332000D01*
X154590000Y-101308000D02*
X153090000Y-101308000D01*
X123164000Y-98332000D02*
X124634000Y-98332000D01*
X124642000Y-101308000D02*
X123142000Y-101308000D01*
X123164000Y-119136000D02*
X124634000Y-119136000D01*
X124642000Y-122112000D02*
X123142000Y-122112000D01*
X123164000Y-139940000D02*
X124634000Y-139940000D01*
X124642000Y-142916000D02*
X123142000Y-142916000D01*
X123164000Y-160744000D02*
X124634000Y-160744000D01*
X124642000Y-163720000D02*
X123142000Y-163720000D01*
X177522000Y-146934000D02*
X177522000Y-145464000D01*
X180498000Y-145456000D02*
X180498000Y-146956000D01*
X177522000Y-126130000D02*
X177522000Y-124660000D01*
X180498000Y-124652000D02*
X180498000Y-126152000D01*
X177522000Y-105326000D02*
X177522000Y-103856000D01*
X180498000Y-103848000D02*
X180498000Y-105348000D01*
X160106000Y-103870000D02*
X160106000Y-105340000D01*
X157130000Y-105348000D02*
X157130000Y-103848000D01*
X160106000Y-124674000D02*
X160106000Y-126144000D01*
X157130000Y-126152000D02*
X157130000Y-124652000D01*
X160106000Y-145478000D02*
X160106000Y-146948000D01*
X157130000Y-146956000D02*
X157130000Y-145456000D01*
X130158000Y-145478000D02*
X130158000Y-146948000D01*
X127182000Y-146956000D02*
X127182000Y-145456000D01*
X130158000Y-124674000D02*
X130158000Y-126144000D01*
X127182000Y-126152000D02*
X127182000Y-124652000D01*
X130158000Y-103870000D02*
X130158000Y-105340000D01*
X127182000Y-105348000D02*
X127182000Y-103848000D01*
X117626000Y-146934000D02*
X117626000Y-145464000D01*
X120602000Y-145456000D02*
X120602000Y-146956000D01*
X100210000Y-145478000D02*
X100210000Y-146948000D01*
X97234000Y-146956000D02*
X97234000Y-145456000D01*
X100210000Y-124674000D02*
X100210000Y-126144000D01*
X97234000Y-126152000D02*
X97234000Y-124652000D01*
X120602000Y-124652000D02*
X120602000Y-126152000D01*
X117626000Y-126130000D02*
X117626000Y-124630000D01*
X120602000Y-103848000D02*
X120602000Y-105348000D01*
X117626000Y-105326000D02*
X117626000Y-103826000D01*
X100210000Y-103870000D02*
X100210000Y-105340000D01*
X97234000Y-105348000D02*
X97234000Y-103848000D01*
X157130000Y-146956000D02*
G75*
G03*
X154590000Y-149496000I0J-2540000D01*
G01*
X183038000Y-149496000D02*
G75*
G03*
X180498000Y-146956000I-2540000J0D01*
G01*
X154590000Y-163720000D02*
G75*
G03*
X157130000Y-166260000I2540000J0D01*
G01*
X180498000Y-166260000D02*
G75*
G03*
X183038000Y-163720000I0J2540000D01*
G01*
X180498000Y-166260000D02*
X157130000Y-166260000D01*
X183038000Y-149496000D02*
X183038000Y-163720000D01*
X127182000Y-146956000D02*
G75*
G03*
X124642000Y-149496000I0J-2540000D01*
G01*
X153090000Y-149496000D02*
G75*
G03*
X150550000Y-146956000I-2540000J0D01*
G01*
X124642000Y-163720000D02*
G75*
G03*
X127182000Y-166260000I2540000J0D01*
G01*
X150550000Y-166260000D02*
G75*
G03*
X153090000Y-163720000I0J2540000D01*
G01*
X150550000Y-166260000D02*
X127182000Y-166260000D01*
X97234000Y-146956000D02*
G75*
G03*
X94694000Y-149496000I0J-2540000D01*
G01*
X123142000Y-149496000D02*
G75*
G03*
X120602000Y-146956000I-2540000J0D01*
G01*
X94694000Y-163720000D02*
G75*
G03*
X97234000Y-166260000I2540000J0D01*
G01*
X120602000Y-166260000D02*
G75*
G03*
X123142000Y-163720000I0J2540000D01*
G01*
X94694000Y-163720000D02*
X94694000Y-149496000D01*
X157130000Y-126152000D02*
G75*
G03*
X154590000Y-128692000I0J-2540000D01*
G01*
X183038000Y-128692000D02*
G75*
G03*
X180498000Y-126152000I-2540000J0D01*
G01*
X154590000Y-142916000D02*
G75*
G03*
X157130000Y-145456000I2540000J0D01*
G01*
X180498000Y-145456000D02*
G75*
G03*
X183038000Y-142916000I0J2540000D01*
G01*
X183038000Y-128692000D02*
X183038000Y-142916000D01*
X127182000Y-126152000D02*
G75*
G03*
X124642000Y-128692000I0J-2540000D01*
G01*
X153090000Y-128692000D02*
G75*
G03*
X150550000Y-126152000I-2540000J0D01*
G01*
X124642000Y-142916000D02*
G75*
G03*
X127182000Y-145456000I2540000J0D01*
G01*
X150550000Y-145456000D02*
G75*
G03*
X153090000Y-142916000I0J2540000D01*
G01*
X97234000Y-126152000D02*
G75*
G03*
X94694000Y-128692000I0J-2540000D01*
G01*
X123142000Y-128692000D02*
G75*
G03*
X120602000Y-126152000I-2540000J0D01*
G01*
X94694000Y-142916000D02*
G75*
G03*
X97234000Y-145456000I2540000J0D01*
G01*
X120602000Y-145456000D02*
G75*
G03*
X123142000Y-142916000I0J2540000D01*
G01*
X94694000Y-142916000D02*
X94694000Y-128692000D01*
X157130000Y-105348000D02*
G75*
G03*
X154590000Y-107888000I0J-2540000D01*
G01*
X183038000Y-107888000D02*
G75*
G03*
X180498000Y-105348000I-2540000J0D01*
G01*
X154590000Y-122112000D02*
G75*
G03*
X157130000Y-124652000I2540000J0D01*
G01*
X180498000Y-124652000D02*
G75*
G03*
X183038000Y-122112000I0J2540000D01*
G01*
X183038000Y-107888000D02*
X183038000Y-122112000D01*
X127182000Y-105348000D02*
G75*
G03*
X124642000Y-107888000I0J-2540000D01*
G01*
X153090000Y-107888000D02*
G75*
G03*
X150550000Y-105348000I-2540000J0D01*
G01*
X124642000Y-122112000D02*
G75*
G03*
X127182000Y-124652000I2540000J0D01*
G01*
X150550000Y-124652000D02*
G75*
G03*
X153090000Y-122112000I0J2540000D01*
G01*
X97234000Y-105348000D02*
G75*
G03*
X94694000Y-107888000I0J-2540000D01*
G01*
X123142000Y-107888000D02*
G75*
G03*
X120602000Y-105348000I-2540000J0D01*
G01*
X94694000Y-122112000D02*
G75*
G03*
X97234000Y-124652000I2540000J0D01*
G01*
X120602000Y-124652000D02*
G75*
G03*
X123142000Y-122112000I0J2540000D01*
G01*
X94694000Y-122112000D02*
X94694000Y-107888000D01*
X157130000Y-84544000D02*
G75*
G03*
X154590000Y-87084000I0J-2540000D01*
G01*
X183038000Y-87084000D02*
G75*
G03*
X180498000Y-84544000I-2540000J0D01*
G01*
X154590000Y-101308000D02*
G75*
G03*
X157130000Y-103848000I2540000J0D01*
G01*
X180498000Y-103848000D02*
G75*
G03*
X183038000Y-101308000I0J2540000D01*
G01*
X157130000Y-84544000D02*
X180498000Y-84544000D01*
X183038000Y-87084000D02*
X183038000Y-101308000D01*
X127182000Y-84544000D02*
G75*
G03*
X124642000Y-87084000I0J-2540000D01*
G01*
X153090000Y-87084000D02*
G75*
G03*
X150550000Y-84544000I-2540000J0D01*
G01*
X124642000Y-101308000D02*
G75*
G03*
X127182000Y-103848000I2540000J0D01*
G01*
X150550000Y-103848000D02*
G75*
G03*
X153090000Y-101308000I0J2540000D01*
G01*
X127182000Y-84544000D02*
X150550000Y-84544000D01*
X123142000Y-87084000D02*
G75*
G03*
X120602000Y-84544000I-2540000J0D01*
G01*
X120602000Y-103848000D02*
G75*
G03*
X123142000Y-101308000I0J2540000D01*
G01*
X94694000Y-101308000D02*
X94694000Y-87084000D01*
X97234000Y-84544000D02*
X120602000Y-84544000D01*
X97234000Y-84544000D02*
G75*
G03*
X94694000Y-87084000I0J-2540000D01*
G01*
X94694000Y-101308000D02*
G75*
G03*
X97234000Y-103848000I2540000J0D01*
G01*
M02*
