<?xml version="1.0" standalone="no"?>
<!DOCTYPE svg PUBLIC "-//W3C//DTD SVG 20010904//EN"
 "http://www.w3.org/TR/2001/REC-SVG-20010904/DTD/svg10.dtd">
<svg version="1.0" xmlns="http://www.w3.org/2000/svg"
 width="500.000000pt" height="500.000000pt" viewBox="0 0 500.000000 500.000000"
 preserveAspectRatio="xMidYMid meet">

<g transform="translate(0.000000,500.000000) scale(0.100000,-0.100000)"
fill="#000000" stroke="none">
<path d="M1857 3967 c-53 -106 -120 -233 -148 -284 l-50 -92 53 15 c29 9 80
24 112 35 33 10 62 16 65 13 3 -3 7 -346 9 -762 l3 -756 -566 -566 -565 -565
45 -45 45 -45 563 563 562 562 838 0 c795 0 839 -1 832 -17 -4 -10 -22 -59
-40 -110 -28 -76 -31 -91 -17 -85 10 4 128 63 262 131 135 69 255 129 267 135
13 6 23 13 23 16 -1 8 -555 277 -558 271 -2 -6 43 -145 63 -193 7 -17 -36 -18
-813 -18 l-821 0 0 745 c0 410 3 745 7 745 4 0 54 -15 112 -33 58 -19 107 -33
109 -31 1 1 -26 58 -62 126 -35 68 -100 192 -142 276 -43 84 -81 154 -84 157
-4 2 -50 -83 -104 -188z"/>
<path d="M2520 4048 c1 -7 15 -22 32 -33 27 -17 33 -29 45 -90 25 -137 34
-181 43 -223 6 -23 10 -64 10 -91 0 -42 -5 -54 -40 -94 -53 -59 -94 -70 -126
-33 -35 39 -74 29 -74 -20 0 -47 75 -68 142 -40 67 28 109 79 225 271 116 192
169 313 156 353 -7 19 -113 17 -113 -3 0 -8 9 -19 20 -25 12 -6 20 -21 20 -35
0 -44 -58 -180 -118 -275 -15 -24 -17 -17 -43 160 -15 102 -28 186 -28 188 -1
1 -35 2 -76 2 -54 0 -75 -4 -75 -12z"/>
<path d="M3635 1581 c-43 -9 -45 -39 -3 -43 39 -4 59 -38 79 -135 l13 -61 -53
-65 c-49 -61 -84 -87 -115 -87 -14 0 -28 -35 -18 -44 3 -3 24 -6 47 -6 42 0
43 1 95 80 29 44 55 79 57 76 2 -2 10 -27 18 -56 22 -82 38 -100 90 -100 24 0
55 4 69 10 29 11 36 43 9 39 -28 -4 -60 10 -68 29 -19 46 -41 159 -34 172 4 8
41 50 82 92 82 84 84 98 9 98 -43 0 -44 -1 -39 -28 4 -21 -3 -39 -30 -76 -19
-26 -38 -44 -43 -40 -4 5 -13 32 -19 59 -21 86 -55 106 -146 86z"/>
</g>
</svg>
