<?xml version="1.0" standalone="no"?>
<!DOCTYPE svg PUBLIC "-//W3C//DTD SVG 20010904//EN"
 "http://www.w3.org/TR/2001/REC-SVG-20010904/DTD/svg10.dtd">
<svg version="1.0" xmlns="http://www.w3.org/2000/svg"
 width="433.000000pt" height="577.000000pt" viewBox="0 0 433.000000 577.000000"
 preserveAspectRatio="xMidYMid meet">

<g transform="translate(0.000000,577.000000) scale(0.100000,-0.100000)"
fill="#000000" stroke="none">
<path d="M2214 4060 c-142 -21 -312 -150 -383 -290 -21 -41 -44 -100 -52 -130
-17 -70 -15 -231 4 -293 12 -36 12 -49 4 -52 -7 -2 -32 -9 -57 -15 -25 -7 -76
-26 -115 -44 -181 -84 -303 -198 -394 -368 -67 -124 -76 -169 -76 -373 0 -174
1 -183 29 -258 25 -70 67 -140 153 -262 33 -46 154 -142 228 -181 139 -74 298
-101 480 -83 115 11 146 20 235 64 245 123 410 339 454 594 20 117 20 155 1
266 -28 162 -89 273 -254 465 -161 187 -221 263 -232 298 -16 49 -6 159 19
207 27 53 57 79 117 104 l50 20 -75 0 c-170 1 -270 -110 -246 -272 9 -57 111
-237 192 -337 34 -41 69 -88 79 -105 11 -16 40 -57 66 -90 77 -99 106 -156
128 -246 39 -162 20 -353 -48 -484 -44 -86 -151 -201 -235 -253 -185 -116
-394 -132 -625 -47 -114 42 -259 182 -320 310 -86 178 -92 345 -22 547 57 165
247 337 432 392 93 28 108 24 162 -44 l48 -60 -45 0 c-110 0 -251 -55 -339
-131 -160 -139 -225 -386 -153 -583 30 -82 110 -202 160 -238 66 -48 160 -97
197 -104 27 -5 22 0 -28 24 -83 41 -178 137 -221 225 -30 61 -34 78 -39 180
-10 203 22 293 148 422 87 90 161 134 257 154 88 18 99 15 146 -36 24 -27 78
-86 121 -133 101 -110 139 -188 139 -281 -1 -80 -31 -152 -93 -221 -95 -107
-305 -118 -411 -22 l-39 36 -66 -58 -65 -58 37 -39 c43 -44 105 -83 155 -98
148 -43 319 -27 423 41 110 72 180 163 217 284 17 56 20 85 16 165 -8 150 -49
231 -197 386 -205 216 -273 301 -313 392 -25 57 -34 172 -19 245 13 62 75 165
125 208 68 59 101 72 239 95 l37 6 0 84 0 85 -42 -1 c-24 -1 -66 -5 -94 -9z"/>
<path d="M2490 3900 l0 -170 35 0 35 0 0 170 0 170 -35 0 -35 0 0 -170z"/>
<path d="M2916 3509 c-3 -8 -7 -50 -10 -94 -2 -44 -10 -104 -17 -133 -12 -47
-11 -54 4 -69 23 -24 37 -7 66 80 31 89 26 166 -12 205 -20 20 -27 22 -31 11z"/>
<path d="M2737 3423 c-2 -5 -10 -25 -16 -45 -12 -35 -15 -38 -52 -38 -21 0
-39 -4 -39 -9 0 -26 15 -41 39 -41 25 0 27 -3 23 -34 -3 -25 1 -35 14 -40 22
-8 35 4 48 46 9 28 17 34 46 36 43 4 61 19 40 32 -8 5 -25 10 -37 10 -18 0
-23 6 -23 26 0 43 -29 81 -43 57z"/>
<path d="M2586 3148 c70 -71 154 -178 154 -196 0 -4 11 -32 25 -60 101 -210
118 -445 48 -667 -22 -70 -80 -192 -116 -245 -63 -92 -227 -246 -282 -264 -11
-3 -31 -15 -45 -26 l-25 -20 23 0 c49 0 158 68 253 158 147 140 246 323 280
519 15 85 6 299 -16 378 -21 74 -84 212 -119 258 -14 19 -26 39 -26 44 0 16
-88 111 -143 155 -82 64 -88 45 -11 -34z"/>
<path d="M1135 1940 c-76 -62 -102 -89 -119 -125 -22 -46 -20 -72 9 -100 20
-21 34 -25 77 -24 73 1 149 29 168 62 13 24 12 30 -9 79 -13 29 -26 65 -28 80
-3 14 -15 36 -27 47 l-22 21 -49 -40z m67 -103 c9 -19 13 -38 10 -44 -13 -19
-71 -43 -107 -43 -47 0 -47 23 1 78 45 53 74 55 96 9z"/>
</g>
</svg>
