%TF.GenerationSoftware,KiCad,Pcbnew,7.0.1*%
%TF.CreationDate,2025-06-24T16:32:56+07:00*%
%TF.ProjectId,panelize,70616e65-6c69-47a6-952e-6b696361645f,rev?*%
%TF.SameCoordinates,Original*%
%TF.FileFunction,Soldermask,Top*%
%TF.FilePolarity,Negative*%
%FSLAX46Y46*%
G04 Gerber Fmt 4.6, Leading zero omitted, Abs format (unit mm)*
G04 Created by KiCad (PCBNEW 7.0.1) date 2025-06-24 16:32:56*
%MOMM*%
%LPD*%
G01*
G04 APERTURE LIST*
G04 Aperture macros list*
%AMRoundRect*
0 Rectangle with rounded corners*
0 $1 Rounding radius*
0 $2 $3 $4 $5 $6 $7 $8 $9 X,Y pos of 4 corners*
0 Add a 4 corners polygon primitive as box body*
4,1,4,$2,$3,$4,$5,$6,$7,$8,$9,$2,$3,0*
0 Add four circle primitives for the rounded corners*
1,1,$1+$1,$2,$3*
1,1,$1+$1,$4,$5*
1,1,$1+$1,$6,$7*
1,1,$1+$1,$8,$9*
0 Add four rect primitives between the rounded corners*
20,1,$1+$1,$2,$3,$4,$5,0*
20,1,$1+$1,$4,$5,$6,$7,0*
20,1,$1+$1,$6,$7,$8,$9,0*
20,1,$1+$1,$8,$9,$2,$3,0*%
G04 Aperture macros list end*
%ADD10RoundRect,0.150000X0.625000X-0.150000X0.625000X0.150000X-0.625000X0.150000X-0.625000X-0.150000X0*%
%ADD11RoundRect,0.250000X0.650000X-0.350000X0.650000X0.350000X-0.650000X0.350000X-0.650000X-0.350000X0*%
%ADD12RoundRect,0.150000X0.150000X-0.512500X0.150000X0.512500X-0.150000X0.512500X-0.150000X-0.512500X0*%
%ADD13RoundRect,0.200000X0.200000X0.275000X-0.200000X0.275000X-0.200000X-0.275000X0.200000X-0.275000X0*%
%ADD14C,2.100000*%
%ADD15RoundRect,0.200000X-0.200000X-0.275000X0.200000X-0.275000X0.200000X0.275000X-0.200000X0.275000X0*%
%ADD16RoundRect,0.150000X0.150000X-0.587500X0.150000X0.587500X-0.150000X0.587500X-0.150000X-0.587500X0*%
%ADD17RoundRect,0.225000X-0.225000X-0.250000X0.225000X-0.250000X0.225000X0.250000X-0.225000X0.250000X0*%
%ADD18R,1.700000X1.700000*%
%ADD19O,1.700000X1.700000*%
%ADD20RoundRect,0.150000X-0.625000X0.150000X-0.625000X-0.150000X0.625000X-0.150000X0.625000X0.150000X0*%
%ADD21RoundRect,0.250000X-0.650000X0.350000X-0.650000X-0.350000X0.650000X-0.350000X0.650000X0.350000X0*%
%ADD22RoundRect,0.200000X-0.275000X0.200000X-0.275000X-0.200000X0.275000X-0.200000X0.275000X0.200000X0*%
%ADD23R,1.560000X0.650000*%
%ADD24RoundRect,0.225000X0.225000X0.250000X-0.225000X0.250000X-0.225000X-0.250000X0.225000X-0.250000X0*%
%ADD25RoundRect,0.218750X0.256250X-0.218750X0.256250X0.218750X-0.256250X0.218750X-0.256250X-0.218750X0*%
%ADD26RoundRect,0.150000X-0.150000X0.587500X-0.150000X-0.587500X0.150000X-0.587500X0.150000X0.587500X0*%
G04 APERTURE END LIST*
D10*
%TO.C,J55*%
X175756500Y-153228000D03*
X175756500Y-152228000D03*
X175756500Y-151228000D03*
X175756500Y-150228000D03*
D11*
X173231500Y-154528000D03*
X173231500Y-148928000D03*
%TD*%
D12*
%TO.C,U38*%
X179174000Y-152993500D03*
X180124000Y-152993500D03*
X181074000Y-152993500D03*
X181074000Y-150718500D03*
X179174000Y-150718500D03*
%TD*%
D13*
%TO.C,R114*%
X179749000Y-148096000D03*
X178099000Y-148096000D03*
%TD*%
D14*
%TO.C,H75*%
X197846000Y-158840000D03*
%TD*%
D15*
%TO.C,R111*%
X192379000Y-148126000D03*
X194029000Y-148126000D03*
%TD*%
D16*
%TO.C,Q55*%
X188284000Y-145576000D03*
X190184000Y-145576000D03*
X189234000Y-143701000D03*
%TD*%
D17*
%TO.C,C73*%
X179244500Y-155030000D03*
X180794500Y-155030000D03*
%TD*%
D18*
%TO.C,J57*%
X181040500Y-159348000D03*
D19*
X183580500Y-159348000D03*
X186120500Y-159348000D03*
X188660500Y-159348000D03*
X191200500Y-159348000D03*
%TD*%
D14*
%TO.C,H76*%
X197846000Y-144616000D03*
%TD*%
D16*
%TO.C,Q56*%
X191824000Y-145576000D03*
X193724000Y-145576000D03*
X192774000Y-143701000D03*
%TD*%
D20*
%TO.C,J56*%
X196474500Y-150228000D03*
X196474500Y-151228000D03*
X196474500Y-152228000D03*
X196474500Y-153228000D03*
D21*
X198999500Y-148928000D03*
X198999500Y-154528000D03*
%TD*%
D22*
%TO.C,R109*%
X191750000Y-150649000D03*
X191750000Y-152299000D03*
%TD*%
D15*
%TO.C,R110*%
X189289000Y-148126000D03*
X190939000Y-148126000D03*
%TD*%
D22*
%TO.C,R113*%
X186162000Y-146585000D03*
X186162000Y-148235000D03*
%TD*%
D23*
%TO.C,U37*%
X184804000Y-150786000D03*
X184804000Y-151736000D03*
X184804000Y-152686000D03*
X187504000Y-152686000D03*
X187504000Y-151736000D03*
X187504000Y-150786000D03*
%TD*%
D17*
%TO.C,C74*%
X181309000Y-148146000D03*
X182859000Y-148146000D03*
%TD*%
D22*
%TO.C,R112*%
X184638000Y-146585000D03*
X184638000Y-148235000D03*
%TD*%
D14*
%TO.C,H73*%
X174478000Y-144616000D03*
%TD*%
D24*
%TO.C,C76*%
X189223000Y-154522000D03*
X187673000Y-154522000D03*
%TD*%
%TO.C,C75*%
X184905000Y-154522000D03*
X183355000Y-154522000D03*
%TD*%
D25*
%TO.C,D19*%
X191750000Y-155335000D03*
X191750000Y-153760000D03*
%TD*%
D26*
%TO.C,Q57*%
X180592500Y-143808500D03*
X178692500Y-143808500D03*
X179642500Y-145683500D03*
%TD*%
D14*
%TO.C,H74*%
X174478000Y-158840000D03*
%TD*%
D10*
%TO.C,J52*%
X146808500Y-153228000D03*
X146808500Y-152228000D03*
X146808500Y-151228000D03*
X146808500Y-150228000D03*
D11*
X144283500Y-154528000D03*
X144283500Y-148928000D03*
%TD*%
D12*
%TO.C,U36*%
X150226000Y-152993500D03*
X151176000Y-152993500D03*
X152126000Y-152993500D03*
X152126000Y-150718500D03*
X150226000Y-150718500D03*
%TD*%
D13*
%TO.C,R108*%
X150801000Y-148096000D03*
X149151000Y-148096000D03*
%TD*%
D14*
%TO.C,H71*%
X168898000Y-158840000D03*
%TD*%
D16*
%TO.C,Q52*%
X159336000Y-145576000D03*
X161236000Y-145576000D03*
X160286000Y-143701000D03*
%TD*%
D17*
%TO.C,C69*%
X150296500Y-155030000D03*
X151846500Y-155030000D03*
%TD*%
D20*
%TO.C,J53*%
X167526500Y-150228000D03*
X167526500Y-151228000D03*
X167526500Y-152228000D03*
X167526500Y-153228000D03*
D21*
X170051500Y-148928000D03*
X170051500Y-154528000D03*
%TD*%
D18*
%TO.C,J54*%
X152092500Y-159348000D03*
D19*
X154632500Y-159348000D03*
X157172500Y-159348000D03*
X159712500Y-159348000D03*
X162252500Y-159348000D03*
%TD*%
D24*
%TO.C,C72*%
X160275000Y-154522000D03*
X158725000Y-154522000D03*
%TD*%
D14*
%TO.C,H69*%
X145530000Y-144616000D03*
%TD*%
%TO.C,H72*%
X168898000Y-144616000D03*
%TD*%
D16*
%TO.C,Q53*%
X162876000Y-145576000D03*
X164776000Y-145576000D03*
X163826000Y-143701000D03*
%TD*%
D22*
%TO.C,R103*%
X162802000Y-150649000D03*
X162802000Y-152299000D03*
%TD*%
D15*
%TO.C,R104*%
X160341000Y-148126000D03*
X161991000Y-148126000D03*
%TD*%
D22*
%TO.C,R107*%
X157214000Y-146585000D03*
X157214000Y-148235000D03*
%TD*%
D23*
%TO.C,U35*%
X155856000Y-150786000D03*
X155856000Y-151736000D03*
X155856000Y-152686000D03*
X158556000Y-152686000D03*
X158556000Y-151736000D03*
X158556000Y-150786000D03*
%TD*%
D17*
%TO.C,C70*%
X152361000Y-148146000D03*
X153911000Y-148146000D03*
%TD*%
D22*
%TO.C,R106*%
X155690000Y-146585000D03*
X155690000Y-148235000D03*
%TD*%
D15*
%TO.C,R105*%
X163431000Y-148126000D03*
X165081000Y-148126000D03*
%TD*%
D26*
%TO.C,Q54*%
X151644500Y-143808500D03*
X149744500Y-143808500D03*
X150694500Y-145683500D03*
%TD*%
D24*
%TO.C,C71*%
X155957000Y-154522000D03*
X154407000Y-154522000D03*
%TD*%
D25*
%TO.C,D18*%
X162802000Y-155335000D03*
X162802000Y-153760000D03*
%TD*%
D14*
%TO.C,H70*%
X145530000Y-158840000D03*
%TD*%
D10*
%TO.C,J49*%
X117860500Y-153228000D03*
X117860500Y-152228000D03*
X117860500Y-151228000D03*
X117860500Y-150228000D03*
D11*
X115335500Y-154528000D03*
X115335500Y-148928000D03*
%TD*%
D12*
%TO.C,U34*%
X121278000Y-152993500D03*
X122228000Y-152993500D03*
X123178000Y-152993500D03*
X123178000Y-150718500D03*
X121278000Y-150718500D03*
%TD*%
D13*
%TO.C,R102*%
X121853000Y-148096000D03*
X120203000Y-148096000D03*
%TD*%
D14*
%TO.C,H67*%
X139950000Y-158840000D03*
%TD*%
D16*
%TO.C,Q49*%
X130388000Y-145576000D03*
X132288000Y-145576000D03*
X131338000Y-143701000D03*
%TD*%
D17*
%TO.C,C65*%
X121348500Y-155030000D03*
X122898500Y-155030000D03*
%TD*%
D20*
%TO.C,J50*%
X138578500Y-150228000D03*
X138578500Y-151228000D03*
X138578500Y-152228000D03*
X138578500Y-153228000D03*
D21*
X141103500Y-148928000D03*
X141103500Y-154528000D03*
%TD*%
D18*
%TO.C,J51*%
X123144500Y-159348000D03*
D19*
X125684500Y-159348000D03*
X128224500Y-159348000D03*
X130764500Y-159348000D03*
X133304500Y-159348000D03*
%TD*%
D14*
%TO.C,H65*%
X116582000Y-144616000D03*
%TD*%
%TO.C,H68*%
X139950000Y-144616000D03*
%TD*%
D16*
%TO.C,Q50*%
X133928000Y-145576000D03*
X135828000Y-145576000D03*
X134878000Y-143701000D03*
%TD*%
D22*
%TO.C,R97*%
X133854000Y-150649000D03*
X133854000Y-152299000D03*
%TD*%
D15*
%TO.C,R98*%
X131393000Y-148126000D03*
X133043000Y-148126000D03*
%TD*%
D22*
%TO.C,R101*%
X128266000Y-146585000D03*
X128266000Y-148235000D03*
%TD*%
D17*
%TO.C,C66*%
X123413000Y-148146000D03*
X124963000Y-148146000D03*
%TD*%
D24*
%TO.C,C68*%
X131327000Y-154522000D03*
X129777000Y-154522000D03*
%TD*%
D22*
%TO.C,R100*%
X126742000Y-146585000D03*
X126742000Y-148235000D03*
%TD*%
D15*
%TO.C,R99*%
X134483000Y-148126000D03*
X136133000Y-148126000D03*
%TD*%
D23*
%TO.C,U33*%
X126908000Y-150786000D03*
X126908000Y-151736000D03*
X126908000Y-152686000D03*
X129608000Y-152686000D03*
X129608000Y-151736000D03*
X129608000Y-150786000D03*
%TD*%
D26*
%TO.C,Q51*%
X122696500Y-143808500D03*
X120796500Y-143808500D03*
X121746500Y-145683500D03*
%TD*%
D24*
%TO.C,C67*%
X127009000Y-154522000D03*
X125459000Y-154522000D03*
%TD*%
D25*
%TO.C,D17*%
X133854000Y-155335000D03*
X133854000Y-153760000D03*
%TD*%
D14*
%TO.C,H66*%
X116582000Y-158840000D03*
%TD*%
D10*
%TO.C,J43*%
X175756500Y-133424000D03*
X175756500Y-132424000D03*
X175756500Y-131424000D03*
X175756500Y-130424000D03*
D11*
X173231500Y-134724000D03*
X173231500Y-129124000D03*
%TD*%
D12*
%TO.C,U30*%
X179174000Y-133189500D03*
X180124000Y-133189500D03*
X181074000Y-133189500D03*
X181074000Y-130914500D03*
X179174000Y-130914500D03*
%TD*%
D13*
%TO.C,R90*%
X179749000Y-128292000D03*
X178099000Y-128292000D03*
%TD*%
D14*
%TO.C,H59*%
X197846000Y-139036000D03*
%TD*%
D15*
%TO.C,R87*%
X192379000Y-128322000D03*
X194029000Y-128322000D03*
%TD*%
D16*
%TO.C,Q43*%
X188284000Y-125772000D03*
X190184000Y-125772000D03*
X189234000Y-123897000D03*
%TD*%
D17*
%TO.C,C57*%
X179244500Y-135226000D03*
X180794500Y-135226000D03*
%TD*%
D20*
%TO.C,J44*%
X196474500Y-130424000D03*
X196474500Y-131424000D03*
X196474500Y-132424000D03*
X196474500Y-133424000D03*
D21*
X198999500Y-129124000D03*
X198999500Y-134724000D03*
%TD*%
D18*
%TO.C,J45*%
X181040500Y-139544000D03*
D19*
X183580500Y-139544000D03*
X186120500Y-139544000D03*
X188660500Y-139544000D03*
X191200500Y-139544000D03*
%TD*%
D24*
%TO.C,C60*%
X189223000Y-134718000D03*
X187673000Y-134718000D03*
%TD*%
D14*
%TO.C,H57*%
X174478000Y-124812000D03*
%TD*%
%TO.C,H60*%
X197846000Y-124812000D03*
%TD*%
D16*
%TO.C,Q44*%
X191824000Y-125772000D03*
X193724000Y-125772000D03*
X192774000Y-123897000D03*
%TD*%
D15*
%TO.C,R86*%
X189289000Y-128322000D03*
X190939000Y-128322000D03*
%TD*%
D22*
%TO.C,R89*%
X186162000Y-126781000D03*
X186162000Y-128431000D03*
%TD*%
D23*
%TO.C,U29*%
X184804000Y-130982000D03*
X184804000Y-131932000D03*
X184804000Y-132882000D03*
X187504000Y-132882000D03*
X187504000Y-131932000D03*
X187504000Y-130982000D03*
%TD*%
D17*
%TO.C,C58*%
X181309000Y-128342000D03*
X182859000Y-128342000D03*
%TD*%
D22*
%TO.C,R88*%
X184638000Y-126781000D03*
X184638000Y-128431000D03*
%TD*%
%TO.C,R85*%
X191750000Y-130845000D03*
X191750000Y-132495000D03*
%TD*%
D26*
%TO.C,Q45*%
X180592500Y-124004500D03*
X178692500Y-124004500D03*
X179642500Y-125879500D03*
%TD*%
D24*
%TO.C,C59*%
X184905000Y-134718000D03*
X183355000Y-134718000D03*
%TD*%
D25*
%TO.C,D15*%
X191750000Y-135531000D03*
X191750000Y-133956000D03*
%TD*%
D14*
%TO.C,H58*%
X174478000Y-139036000D03*
%TD*%
D12*
%TO.C,U28*%
X150226000Y-133189500D03*
X151176000Y-133189500D03*
X152126000Y-133189500D03*
X152126000Y-130914500D03*
X150226000Y-130914500D03*
%TD*%
D13*
%TO.C,R84*%
X150801000Y-128292000D03*
X149151000Y-128292000D03*
%TD*%
D14*
%TO.C,H55*%
X168898000Y-139036000D03*
%TD*%
D15*
%TO.C,R81*%
X163431000Y-128322000D03*
X165081000Y-128322000D03*
%TD*%
D17*
%TO.C,C53*%
X150296500Y-135226000D03*
X151846500Y-135226000D03*
%TD*%
D18*
%TO.C,J42*%
X152092500Y-139544000D03*
D19*
X154632500Y-139544000D03*
X157172500Y-139544000D03*
X159712500Y-139544000D03*
X162252500Y-139544000D03*
%TD*%
D14*
%TO.C,H53*%
X145530000Y-124812000D03*
%TD*%
%TO.C,H56*%
X168898000Y-124812000D03*
%TD*%
D16*
%TO.C,Q41*%
X162876000Y-125772000D03*
X164776000Y-125772000D03*
X163826000Y-123897000D03*
%TD*%
D22*
%TO.C,R79*%
X162802000Y-130845000D03*
X162802000Y-132495000D03*
%TD*%
D15*
%TO.C,R80*%
X160341000Y-128322000D03*
X161991000Y-128322000D03*
%TD*%
D22*
%TO.C,R83*%
X157214000Y-126781000D03*
X157214000Y-128431000D03*
%TD*%
D17*
%TO.C,C54*%
X152361000Y-128342000D03*
X153911000Y-128342000D03*
%TD*%
D16*
%TO.C,Q40*%
X159336000Y-125772000D03*
X161236000Y-125772000D03*
X160286000Y-123897000D03*
%TD*%
D22*
%TO.C,R82*%
X155690000Y-126781000D03*
X155690000Y-128431000D03*
%TD*%
D24*
%TO.C,C56*%
X160275000Y-134718000D03*
X158725000Y-134718000D03*
%TD*%
D23*
%TO.C,U27*%
X155856000Y-130982000D03*
X155856000Y-131932000D03*
X155856000Y-132882000D03*
X158556000Y-132882000D03*
X158556000Y-131932000D03*
X158556000Y-130982000D03*
%TD*%
D10*
%TO.C,J40*%
X146808500Y-133424000D03*
X146808500Y-132424000D03*
X146808500Y-131424000D03*
X146808500Y-130424000D03*
D11*
X144283500Y-134724000D03*
X144283500Y-129124000D03*
%TD*%
D20*
%TO.C,J41*%
X167526500Y-130424000D03*
X167526500Y-131424000D03*
X167526500Y-132424000D03*
X167526500Y-133424000D03*
D21*
X170051500Y-129124000D03*
X170051500Y-134724000D03*
%TD*%
D26*
%TO.C,Q42*%
X151644500Y-124004500D03*
X149744500Y-124004500D03*
X150694500Y-125879500D03*
%TD*%
D24*
%TO.C,C55*%
X155957000Y-134718000D03*
X154407000Y-134718000D03*
%TD*%
D25*
%TO.C,D14*%
X162802000Y-135531000D03*
X162802000Y-133956000D03*
%TD*%
D14*
%TO.C,H54*%
X145530000Y-139036000D03*
%TD*%
D10*
%TO.C,J37*%
X117860500Y-133424000D03*
X117860500Y-132424000D03*
X117860500Y-131424000D03*
X117860500Y-130424000D03*
D11*
X115335500Y-134724000D03*
X115335500Y-129124000D03*
%TD*%
D13*
%TO.C,R78*%
X121853000Y-128292000D03*
X120203000Y-128292000D03*
%TD*%
D14*
%TO.C,H51*%
X139950000Y-139036000D03*
%TD*%
D15*
%TO.C,R75*%
X134483000Y-128322000D03*
X136133000Y-128322000D03*
%TD*%
D16*
%TO.C,Q37*%
X130388000Y-125772000D03*
X132288000Y-125772000D03*
X131338000Y-123897000D03*
%TD*%
D17*
%TO.C,C49*%
X121348500Y-135226000D03*
X122898500Y-135226000D03*
%TD*%
D20*
%TO.C,J38*%
X138578500Y-130424000D03*
X138578500Y-131424000D03*
X138578500Y-132424000D03*
X138578500Y-133424000D03*
D21*
X141103500Y-129124000D03*
X141103500Y-134724000D03*
%TD*%
D18*
%TO.C,J39*%
X123144500Y-139544000D03*
D19*
X125684500Y-139544000D03*
X128224500Y-139544000D03*
X130764500Y-139544000D03*
X133304500Y-139544000D03*
%TD*%
D14*
%TO.C,H49*%
X116582000Y-124812000D03*
%TD*%
%TO.C,H52*%
X139950000Y-124812000D03*
%TD*%
D22*
%TO.C,R73*%
X133854000Y-130845000D03*
X133854000Y-132495000D03*
%TD*%
D15*
%TO.C,R74*%
X131393000Y-128322000D03*
X133043000Y-128322000D03*
%TD*%
D23*
%TO.C,U25*%
X126908000Y-130982000D03*
X126908000Y-131932000D03*
X126908000Y-132882000D03*
X129608000Y-132882000D03*
X129608000Y-131932000D03*
X129608000Y-130982000D03*
%TD*%
D17*
%TO.C,C50*%
X123413000Y-128342000D03*
X124963000Y-128342000D03*
%TD*%
D12*
%TO.C,U26*%
X121278000Y-133189500D03*
X122228000Y-133189500D03*
X123178000Y-133189500D03*
X123178000Y-130914500D03*
X121278000Y-130914500D03*
%TD*%
D16*
%TO.C,Q38*%
X133928000Y-125772000D03*
X135828000Y-125772000D03*
X134878000Y-123897000D03*
%TD*%
D22*
%TO.C,R76*%
X126742000Y-126781000D03*
X126742000Y-128431000D03*
%TD*%
%TO.C,R77*%
X128266000Y-126781000D03*
X128266000Y-128431000D03*
%TD*%
D24*
%TO.C,C52*%
X131327000Y-134718000D03*
X129777000Y-134718000D03*
%TD*%
D26*
%TO.C,Q39*%
X122696500Y-124004500D03*
X120796500Y-124004500D03*
X121746500Y-125879500D03*
%TD*%
D24*
%TO.C,C51*%
X127009000Y-134718000D03*
X125459000Y-134718000D03*
%TD*%
D25*
%TO.C,D13*%
X133854000Y-135531000D03*
X133854000Y-133956000D03*
%TD*%
D14*
%TO.C,H50*%
X116582000Y-139036000D03*
%TD*%
D10*
%TO.C,J31*%
X175756500Y-113620000D03*
X175756500Y-112620000D03*
X175756500Y-111620000D03*
X175756500Y-110620000D03*
D11*
X173231500Y-114920000D03*
X173231500Y-109320000D03*
%TD*%
D12*
%TO.C,U22*%
X179174000Y-113385500D03*
X180124000Y-113385500D03*
X181074000Y-113385500D03*
X181074000Y-111110500D03*
X179174000Y-111110500D03*
%TD*%
D13*
%TO.C,R66*%
X179749000Y-108488000D03*
X178099000Y-108488000D03*
%TD*%
D14*
%TO.C,H43*%
X197846000Y-119232000D03*
%TD*%
D15*
%TO.C,R63*%
X192379000Y-108518000D03*
X194029000Y-108518000D03*
%TD*%
D16*
%TO.C,Q31*%
X188284000Y-105968000D03*
X190184000Y-105968000D03*
X189234000Y-104093000D03*
%TD*%
D17*
%TO.C,C41*%
X179244500Y-115422000D03*
X180794500Y-115422000D03*
%TD*%
D18*
%TO.C,J33*%
X181040500Y-119740000D03*
D19*
X183580500Y-119740000D03*
X186120500Y-119740000D03*
X188660500Y-119740000D03*
X191200500Y-119740000D03*
%TD*%
D14*
%TO.C,H41*%
X174478000Y-105008000D03*
%TD*%
%TO.C,H44*%
X197846000Y-105008000D03*
%TD*%
D16*
%TO.C,Q32*%
X191824000Y-105968000D03*
X193724000Y-105968000D03*
X192774000Y-104093000D03*
%TD*%
D22*
%TO.C,R61*%
X191750000Y-111041000D03*
X191750000Y-112691000D03*
%TD*%
D15*
%TO.C,R62*%
X189289000Y-108518000D03*
X190939000Y-108518000D03*
%TD*%
D22*
%TO.C,R65*%
X186162000Y-106977000D03*
X186162000Y-108627000D03*
%TD*%
D23*
%TO.C,U21*%
X184804000Y-111178000D03*
X184804000Y-112128000D03*
X184804000Y-113078000D03*
X187504000Y-113078000D03*
X187504000Y-112128000D03*
X187504000Y-111178000D03*
%TD*%
D17*
%TO.C,C42*%
X181309000Y-108538000D03*
X182859000Y-108538000D03*
%TD*%
D22*
%TO.C,R64*%
X184638000Y-106977000D03*
X184638000Y-108627000D03*
%TD*%
D20*
%TO.C,J32*%
X196474500Y-110620000D03*
X196474500Y-111620000D03*
X196474500Y-112620000D03*
X196474500Y-113620000D03*
D21*
X198999500Y-109320000D03*
X198999500Y-114920000D03*
%TD*%
D24*
%TO.C,C44*%
X189223000Y-114914000D03*
X187673000Y-114914000D03*
%TD*%
D26*
%TO.C,Q33*%
X180592500Y-104200500D03*
X178692500Y-104200500D03*
X179642500Y-106075500D03*
%TD*%
D24*
%TO.C,C43*%
X184905000Y-114914000D03*
X183355000Y-114914000D03*
%TD*%
D25*
%TO.C,D11*%
X191750000Y-115727000D03*
X191750000Y-114152000D03*
%TD*%
D14*
%TO.C,H42*%
X174478000Y-119232000D03*
%TD*%
D10*
%TO.C,J28*%
X146808500Y-113620000D03*
X146808500Y-112620000D03*
X146808500Y-111620000D03*
X146808500Y-110620000D03*
D11*
X144283500Y-114920000D03*
X144283500Y-109320000D03*
%TD*%
D12*
%TO.C,U20*%
X150226000Y-113385500D03*
X151176000Y-113385500D03*
X152126000Y-113385500D03*
X152126000Y-111110500D03*
X150226000Y-111110500D03*
%TD*%
D14*
%TO.C,H39*%
X168898000Y-119232000D03*
%TD*%
D15*
%TO.C,R57*%
X163431000Y-108518000D03*
X165081000Y-108518000D03*
%TD*%
D17*
%TO.C,C37*%
X150296500Y-115422000D03*
X151846500Y-115422000D03*
%TD*%
D20*
%TO.C,J29*%
X167526500Y-110620000D03*
X167526500Y-111620000D03*
X167526500Y-112620000D03*
X167526500Y-113620000D03*
D21*
X170051500Y-109320000D03*
X170051500Y-114920000D03*
%TD*%
D24*
%TO.C,C40*%
X160275000Y-114914000D03*
X158725000Y-114914000D03*
%TD*%
D14*
%TO.C,H37*%
X145530000Y-105008000D03*
%TD*%
%TO.C,H40*%
X168898000Y-105008000D03*
%TD*%
D16*
%TO.C,Q29*%
X162876000Y-105968000D03*
X164776000Y-105968000D03*
X163826000Y-104093000D03*
%TD*%
D22*
%TO.C,R55*%
X162802000Y-111041000D03*
X162802000Y-112691000D03*
%TD*%
D15*
%TO.C,R56*%
X160341000Y-108518000D03*
X161991000Y-108518000D03*
%TD*%
D22*
%TO.C,R59*%
X157214000Y-106977000D03*
X157214000Y-108627000D03*
%TD*%
D23*
%TO.C,U19*%
X155856000Y-111178000D03*
X155856000Y-112128000D03*
X155856000Y-113078000D03*
X158556000Y-113078000D03*
X158556000Y-112128000D03*
X158556000Y-111178000D03*
%TD*%
D17*
%TO.C,C38*%
X152361000Y-108538000D03*
X153911000Y-108538000D03*
%TD*%
D22*
%TO.C,R58*%
X155690000Y-106977000D03*
X155690000Y-108627000D03*
%TD*%
D16*
%TO.C,Q28*%
X159336000Y-105968000D03*
X161236000Y-105968000D03*
X160286000Y-104093000D03*
%TD*%
D18*
%TO.C,J30*%
X152092500Y-119740000D03*
D19*
X154632500Y-119740000D03*
X157172500Y-119740000D03*
X159712500Y-119740000D03*
X162252500Y-119740000D03*
%TD*%
D13*
%TO.C,R60*%
X150801000Y-108488000D03*
X149151000Y-108488000D03*
%TD*%
D26*
%TO.C,Q30*%
X151644500Y-104200500D03*
X149744500Y-104200500D03*
X150694500Y-106075500D03*
%TD*%
D24*
%TO.C,C39*%
X155957000Y-114914000D03*
X154407000Y-114914000D03*
%TD*%
D25*
%TO.C,D10*%
X162802000Y-115727000D03*
X162802000Y-114152000D03*
%TD*%
D14*
%TO.C,H38*%
X145530000Y-119232000D03*
%TD*%
D10*
%TO.C,J25*%
X117860500Y-113620000D03*
X117860500Y-112620000D03*
X117860500Y-111620000D03*
X117860500Y-110620000D03*
D11*
X115335500Y-114920000D03*
X115335500Y-109320000D03*
%TD*%
D12*
%TO.C,U18*%
X121278000Y-113385500D03*
X122228000Y-113385500D03*
X123178000Y-113385500D03*
X123178000Y-111110500D03*
X121278000Y-111110500D03*
%TD*%
D14*
%TO.C,H35*%
X139950000Y-119232000D03*
%TD*%
D15*
%TO.C,R51*%
X134483000Y-108518000D03*
X136133000Y-108518000D03*
%TD*%
D16*
%TO.C,Q25*%
X130388000Y-105968000D03*
X132288000Y-105968000D03*
X131338000Y-104093000D03*
%TD*%
D18*
%TO.C,J27*%
X123144500Y-119740000D03*
D19*
X125684500Y-119740000D03*
X128224500Y-119740000D03*
X130764500Y-119740000D03*
X133304500Y-119740000D03*
%TD*%
D24*
%TO.C,C36*%
X131327000Y-114914000D03*
X129777000Y-114914000D03*
%TD*%
D14*
%TO.C,H33*%
X116582000Y-105008000D03*
%TD*%
%TO.C,H36*%
X139950000Y-105008000D03*
%TD*%
D16*
%TO.C,Q26*%
X133928000Y-105968000D03*
X135828000Y-105968000D03*
X134878000Y-104093000D03*
%TD*%
D22*
%TO.C,R49*%
X133854000Y-111041000D03*
X133854000Y-112691000D03*
%TD*%
D15*
%TO.C,R50*%
X131393000Y-108518000D03*
X133043000Y-108518000D03*
%TD*%
D22*
%TO.C,R53*%
X128266000Y-106977000D03*
X128266000Y-108627000D03*
%TD*%
D23*
%TO.C,U17*%
X126908000Y-111178000D03*
X126908000Y-112128000D03*
X126908000Y-113078000D03*
X129608000Y-113078000D03*
X129608000Y-112128000D03*
X129608000Y-111178000D03*
%TD*%
D17*
%TO.C,C33*%
X121348500Y-115422000D03*
X122898500Y-115422000D03*
%TD*%
%TO.C,C34*%
X123413000Y-108538000D03*
X124963000Y-108538000D03*
%TD*%
D22*
%TO.C,R52*%
X126742000Y-106977000D03*
X126742000Y-108627000D03*
%TD*%
D20*
%TO.C,J26*%
X138578500Y-110620000D03*
X138578500Y-111620000D03*
X138578500Y-112620000D03*
X138578500Y-113620000D03*
D21*
X141103500Y-109320000D03*
X141103500Y-114920000D03*
%TD*%
D13*
%TO.C,R54*%
X121853000Y-108488000D03*
X120203000Y-108488000D03*
%TD*%
D26*
%TO.C,Q27*%
X122696500Y-104200500D03*
X120796500Y-104200500D03*
X121746500Y-106075500D03*
%TD*%
D24*
%TO.C,C35*%
X127009000Y-114914000D03*
X125459000Y-114914000D03*
%TD*%
D25*
%TO.C,D9*%
X133854000Y-115727000D03*
X133854000Y-114152000D03*
%TD*%
D14*
%TO.C,H34*%
X116582000Y-119232000D03*
%TD*%
D10*
%TO.C,J19*%
X175756500Y-93816000D03*
X175756500Y-92816000D03*
X175756500Y-91816000D03*
X175756500Y-90816000D03*
D11*
X173231500Y-95116000D03*
X173231500Y-89516000D03*
%TD*%
D12*
%TO.C,U14*%
X179174000Y-93581500D03*
X180124000Y-93581500D03*
X181074000Y-93581500D03*
X181074000Y-91306500D03*
X179174000Y-91306500D03*
%TD*%
D13*
%TO.C,R42*%
X179749000Y-88684000D03*
X178099000Y-88684000D03*
%TD*%
D14*
%TO.C,H27*%
X197846000Y-99428000D03*
%TD*%
D15*
%TO.C,R39*%
X192379000Y-88714000D03*
X194029000Y-88714000D03*
%TD*%
D16*
%TO.C,Q19*%
X188284000Y-86164000D03*
X190184000Y-86164000D03*
X189234000Y-84289000D03*
%TD*%
D17*
%TO.C,C25*%
X179244500Y-95618000D03*
X180794500Y-95618000D03*
%TD*%
D18*
%TO.C,J21*%
X181040500Y-99936000D03*
D19*
X183580500Y-99936000D03*
X186120500Y-99936000D03*
X188660500Y-99936000D03*
X191200500Y-99936000D03*
%TD*%
D24*
%TO.C,C28*%
X189223000Y-95110000D03*
X187673000Y-95110000D03*
%TD*%
D14*
%TO.C,H28*%
X197846000Y-85204000D03*
%TD*%
D22*
%TO.C,R37*%
X191750000Y-91237000D03*
X191750000Y-92887000D03*
%TD*%
D15*
%TO.C,R38*%
X189289000Y-88714000D03*
X190939000Y-88714000D03*
%TD*%
D22*
%TO.C,R41*%
X186162000Y-87173000D03*
X186162000Y-88823000D03*
%TD*%
D23*
%TO.C,U13*%
X184804000Y-91374000D03*
X184804000Y-92324000D03*
X184804000Y-93274000D03*
X187504000Y-93274000D03*
X187504000Y-92324000D03*
X187504000Y-91374000D03*
%TD*%
D17*
%TO.C,C26*%
X181309000Y-88734000D03*
X182859000Y-88734000D03*
%TD*%
D22*
%TO.C,R40*%
X184638000Y-87173000D03*
X184638000Y-88823000D03*
%TD*%
D20*
%TO.C,J20*%
X196474500Y-90816000D03*
X196474500Y-91816000D03*
X196474500Y-92816000D03*
X196474500Y-93816000D03*
D21*
X198999500Y-89516000D03*
X198999500Y-95116000D03*
%TD*%
D14*
%TO.C,H25*%
X174478000Y-85204000D03*
%TD*%
D16*
%TO.C,Q20*%
X191824000Y-86164000D03*
X193724000Y-86164000D03*
X192774000Y-84289000D03*
%TD*%
D26*
%TO.C,Q21*%
X180592500Y-84396500D03*
X178692500Y-84396500D03*
X179642500Y-86271500D03*
%TD*%
D24*
%TO.C,C27*%
X184905000Y-95110000D03*
X183355000Y-95110000D03*
%TD*%
D25*
%TO.C,D7*%
X191750000Y-95923000D03*
X191750000Y-94348000D03*
%TD*%
D14*
%TO.C,H26*%
X174478000Y-99428000D03*
%TD*%
D10*
%TO.C,J16*%
X146808500Y-93816000D03*
X146808500Y-92816000D03*
X146808500Y-91816000D03*
X146808500Y-90816000D03*
D11*
X144283500Y-95116000D03*
X144283500Y-89516000D03*
%TD*%
D13*
%TO.C,R36*%
X150801000Y-88684000D03*
X149151000Y-88684000D03*
%TD*%
D14*
%TO.C,H23*%
X168898000Y-99428000D03*
%TD*%
D15*
%TO.C,R33*%
X163431000Y-88714000D03*
X165081000Y-88714000D03*
%TD*%
D16*
%TO.C,Q16*%
X159336000Y-86164000D03*
X161236000Y-86164000D03*
X160286000Y-84289000D03*
%TD*%
D17*
%TO.C,C21*%
X150296500Y-95618000D03*
X151846500Y-95618000D03*
%TD*%
D20*
%TO.C,J17*%
X167526500Y-90816000D03*
X167526500Y-91816000D03*
X167526500Y-92816000D03*
X167526500Y-93816000D03*
D21*
X170051500Y-89516000D03*
X170051500Y-95116000D03*
%TD*%
D18*
%TO.C,J18*%
X152092500Y-99936000D03*
D19*
X154632500Y-99936000D03*
X157172500Y-99936000D03*
X159712500Y-99936000D03*
X162252500Y-99936000D03*
%TD*%
D24*
%TO.C,C24*%
X160275000Y-95110000D03*
X158725000Y-95110000D03*
%TD*%
D14*
%TO.C,H21*%
X145530000Y-85204000D03*
%TD*%
D22*
%TO.C,R31*%
X162802000Y-91237000D03*
X162802000Y-92887000D03*
%TD*%
D15*
%TO.C,R32*%
X160341000Y-88714000D03*
X161991000Y-88714000D03*
%TD*%
D22*
%TO.C,R35*%
X157214000Y-87173000D03*
X157214000Y-88823000D03*
%TD*%
D23*
%TO.C,U11*%
X155856000Y-91374000D03*
X155856000Y-92324000D03*
X155856000Y-93274000D03*
X158556000Y-93274000D03*
X158556000Y-92324000D03*
X158556000Y-91374000D03*
%TD*%
D17*
%TO.C,C22*%
X152361000Y-88734000D03*
X153911000Y-88734000D03*
%TD*%
D22*
%TO.C,R34*%
X155690000Y-87173000D03*
X155690000Y-88823000D03*
%TD*%
D14*
%TO.C,H24*%
X168898000Y-85204000D03*
%TD*%
D12*
%TO.C,U12*%
X150226000Y-93581500D03*
X151176000Y-93581500D03*
X152126000Y-93581500D03*
X152126000Y-91306500D03*
X150226000Y-91306500D03*
%TD*%
D26*
%TO.C,Q18*%
X151644500Y-84396500D03*
X149744500Y-84396500D03*
X150694500Y-86271500D03*
%TD*%
D24*
%TO.C,C23*%
X155957000Y-95110000D03*
X154407000Y-95110000D03*
%TD*%
D25*
%TO.C,D6*%
X162802000Y-95923000D03*
X162802000Y-94348000D03*
%TD*%
D16*
%TO.C,Q17*%
X162876000Y-86164000D03*
X164776000Y-86164000D03*
X163826000Y-84289000D03*
%TD*%
D14*
%TO.C,H22*%
X145530000Y-99428000D03*
%TD*%
D10*
%TO.C,J13*%
X117860500Y-93816000D03*
X117860500Y-92816000D03*
X117860500Y-91816000D03*
X117860500Y-90816000D03*
D11*
X115335500Y-95116000D03*
X115335500Y-89516000D03*
%TD*%
D12*
%TO.C,U10*%
X121278000Y-93581500D03*
X122228000Y-93581500D03*
X123178000Y-93581500D03*
X123178000Y-91306500D03*
X121278000Y-91306500D03*
%TD*%
D14*
%TO.C,H19*%
X139950000Y-99428000D03*
%TD*%
D15*
%TO.C,R27*%
X134483000Y-88714000D03*
X136133000Y-88714000D03*
%TD*%
D17*
%TO.C,C17*%
X121348500Y-95618000D03*
X122898500Y-95618000D03*
%TD*%
D18*
%TO.C,J15*%
X123144500Y-99936000D03*
D19*
X125684500Y-99936000D03*
X128224500Y-99936000D03*
X130764500Y-99936000D03*
X133304500Y-99936000D03*
%TD*%
D24*
%TO.C,C20*%
X131327000Y-95110000D03*
X129777000Y-95110000D03*
%TD*%
D14*
%TO.C,H17*%
X116582000Y-85204000D03*
%TD*%
%TO.C,H20*%
X139950000Y-85204000D03*
%TD*%
D22*
%TO.C,R25*%
X133854000Y-91237000D03*
X133854000Y-92887000D03*
%TD*%
%TO.C,R29*%
X128266000Y-87173000D03*
X128266000Y-88823000D03*
%TD*%
D23*
%TO.C,U9*%
X126908000Y-91374000D03*
X126908000Y-92324000D03*
X126908000Y-93274000D03*
X129608000Y-93274000D03*
X129608000Y-92324000D03*
X129608000Y-91374000D03*
%TD*%
D17*
%TO.C,C18*%
X123413000Y-88734000D03*
X124963000Y-88734000D03*
%TD*%
D22*
%TO.C,R28*%
X126742000Y-87173000D03*
X126742000Y-88823000D03*
%TD*%
D20*
%TO.C,J14*%
X138578500Y-90816000D03*
X138578500Y-91816000D03*
X138578500Y-92816000D03*
X138578500Y-93816000D03*
D21*
X141103500Y-89516000D03*
X141103500Y-95116000D03*
%TD*%
D15*
%TO.C,R26*%
X131393000Y-88714000D03*
X133043000Y-88714000D03*
%TD*%
D16*
%TO.C,Q14*%
X133928000Y-86164000D03*
X135828000Y-86164000D03*
X134878000Y-84289000D03*
%TD*%
%TO.C,Q13*%
X130388000Y-86164000D03*
X132288000Y-86164000D03*
X131338000Y-84289000D03*
%TD*%
D26*
%TO.C,Q15*%
X122696500Y-84396500D03*
X120796500Y-84396500D03*
X121746500Y-86271500D03*
%TD*%
D24*
%TO.C,C19*%
X127009000Y-95110000D03*
X125459000Y-95110000D03*
%TD*%
D25*
%TO.C,D5*%
X133854000Y-95923000D03*
X133854000Y-94348000D03*
%TD*%
D13*
%TO.C,R30*%
X121853000Y-88684000D03*
X120203000Y-88684000D03*
%TD*%
D14*
%TO.C,H18*%
X116582000Y-99428000D03*
%TD*%
D10*
%TO.C,J7*%
X175756500Y-74012000D03*
X175756500Y-73012000D03*
X175756500Y-72012000D03*
X175756500Y-71012000D03*
D11*
X173231500Y-75312000D03*
X173231500Y-69712000D03*
%TD*%
D12*
%TO.C,U6*%
X179174000Y-73777500D03*
X180124000Y-73777500D03*
X181074000Y-73777500D03*
X181074000Y-71502500D03*
X179174000Y-71502500D03*
%TD*%
D13*
%TO.C,R18*%
X179749000Y-68880000D03*
X178099000Y-68880000D03*
%TD*%
D14*
%TO.C,H11*%
X197846000Y-79624000D03*
%TD*%
D15*
%TO.C,R15*%
X192379000Y-68910000D03*
X194029000Y-68910000D03*
%TD*%
D16*
%TO.C,Q7*%
X188284000Y-66360000D03*
X190184000Y-66360000D03*
X189234000Y-64485000D03*
%TD*%
D17*
%TO.C,C9*%
X179244500Y-75814000D03*
X180794500Y-75814000D03*
%TD*%
D20*
%TO.C,J8*%
X196474500Y-71012000D03*
X196474500Y-72012000D03*
X196474500Y-73012000D03*
X196474500Y-74012000D03*
D21*
X198999500Y-69712000D03*
X198999500Y-75312000D03*
%TD*%
D18*
%TO.C,J9*%
X181040500Y-80132000D03*
D19*
X183580500Y-80132000D03*
X186120500Y-80132000D03*
X188660500Y-80132000D03*
X191200500Y-80132000D03*
%TD*%
D14*
%TO.C,H9*%
X174478000Y-65400000D03*
%TD*%
%TO.C,H12*%
X197846000Y-65400000D03*
%TD*%
D16*
%TO.C,Q8*%
X191824000Y-66360000D03*
X193724000Y-66360000D03*
X192774000Y-64485000D03*
%TD*%
D22*
%TO.C,R13*%
X191750000Y-71433000D03*
X191750000Y-73083000D03*
%TD*%
D15*
%TO.C,R14*%
X189289000Y-68910000D03*
X190939000Y-68910000D03*
%TD*%
D22*
%TO.C,R17*%
X186162000Y-67369000D03*
X186162000Y-69019000D03*
%TD*%
D23*
%TO.C,U5*%
X184804000Y-71570000D03*
X184804000Y-72520000D03*
X184804000Y-73470000D03*
X187504000Y-73470000D03*
X187504000Y-72520000D03*
X187504000Y-71570000D03*
%TD*%
D22*
%TO.C,R16*%
X184638000Y-67369000D03*
X184638000Y-69019000D03*
%TD*%
D17*
%TO.C,C10*%
X181309000Y-68930000D03*
X182859000Y-68930000D03*
%TD*%
D24*
%TO.C,C12*%
X189223000Y-75306000D03*
X187673000Y-75306000D03*
%TD*%
D26*
%TO.C,Q9*%
X180592500Y-64592500D03*
X178692500Y-64592500D03*
X179642500Y-66467500D03*
%TD*%
D24*
%TO.C,C11*%
X184905000Y-75306000D03*
X183355000Y-75306000D03*
%TD*%
D25*
%TO.C,D3*%
X191750000Y-76119000D03*
X191750000Y-74544000D03*
%TD*%
D14*
%TO.C,H10*%
X174478000Y-79624000D03*
%TD*%
D10*
%TO.C,J4*%
X146808500Y-74012000D03*
X146808500Y-73012000D03*
X146808500Y-72012000D03*
X146808500Y-71012000D03*
D11*
X144283500Y-75312000D03*
X144283500Y-69712000D03*
%TD*%
D12*
%TO.C,U4*%
X150226000Y-73777500D03*
X151176000Y-73777500D03*
X152126000Y-73777500D03*
X152126000Y-71502500D03*
X150226000Y-71502500D03*
%TD*%
D13*
%TO.C,R12*%
X150801000Y-68880000D03*
X149151000Y-68880000D03*
%TD*%
D14*
%TO.C,H7*%
X168898000Y-79624000D03*
%TD*%
D15*
%TO.C,R9*%
X163431000Y-68910000D03*
X165081000Y-68910000D03*
%TD*%
D17*
%TO.C,C5*%
X150296500Y-75814000D03*
X151846500Y-75814000D03*
%TD*%
D20*
%TO.C,J5*%
X167526500Y-71012000D03*
X167526500Y-72012000D03*
X167526500Y-73012000D03*
X167526500Y-74012000D03*
D21*
X170051500Y-69712000D03*
X170051500Y-75312000D03*
%TD*%
D24*
%TO.C,C8*%
X160275000Y-75306000D03*
X158725000Y-75306000D03*
%TD*%
D14*
%TO.C,H5*%
X145530000Y-65400000D03*
%TD*%
%TO.C,H8*%
X168898000Y-65400000D03*
%TD*%
D16*
%TO.C,Q5*%
X162876000Y-66360000D03*
X164776000Y-66360000D03*
X163826000Y-64485000D03*
%TD*%
D15*
%TO.C,R8*%
X160341000Y-68910000D03*
X161991000Y-68910000D03*
%TD*%
D22*
%TO.C,R11*%
X157214000Y-67369000D03*
X157214000Y-69019000D03*
%TD*%
D23*
%TO.C,U3*%
X155856000Y-71570000D03*
X155856000Y-72520000D03*
X155856000Y-73470000D03*
X158556000Y-73470000D03*
X158556000Y-72520000D03*
X158556000Y-71570000D03*
%TD*%
D17*
%TO.C,C6*%
X152361000Y-68930000D03*
X153911000Y-68930000D03*
%TD*%
D22*
%TO.C,R10*%
X155690000Y-67369000D03*
X155690000Y-69019000D03*
%TD*%
D18*
%TO.C,J6*%
X152092500Y-80132000D03*
D19*
X154632500Y-80132000D03*
X157172500Y-80132000D03*
X159712500Y-80132000D03*
X162252500Y-80132000D03*
%TD*%
D16*
%TO.C,Q4*%
X159336000Y-66360000D03*
X161236000Y-66360000D03*
X160286000Y-64485000D03*
%TD*%
D22*
%TO.C,R7*%
X162802000Y-71433000D03*
X162802000Y-73083000D03*
%TD*%
D26*
%TO.C,Q6*%
X151644500Y-64592500D03*
X149744500Y-64592500D03*
X150694500Y-66467500D03*
%TD*%
D24*
%TO.C,C7*%
X155957000Y-75306000D03*
X154407000Y-75306000D03*
%TD*%
D25*
%TO.C,D2*%
X162802000Y-76119000D03*
X162802000Y-74544000D03*
%TD*%
D14*
%TO.C,H6*%
X145530000Y-79624000D03*
%TD*%
D25*
%TO.C,D1*%
X133854000Y-76119000D03*
X133854000Y-74544000D03*
%TD*%
D24*
%TO.C,C3*%
X127009000Y-75306000D03*
X125459000Y-75306000D03*
%TD*%
D14*
%TO.C,H2*%
X116582000Y-79624000D03*
%TD*%
D26*
%TO.C,Q3*%
X122696500Y-64592500D03*
X120796500Y-64592500D03*
X121746500Y-66467500D03*
%TD*%
D17*
%TO.C,C2*%
X123413000Y-68930000D03*
X124963000Y-68930000D03*
%TD*%
D22*
%TO.C,R1*%
X133854000Y-71433000D03*
X133854000Y-73083000D03*
%TD*%
D15*
%TO.C,R2*%
X131393000Y-68910000D03*
X133043000Y-68910000D03*
%TD*%
D22*
%TO.C,R4*%
X126742000Y-67369000D03*
X126742000Y-69019000D03*
%TD*%
D23*
%TO.C,U1*%
X126908000Y-71570000D03*
X126908000Y-72520000D03*
X126908000Y-73470000D03*
X129608000Y-73470000D03*
X129608000Y-72520000D03*
X129608000Y-71570000D03*
%TD*%
D14*
%TO.C,H1*%
X116582000Y-65400000D03*
%TD*%
D16*
%TO.C,Q2*%
X133928000Y-66360000D03*
X135828000Y-66360000D03*
X134878000Y-64485000D03*
%TD*%
D20*
%TO.C,J2*%
X138578500Y-71012000D03*
X138578500Y-72012000D03*
X138578500Y-73012000D03*
X138578500Y-74012000D03*
D21*
X141103500Y-69712000D03*
X141103500Y-75312000D03*
%TD*%
D17*
%TO.C,C1*%
X121348500Y-75814000D03*
X122898500Y-75814000D03*
%TD*%
D14*
%TO.C,H4*%
X139950000Y-65400000D03*
%TD*%
D24*
%TO.C,C4*%
X131327000Y-75306000D03*
X129777000Y-75306000D03*
%TD*%
D18*
%TO.C,J3*%
X123144500Y-80132000D03*
D19*
X125684500Y-80132000D03*
X128224500Y-80132000D03*
X130764500Y-80132000D03*
X133304500Y-80132000D03*
%TD*%
D22*
%TO.C,R5*%
X128266000Y-67369000D03*
X128266000Y-69019000D03*
%TD*%
D16*
%TO.C,Q1*%
X130388000Y-66360000D03*
X132288000Y-66360000D03*
X131338000Y-64485000D03*
%TD*%
D15*
%TO.C,R3*%
X134483000Y-68910000D03*
X136133000Y-68910000D03*
%TD*%
D10*
%TO.C,J1*%
X117860500Y-74012000D03*
X117860500Y-73012000D03*
X117860500Y-72012000D03*
X117860500Y-71012000D03*
D11*
X115335500Y-75312000D03*
X115335500Y-69712000D03*
%TD*%
D13*
%TO.C,R6*%
X121853000Y-68880000D03*
X120203000Y-68880000D03*
%TD*%
D14*
%TO.C,H3*%
X139950000Y-79624000D03*
%TD*%
D12*
%TO.C,U2*%
X121278000Y-73777500D03*
X122228000Y-73777500D03*
X123178000Y-73777500D03*
X123178000Y-71502500D03*
X121278000Y-71502500D03*
%TD*%
M02*
