%TF.GenerationSoftware,KiCad,Pcbnew,7.0.1*%
%TF.CreationDate,2025-06-24T16:32:56+07:00*%
%TF.ProjectId,panelize,70616e65-6c69-47a6-952e-6b696361645f,rev?*%
%TF.SameCoordinates,Original*%
%TF.FileFunction,Soldermask,Bot*%
%TF.FilePolarity,Negative*%
%FSLAX46Y46*%
G04 Gerber Fmt 4.6, Leading zero omitted, Abs format (unit mm)*
G04 Created by KiCad (PCBNEW 7.0.1) date 2025-06-24 16:32:56*
%MOMM*%
%LPD*%
G01*
G04 APERTURE LIST*
%ADD10C,2.100000*%
%ADD11R,1.700000X1.700000*%
%ADD12O,1.700000X1.700000*%
G04 APERTURE END LIST*
D10*
%TO.C,H75*%
X197846000Y-158840000D03*
%TD*%
D11*
%TO.C,J57*%
X181040500Y-159348000D03*
D12*
X183580500Y-159348000D03*
X186120500Y-159348000D03*
X188660500Y-159348000D03*
X191200500Y-159348000D03*
%TD*%
D10*
%TO.C,H76*%
X197846000Y-144616000D03*
%TD*%
%TO.C,H73*%
X174478000Y-144616000D03*
%TD*%
%TO.C,H74*%
X174478000Y-158840000D03*
%TD*%
%TO.C,H71*%
X168898000Y-158840000D03*
%TD*%
D11*
%TO.C,J54*%
X152092500Y-159348000D03*
D12*
X154632500Y-159348000D03*
X157172500Y-159348000D03*
X159712500Y-159348000D03*
X162252500Y-159348000D03*
%TD*%
D10*
%TO.C,H69*%
X145530000Y-144616000D03*
%TD*%
%TO.C,H72*%
X168898000Y-144616000D03*
%TD*%
%TO.C,H70*%
X145530000Y-158840000D03*
%TD*%
%TO.C,H67*%
X139950000Y-158840000D03*
%TD*%
D11*
%TO.C,J51*%
X123144500Y-159348000D03*
D12*
X125684500Y-159348000D03*
X128224500Y-159348000D03*
X130764500Y-159348000D03*
X133304500Y-159348000D03*
%TD*%
D10*
%TO.C,H65*%
X116582000Y-144616000D03*
%TD*%
%TO.C,H68*%
X139950000Y-144616000D03*
%TD*%
%TO.C,H66*%
X116582000Y-158840000D03*
%TD*%
%TO.C,H59*%
X197846000Y-139036000D03*
%TD*%
D11*
%TO.C,J45*%
X181040500Y-139544000D03*
D12*
X183580500Y-139544000D03*
X186120500Y-139544000D03*
X188660500Y-139544000D03*
X191200500Y-139544000D03*
%TD*%
D10*
%TO.C,H57*%
X174478000Y-124812000D03*
%TD*%
%TO.C,H60*%
X197846000Y-124812000D03*
%TD*%
%TO.C,H58*%
X174478000Y-139036000D03*
%TD*%
%TO.C,H55*%
X168898000Y-139036000D03*
%TD*%
D11*
%TO.C,J42*%
X152092500Y-139544000D03*
D12*
X154632500Y-139544000D03*
X157172500Y-139544000D03*
X159712500Y-139544000D03*
X162252500Y-139544000D03*
%TD*%
D10*
%TO.C,H53*%
X145530000Y-124812000D03*
%TD*%
%TO.C,H56*%
X168898000Y-124812000D03*
%TD*%
%TO.C,H54*%
X145530000Y-139036000D03*
%TD*%
%TO.C,H51*%
X139950000Y-139036000D03*
%TD*%
D11*
%TO.C,J39*%
X123144500Y-139544000D03*
D12*
X125684500Y-139544000D03*
X128224500Y-139544000D03*
X130764500Y-139544000D03*
X133304500Y-139544000D03*
%TD*%
D10*
%TO.C,H49*%
X116582000Y-124812000D03*
%TD*%
%TO.C,H52*%
X139950000Y-124812000D03*
%TD*%
%TO.C,H50*%
X116582000Y-139036000D03*
%TD*%
%TO.C,H43*%
X197846000Y-119232000D03*
%TD*%
D11*
%TO.C,J33*%
X181040500Y-119740000D03*
D12*
X183580500Y-119740000D03*
X186120500Y-119740000D03*
X188660500Y-119740000D03*
X191200500Y-119740000D03*
%TD*%
D10*
%TO.C,H41*%
X174478000Y-105008000D03*
%TD*%
%TO.C,H44*%
X197846000Y-105008000D03*
%TD*%
%TO.C,H42*%
X174478000Y-119232000D03*
%TD*%
%TO.C,H39*%
X168898000Y-119232000D03*
%TD*%
%TO.C,H37*%
X145530000Y-105008000D03*
%TD*%
%TO.C,H40*%
X168898000Y-105008000D03*
%TD*%
D11*
%TO.C,J30*%
X152092500Y-119740000D03*
D12*
X154632500Y-119740000D03*
X157172500Y-119740000D03*
X159712500Y-119740000D03*
X162252500Y-119740000D03*
%TD*%
D10*
%TO.C,H38*%
X145530000Y-119232000D03*
%TD*%
%TO.C,H35*%
X139950000Y-119232000D03*
%TD*%
D11*
%TO.C,J27*%
X123144500Y-119740000D03*
D12*
X125684500Y-119740000D03*
X128224500Y-119740000D03*
X130764500Y-119740000D03*
X133304500Y-119740000D03*
%TD*%
D10*
%TO.C,H33*%
X116582000Y-105008000D03*
%TD*%
%TO.C,H36*%
X139950000Y-105008000D03*
%TD*%
%TO.C,H34*%
X116582000Y-119232000D03*
%TD*%
%TO.C,H27*%
X197846000Y-99428000D03*
%TD*%
D11*
%TO.C,J21*%
X181040500Y-99936000D03*
D12*
X183580500Y-99936000D03*
X186120500Y-99936000D03*
X188660500Y-99936000D03*
X191200500Y-99936000D03*
%TD*%
D10*
%TO.C,H28*%
X197846000Y-85204000D03*
%TD*%
%TO.C,H25*%
X174478000Y-85204000D03*
%TD*%
%TO.C,H26*%
X174478000Y-99428000D03*
%TD*%
%TO.C,H23*%
X168898000Y-99428000D03*
%TD*%
D11*
%TO.C,J18*%
X152092500Y-99936000D03*
D12*
X154632500Y-99936000D03*
X157172500Y-99936000D03*
X159712500Y-99936000D03*
X162252500Y-99936000D03*
%TD*%
D10*
%TO.C,H21*%
X145530000Y-85204000D03*
%TD*%
%TO.C,H24*%
X168898000Y-85204000D03*
%TD*%
%TO.C,H22*%
X145530000Y-99428000D03*
%TD*%
%TO.C,H19*%
X139950000Y-99428000D03*
%TD*%
D11*
%TO.C,J15*%
X123144500Y-99936000D03*
D12*
X125684500Y-99936000D03*
X128224500Y-99936000D03*
X130764500Y-99936000D03*
X133304500Y-99936000D03*
%TD*%
D10*
%TO.C,H17*%
X116582000Y-85204000D03*
%TD*%
%TO.C,H20*%
X139950000Y-85204000D03*
%TD*%
%TO.C,H18*%
X116582000Y-99428000D03*
%TD*%
%TO.C,H11*%
X197846000Y-79624000D03*
%TD*%
D11*
%TO.C,J9*%
X181040500Y-80132000D03*
D12*
X183580500Y-80132000D03*
X186120500Y-80132000D03*
X188660500Y-80132000D03*
X191200500Y-80132000D03*
%TD*%
D10*
%TO.C,H9*%
X174478000Y-65400000D03*
%TD*%
%TO.C,H12*%
X197846000Y-65400000D03*
%TD*%
%TO.C,H10*%
X174478000Y-79624000D03*
%TD*%
%TO.C,H7*%
X168898000Y-79624000D03*
%TD*%
%TO.C,H5*%
X145530000Y-65400000D03*
%TD*%
%TO.C,H8*%
X168898000Y-65400000D03*
%TD*%
D11*
%TO.C,J6*%
X152092500Y-80132000D03*
D12*
X154632500Y-80132000D03*
X157172500Y-80132000D03*
X159712500Y-80132000D03*
X162252500Y-80132000D03*
%TD*%
D10*
%TO.C,H6*%
X145530000Y-79624000D03*
%TD*%
%TO.C,H2*%
X116582000Y-79624000D03*
%TD*%
%TO.C,H1*%
X116582000Y-65400000D03*
%TD*%
%TO.C,H4*%
X139950000Y-65400000D03*
%TD*%
D11*
%TO.C,J3*%
X123144500Y-80132000D03*
D12*
X125684500Y-80132000D03*
X128224500Y-80132000D03*
X130764500Y-80132000D03*
X133304500Y-80132000D03*
%TD*%
D10*
%TO.C,H3*%
X139950000Y-79624000D03*
%TD*%
M02*
