%TF.GenerationSoftware,KiCad,Pcbnew,7.0.1*%
%TF.CreationDate,2025-06-24T15:42:27+07:00*%
%TF.ProjectId,positron_tlv493d,706f7369-7472-46f6-9e5f-746c76343933,rev?*%
%TF.SameCoordinates,Original*%
%TF.FileFunction,Copper,L2,Bot*%
%TF.FilePolarity,Positive*%
%FSLAX46Y46*%
G04 Gerber Fmt 4.6, Leading zero omitted, Abs format (unit mm)*
G04 Created by KiCad (PCBNEW 7.0.1) date 2025-06-24 15:42:27*
%MOMM*%
%LPD*%
G01*
G04 APERTURE LIST*
%TA.AperFunction,ComponentPad*%
%ADD10R,1.700000X1.700000*%
%TD*%
%TA.AperFunction,ComponentPad*%
%ADD11O,1.700000X1.700000*%
%TD*%
%TA.AperFunction,ViaPad*%
%ADD12C,0.800000*%
%TD*%
%TA.AperFunction,Conductor*%
%ADD13C,0.250000*%
%TD*%
%TA.AperFunction,Conductor*%
%ADD14C,0.300000*%
%TD*%
G04 APERTURE END LIST*
D10*
%TO.P,J3,1,Pin_1*%
%TO.N,VIN*%
X121624500Y-71347000D03*
D11*
%TO.P,J3,2,Pin_2*%
%TO.N,+3.3V*%
X124164500Y-71347000D03*
%TO.P,J3,3,Pin_3*%
%TO.N,GND*%
X126704500Y-71347000D03*
%TO.P,J3,4,Pin_4*%
%TO.N,sda_in*%
X129244500Y-71347000D03*
%TO.P,J3,5,Pin_5*%
%TO.N,scl_in*%
X131784500Y-71347000D03*
%TD*%
D12*
%TO.N,VCC*%
X129286000Y-61187000D03*
X124206000Y-61187000D03*
%TO.N,GND*%
X135636000Y-55345000D03*
X123952000Y-65251000D03*
X119888000Y-70331000D03*
X135636000Y-72363000D03*
X122936000Y-58647000D03*
X116840000Y-60933000D03*
X118364000Y-72363000D03*
X117856000Y-55091000D03*
X131113256Y-65393238D03*
X128016000Y-59409000D03*
X126746000Y-63727000D03*
X130048000Y-63473000D03*
X116840000Y-66267000D03*
%TO.N,+3.3V*%
X132080000Y-55091000D03*
X123825000Y-67664000D03*
X122682000Y-61441000D03*
%TO.N,scl_out*%
X131318000Y-56107000D03*
X123952000Y-57631000D03*
%TO.N,scl_in*%
X129287425Y-69016612D03*
X138684000Y-64743000D03*
X132080000Y-59155000D03*
%TO.N,sda_in*%
X134874000Y-61187000D03*
X135128000Y-63981000D03*
%TO.N,VIN*%
X122682000Y-68045000D03*
%TD*%
D13*
%TO.N,GND*%
X126704500Y-72702500D02*
X126788000Y-72786000D01*
X126704500Y-71347000D02*
X126704500Y-72702500D01*
X126704500Y-69669500D02*
X126788000Y-69586000D01*
X126704500Y-71347000D02*
X126704500Y-69669500D01*
D14*
%TO.N,VCC*%
X124206000Y-61187000D02*
X129286000Y-61187000D01*
%TO.N,+3.3V*%
X124416046Y-55091000D02*
X121666000Y-57841046D01*
X123190000Y-67029000D02*
X123190000Y-61949000D01*
X132080000Y-55091000D02*
X124416046Y-55091000D01*
X124164500Y-68003500D02*
X124164500Y-71347000D01*
X123825000Y-67664000D02*
X123190000Y-67029000D01*
X121666000Y-60425000D02*
X122682000Y-61441000D01*
X121666000Y-57841046D02*
X121666000Y-60425000D01*
X123825000Y-67664000D02*
X124164500Y-68003500D01*
X123190000Y-61949000D02*
X122682000Y-61441000D01*
%TO.N,scl_out*%
X123952000Y-56615000D02*
X123952000Y-56869000D01*
X123952000Y-56869000D02*
X123952000Y-57631000D01*
X124714000Y-55853000D02*
X123952000Y-56615000D01*
X129286000Y-55853000D02*
X124714000Y-55853000D01*
X131064000Y-55853000D02*
X129286000Y-55853000D01*
X131318000Y-56107000D02*
X131064000Y-55853000D01*
%TO.N,scl_in*%
X138938000Y-64489000D02*
X138684000Y-64743000D01*
X137668000Y-60679000D02*
X138938000Y-61949000D01*
X130810000Y-70372500D02*
X131784500Y-71347000D01*
X130003612Y-69016612D02*
X130810000Y-69823000D01*
X130810000Y-69823000D02*
X130810000Y-70372500D01*
X129287425Y-69016612D02*
X130003612Y-69016612D01*
X137668000Y-60425000D02*
X137668000Y-60679000D01*
X136398000Y-59155000D02*
X137668000Y-60425000D01*
X138938000Y-61949000D02*
X138938000Y-63219000D01*
X138938000Y-63219000D02*
X138938000Y-64489000D01*
X132080000Y-59155000D02*
X136398000Y-59155000D01*
%TO.N,sda_in*%
X134874000Y-61187000D02*
X134874000Y-63727000D01*
X134874000Y-63727000D02*
X135128000Y-63981000D01*
%TO.N,VIN*%
X122682000Y-68045000D02*
X122174000Y-68045000D01*
X121624500Y-68594500D02*
X121624500Y-71347000D01*
X122174000Y-68045000D02*
X121624500Y-68594500D01*
%TD*%
%TA.AperFunction,Conductor*%
%TO.N,GND*%
G36*
X138433471Y-54075694D02*
G01*
X138545527Y-54081987D01*
X138714353Y-54092199D01*
X138727591Y-54093720D01*
X138859665Y-54116160D01*
X138861007Y-54116397D01*
X139006210Y-54143007D01*
X139018153Y-54145814D01*
X139150788Y-54184025D01*
X139153279Y-54184773D01*
X139290146Y-54227423D01*
X139300682Y-54231237D01*
X139429736Y-54284693D01*
X139433063Y-54286130D01*
X139562306Y-54344298D01*
X139571372Y-54348834D01*
X139694331Y-54416791D01*
X139698500Y-54419202D01*
X139818988Y-54492040D01*
X139826592Y-54497027D01*
X139941525Y-54578575D01*
X139946223Y-54582078D01*
X140037769Y-54653800D01*
X140056752Y-54668672D01*
X140062906Y-54673823D01*
X140168133Y-54767859D01*
X140173187Y-54772638D01*
X140272360Y-54871811D01*
X140277139Y-54876865D01*
X140371175Y-54982092D01*
X140376326Y-54988246D01*
X140462904Y-55098754D01*
X140466423Y-55103473D01*
X140547971Y-55218406D01*
X140552958Y-55226010D01*
X140625796Y-55346498D01*
X140628207Y-55350667D01*
X140696164Y-55473626D01*
X140700712Y-55482716D01*
X140758832Y-55611853D01*
X140760317Y-55615291D01*
X140813756Y-55744303D01*
X140817580Y-55754866D01*
X140860214Y-55891684D01*
X140860983Y-55894246D01*
X140899180Y-56026831D01*
X140901995Y-56038807D01*
X140928578Y-56183865D01*
X140928857Y-56185446D01*
X140951275Y-56317385D01*
X140952801Y-56330670D01*
X140962997Y-56499242D01*
X140963028Y-56499774D01*
X140969305Y-56611527D01*
X140969500Y-56618481D01*
X140969500Y-70835519D01*
X140969305Y-70842473D01*
X140963028Y-70954224D01*
X140962997Y-70954756D01*
X140952801Y-71123328D01*
X140951275Y-71136613D01*
X140928857Y-71268552D01*
X140928578Y-71270133D01*
X140901995Y-71415191D01*
X140899180Y-71427167D01*
X140860983Y-71559752D01*
X140860214Y-71562314D01*
X140817580Y-71699132D01*
X140813756Y-71709695D01*
X140760317Y-71838707D01*
X140758832Y-71842145D01*
X140700712Y-71971282D01*
X140696164Y-71980372D01*
X140628207Y-72103331D01*
X140625796Y-72107500D01*
X140552958Y-72227988D01*
X140547971Y-72235592D01*
X140466423Y-72350525D01*
X140462904Y-72355244D01*
X140376326Y-72465752D01*
X140371175Y-72471906D01*
X140277139Y-72577133D01*
X140272360Y-72582187D01*
X140173187Y-72681360D01*
X140168133Y-72686139D01*
X140062906Y-72780175D01*
X140056752Y-72785326D01*
X139946244Y-72871904D01*
X139941525Y-72875423D01*
X139826592Y-72956971D01*
X139818988Y-72961958D01*
X139698500Y-73034796D01*
X139694331Y-73037207D01*
X139571372Y-73105164D01*
X139562282Y-73109712D01*
X139433145Y-73167832D01*
X139429707Y-73169317D01*
X139300695Y-73222756D01*
X139290132Y-73226580D01*
X139153314Y-73269214D01*
X139150752Y-73269983D01*
X139018167Y-73308180D01*
X139006191Y-73310995D01*
X138861133Y-73337578D01*
X138859552Y-73337857D01*
X138727613Y-73360275D01*
X138714328Y-73361801D01*
X138545756Y-73371997D01*
X138545224Y-73372028D01*
X138437513Y-73378078D01*
X138433471Y-73378305D01*
X138426519Y-73378500D01*
X115065481Y-73378500D01*
X115058528Y-73378305D01*
X115054045Y-73378053D01*
X114946774Y-73372028D01*
X114946242Y-73371997D01*
X114777670Y-73361801D01*
X114764385Y-73360275D01*
X114632446Y-73337857D01*
X114630865Y-73337578D01*
X114485807Y-73310995D01*
X114473831Y-73308180D01*
X114341246Y-73269983D01*
X114338684Y-73269214D01*
X114201866Y-73226580D01*
X114191303Y-73222756D01*
X114062291Y-73169317D01*
X114058873Y-73167841D01*
X113929713Y-73109710D01*
X113920626Y-73105164D01*
X113797667Y-73037207D01*
X113793498Y-73034796D01*
X113673010Y-72961958D01*
X113665406Y-72956971D01*
X113550473Y-72875423D01*
X113545754Y-72871904D01*
X113435246Y-72785326D01*
X113429092Y-72780175D01*
X113323865Y-72686139D01*
X113318811Y-72681360D01*
X113219638Y-72582187D01*
X113214859Y-72577133D01*
X113120823Y-72471906D01*
X113115672Y-72465752D01*
X113104506Y-72451500D01*
X113029078Y-72355223D01*
X113025575Y-72350525D01*
X112944027Y-72235592D01*
X112939040Y-72227988D01*
X112935459Y-72222065D01*
X120520000Y-72222065D01*
X120534766Y-72296301D01*
X120591015Y-72380484D01*
X120641006Y-72413887D01*
X120675199Y-72436734D01*
X120749433Y-72451500D01*
X122499566Y-72451499D01*
X122573801Y-72436734D01*
X122657984Y-72380484D01*
X122714234Y-72296301D01*
X122729000Y-72222067D01*
X122728999Y-70471934D01*
X122714234Y-70397699D01*
X122682297Y-70349902D01*
X122657984Y-70313515D01*
X122573800Y-70257265D01*
X122499569Y-70242500D01*
X122499567Y-70242500D01*
X122153000Y-70242500D01*
X122091000Y-70225887D01*
X122045613Y-70180500D01*
X122029000Y-70118500D01*
X122029000Y-68813413D01*
X122038439Y-68765961D01*
X122065318Y-68725733D01*
X122174736Y-68616313D01*
X122218447Y-68588051D01*
X122269905Y-68580219D01*
X122320039Y-68594195D01*
X122448207Y-68661463D01*
X122602529Y-68699500D01*
X122761470Y-68699500D01*
X122761471Y-68699500D01*
X122915793Y-68661463D01*
X123056529Y-68587599D01*
X123175498Y-68482201D01*
X123265787Y-68351395D01*
X123292610Y-68280666D01*
X123334060Y-68225508D01*
X123398574Y-68201041D01*
X123466178Y-68214843D01*
X123486499Y-68225508D01*
X123591207Y-68280463D01*
X123640073Y-68292507D01*
X123665675Y-68298818D01*
X123714423Y-68323164D01*
X123748028Y-68366057D01*
X123760000Y-68419215D01*
X123760000Y-70234276D01*
X123750192Y-70282609D01*
X123722321Y-70323297D01*
X123680794Y-70349902D01*
X123670077Y-70354053D01*
X123496035Y-70461815D01*
X123344768Y-70599713D01*
X123221411Y-70763065D01*
X123130170Y-70946300D01*
X123074154Y-71143176D01*
X123055268Y-71346999D01*
X123074154Y-71550823D01*
X123130170Y-71747699D01*
X123221411Y-71930934D01*
X123344768Y-72094286D01*
X123496035Y-72232184D01*
X123496037Y-72232185D01*
X123496038Y-72232186D01*
X123670073Y-72339944D01*
X123860944Y-72413888D01*
X124062153Y-72451500D01*
X124266845Y-72451500D01*
X124266847Y-72451500D01*
X124468056Y-72413888D01*
X124658927Y-72339944D01*
X124832962Y-72232186D01*
X124984232Y-72094285D01*
X125107588Y-71930935D01*
X125107588Y-71930933D01*
X125107590Y-71930932D01*
X125192880Y-71759646D01*
X125231303Y-71714375D01*
X125286370Y-71692160D01*
X125345451Y-71698093D01*
X125395000Y-71730815D01*
X125423654Y-71782822D01*
X125431067Y-71810488D01*
X125530899Y-72024576D01*
X125666393Y-72218081D01*
X125833418Y-72385106D01*
X126026923Y-72520600D01*
X126241007Y-72620430D01*
X126454499Y-72677635D01*
X126454500Y-72677636D01*
X126454500Y-70016364D01*
X126954500Y-70016364D01*
X126954500Y-72677635D01*
X127167992Y-72620430D01*
X127382076Y-72520600D01*
X127575581Y-72385106D01*
X127742606Y-72218081D01*
X127878100Y-72024576D01*
X127977931Y-71810490D01*
X127985344Y-71782825D01*
X128013997Y-71730817D01*
X128063546Y-71698094D01*
X128122628Y-71692159D01*
X128177695Y-71714375D01*
X128216119Y-71759645D01*
X128301411Y-71930934D01*
X128424768Y-72094286D01*
X128576035Y-72232184D01*
X128576037Y-72232185D01*
X128576038Y-72232186D01*
X128750073Y-72339944D01*
X128940944Y-72413888D01*
X129142153Y-72451500D01*
X129346845Y-72451500D01*
X129346847Y-72451500D01*
X129548056Y-72413888D01*
X129738927Y-72339944D01*
X129912962Y-72232186D01*
X130064232Y-72094285D01*
X130187588Y-71930935D01*
X130278828Y-71747701D01*
X130283632Y-71730817D01*
X130334845Y-71550823D01*
X130347411Y-71415210D01*
X130353732Y-71347000D01*
X130334845Y-71143179D01*
X130334845Y-71143176D01*
X130278829Y-70946300D01*
X130187588Y-70763065D01*
X130064231Y-70599713D01*
X129912964Y-70461815D01*
X129738927Y-70354056D01*
X129634281Y-70313516D01*
X129548056Y-70280112D01*
X129346847Y-70242500D01*
X129142153Y-70242500D01*
X128960855Y-70276390D01*
X128940944Y-70280112D01*
X128750072Y-70354056D01*
X128576035Y-70461815D01*
X128424768Y-70599713D01*
X128301411Y-70763065D01*
X128216119Y-70934354D01*
X128177695Y-70979624D01*
X128122628Y-71001840D01*
X128063546Y-70995905D01*
X128013998Y-70963183D01*
X127985344Y-70911175D01*
X127977930Y-70883508D01*
X127878099Y-70669421D01*
X127742609Y-70475921D01*
X127575581Y-70308893D01*
X127382076Y-70173399D01*
X127167992Y-70073569D01*
X126954500Y-70016364D01*
X126454500Y-70016364D01*
X126454499Y-70016364D01*
X126241007Y-70073569D01*
X126026921Y-70173400D01*
X125833421Y-70308890D01*
X125666390Y-70475921D01*
X125530900Y-70669421D01*
X125431068Y-70883510D01*
X125423654Y-70911178D01*
X125394999Y-70963185D01*
X125345451Y-70995906D01*
X125286369Y-71001839D01*
X125231304Y-70979624D01*
X125192880Y-70934354D01*
X125107588Y-70763065D01*
X124984231Y-70599713D01*
X124832964Y-70461815D01*
X124658922Y-70354053D01*
X124648206Y-70349902D01*
X124606679Y-70323297D01*
X124578808Y-70282609D01*
X124569000Y-70234276D01*
X124569000Y-69016611D01*
X128628117Y-69016611D01*
X128647276Y-69174394D01*
X128703637Y-69323006D01*
X128703638Y-69323007D01*
X128793927Y-69453813D01*
X128889518Y-69538500D01*
X128912897Y-69559212D01*
X129011554Y-69610991D01*
X129053632Y-69633075D01*
X129207954Y-69671112D01*
X129366895Y-69671112D01*
X129366896Y-69671112D01*
X129521218Y-69633075D01*
X129661954Y-69559211D01*
X129740131Y-69489951D01*
X129795111Y-69461798D01*
X129856855Y-69463664D01*
X129910037Y-69495087D01*
X130369181Y-69954231D01*
X130396061Y-69994459D01*
X130405500Y-70041912D01*
X130405500Y-70436566D01*
X130412444Y-70457939D01*
X130416985Y-70476852D01*
X130420502Y-70499056D01*
X130430703Y-70519075D01*
X130438148Y-70537048D01*
X130445095Y-70558429D01*
X130458305Y-70576610D01*
X130468473Y-70593203D01*
X130478672Y-70613221D01*
X130478673Y-70613222D01*
X130478674Y-70613223D01*
X130495232Y-70629781D01*
X130495245Y-70629796D01*
X130712284Y-70846834D01*
X130744621Y-70903344D01*
X130743869Y-70968449D01*
X130694154Y-71143176D01*
X130675268Y-71347000D01*
X130694154Y-71550823D01*
X130750170Y-71747699D01*
X130841411Y-71930934D01*
X130964768Y-72094286D01*
X131116035Y-72232184D01*
X131116037Y-72232185D01*
X131116038Y-72232186D01*
X131290073Y-72339944D01*
X131480944Y-72413888D01*
X131682153Y-72451500D01*
X131886845Y-72451500D01*
X131886847Y-72451500D01*
X132088056Y-72413888D01*
X132278927Y-72339944D01*
X132452962Y-72232186D01*
X132604232Y-72094285D01*
X132727588Y-71930935D01*
X132818828Y-71747701D01*
X132823632Y-71730817D01*
X132874845Y-71550823D01*
X132887411Y-71415210D01*
X132893732Y-71347000D01*
X132874845Y-71143179D01*
X132874845Y-71143176D01*
X132818829Y-70946300D01*
X132765399Y-70839000D01*
X137124531Y-70839000D01*
X137144364Y-71065689D01*
X137203261Y-71285497D01*
X137299432Y-71491735D01*
X137429953Y-71678140D01*
X137590859Y-71839046D01*
X137777264Y-71969567D01*
X137777265Y-71969567D01*
X137777266Y-71969568D01*
X137983504Y-72065739D01*
X138203308Y-72124635D01*
X138288262Y-72132067D01*
X138373214Y-72139500D01*
X138373216Y-72139500D01*
X138486784Y-72139500D01*
X138486786Y-72139500D01*
X138554747Y-72133553D01*
X138656692Y-72124635D01*
X138876496Y-72065739D01*
X139082734Y-71969568D01*
X139269139Y-71839047D01*
X139430047Y-71678139D01*
X139560568Y-71491734D01*
X139656739Y-71285496D01*
X139715635Y-71065692D01*
X139735468Y-70839000D01*
X139715635Y-70612308D01*
X139656739Y-70392504D01*
X139560568Y-70186266D01*
X139556531Y-70180501D01*
X139430046Y-69999859D01*
X139269140Y-69838953D01*
X139082735Y-69708432D01*
X138876497Y-69612261D01*
X138656689Y-69553364D01*
X138486786Y-69538500D01*
X138486784Y-69538500D01*
X138373216Y-69538500D01*
X138373214Y-69538500D01*
X138203310Y-69553364D01*
X137983502Y-69612261D01*
X137777264Y-69708432D01*
X137590859Y-69838953D01*
X137429953Y-69999859D01*
X137299432Y-70186264D01*
X137203261Y-70392502D01*
X137144364Y-70612310D01*
X137124531Y-70839000D01*
X132765399Y-70839000D01*
X132727588Y-70763065D01*
X132604231Y-70599713D01*
X132452964Y-70461815D01*
X132278927Y-70354056D01*
X132174281Y-70313516D01*
X132088056Y-70280112D01*
X131886847Y-70242500D01*
X131682153Y-70242500D01*
X131480944Y-70280112D01*
X131423460Y-70302380D01*
X131418414Y-70304336D01*
X131371711Y-70312694D01*
X131325287Y-70302901D01*
X131285940Y-70276390D01*
X131250819Y-70241269D01*
X131223939Y-70201041D01*
X131214500Y-70153588D01*
X131214500Y-69758936D01*
X131214500Y-69758934D01*
X131207551Y-69737548D01*
X131203014Y-69718650D01*
X131199498Y-69696445D01*
X131189294Y-69676420D01*
X131181850Y-69658449D01*
X131174905Y-69637071D01*
X131161692Y-69618886D01*
X131151525Y-69602294D01*
X131141326Y-69582277D01*
X131127219Y-69568170D01*
X131127217Y-69568167D01*
X130260908Y-68701857D01*
X130260893Y-68701844D01*
X130244335Y-68685286D01*
X130244334Y-68685285D01*
X130244333Y-68685284D01*
X130224315Y-68675085D01*
X130207725Y-68664919D01*
X130189541Y-68651707D01*
X130168160Y-68644760D01*
X130150187Y-68637315D01*
X130130168Y-68627114D01*
X130120059Y-68625512D01*
X130107961Y-68623596D01*
X130089053Y-68619056D01*
X130067678Y-68612112D01*
X129864862Y-68612112D01*
X129820891Y-68604054D01*
X129782635Y-68580927D01*
X129661954Y-68474013D01*
X129521219Y-68400149D01*
X129444056Y-68381130D01*
X129366896Y-68362112D01*
X129207954Y-68362112D01*
X129191949Y-68366057D01*
X129053630Y-68400149D01*
X128912897Y-68474011D01*
X128793926Y-68579412D01*
X128703637Y-68710217D01*
X128647276Y-68858829D01*
X128628117Y-69016611D01*
X124569000Y-69016611D01*
X124569000Y-67939435D01*
X124569000Y-67939434D01*
X124562052Y-67918051D01*
X124557515Y-67899152D01*
X124553998Y-67876945D01*
X124543794Y-67856918D01*
X124536349Y-67838943D01*
X124529405Y-67817572D01*
X124516194Y-67799389D01*
X124506028Y-67782799D01*
X124494008Y-67759209D01*
X124482390Y-67724526D01*
X124481397Y-67687963D01*
X124482353Y-67680096D01*
X124484307Y-67664000D01*
X124465149Y-67506218D01*
X124408787Y-67357605D01*
X124318498Y-67226799D01*
X124199529Y-67121401D01*
X124199527Y-67121399D01*
X124058794Y-67047537D01*
X123981632Y-67028518D01*
X123904471Y-67009500D01*
X123793912Y-67009500D01*
X123746459Y-67000061D01*
X123706230Y-66973181D01*
X123630818Y-66897768D01*
X123603939Y-66857539D01*
X123594500Y-66810087D01*
X123594500Y-61906909D01*
X123594499Y-61906897D01*
X123594499Y-61884936D01*
X123594499Y-61884935D01*
X123594499Y-61884934D01*
X123587554Y-61863561D01*
X123583013Y-61844644D01*
X123576426Y-61803044D01*
X123577777Y-61802830D01*
X123569897Y-61762829D01*
X123593692Y-61699396D01*
X123647276Y-61657938D01*
X123714651Y-61650830D01*
X123775703Y-61680192D01*
X123831471Y-61729599D01*
X123865377Y-61747394D01*
X123970223Y-61802422D01*
X123972207Y-61803463D01*
X124126529Y-61841500D01*
X124285470Y-61841500D01*
X124285471Y-61841500D01*
X124439793Y-61803463D01*
X124580529Y-61729599D01*
X124661417Y-61657938D01*
X124701210Y-61622685D01*
X124739466Y-61599558D01*
X124783437Y-61591500D01*
X128708563Y-61591500D01*
X128752534Y-61599558D01*
X128790790Y-61622685D01*
X128861677Y-61685485D01*
X128911471Y-61729599D01*
X129015958Y-61784438D01*
X129050223Y-61802422D01*
X129052207Y-61803463D01*
X129206529Y-61841500D01*
X129365470Y-61841500D01*
X129365471Y-61841500D01*
X129519793Y-61803463D01*
X129660529Y-61729599D01*
X129779498Y-61624201D01*
X129869787Y-61493395D01*
X129926149Y-61344782D01*
X129945307Y-61187000D01*
X129945307Y-61186999D01*
X134214692Y-61186999D01*
X134233851Y-61344782D01*
X134290212Y-61493394D01*
X134380501Y-61624200D01*
X134427728Y-61666040D01*
X134458576Y-61707964D01*
X134469500Y-61758855D01*
X134469500Y-63791066D01*
X134476444Y-63812439D01*
X134480988Y-63831374D01*
X134481601Y-63835248D01*
X134482221Y-63869573D01*
X134468692Y-63980998D01*
X134487851Y-64138782D01*
X134544212Y-64287394D01*
X134544213Y-64287395D01*
X134634502Y-64418201D01*
X134742421Y-64513810D01*
X134753472Y-64523600D01*
X134850327Y-64574433D01*
X134894207Y-64597463D01*
X135048529Y-64635500D01*
X135207470Y-64635500D01*
X135207471Y-64635500D01*
X135361793Y-64597463D01*
X135502529Y-64523599D01*
X135621498Y-64418201D01*
X135711787Y-64287395D01*
X135768149Y-64138782D01*
X135787307Y-63981000D01*
X135768149Y-63823218D01*
X135711787Y-63674605D01*
X135621498Y-63543799D01*
X135502529Y-63438401D01*
X135502527Y-63438399D01*
X135348461Y-63357539D01*
X135349480Y-63355596D01*
X135324079Y-63342912D01*
X135290473Y-63300018D01*
X135278500Y-63246859D01*
X135278500Y-61758855D01*
X135289424Y-61707964D01*
X135320272Y-61666040D01*
X135337440Y-61650830D01*
X135367498Y-61624201D01*
X135457787Y-61493395D01*
X135514149Y-61344782D01*
X135533307Y-61187000D01*
X135514149Y-61029218D01*
X135457787Y-60880605D01*
X135367498Y-60749799D01*
X135248529Y-60644401D01*
X135248527Y-60644399D01*
X135107794Y-60570537D01*
X135015420Y-60547769D01*
X134953471Y-60532500D01*
X134794529Y-60532500D01*
X134743088Y-60545179D01*
X134640205Y-60570537D01*
X134499472Y-60644399D01*
X134380501Y-60749800D01*
X134290212Y-60880605D01*
X134233851Y-61029217D01*
X134214692Y-61186999D01*
X129945307Y-61186999D01*
X129926149Y-61029218D01*
X129869787Y-60880605D01*
X129779498Y-60749799D01*
X129660529Y-60644401D01*
X129660527Y-60644399D01*
X129519794Y-60570537D01*
X129427420Y-60547769D01*
X129365471Y-60532500D01*
X129206529Y-60532500D01*
X129155088Y-60545179D01*
X129052205Y-60570537D01*
X128911470Y-60644401D01*
X128790790Y-60751315D01*
X128752534Y-60774442D01*
X128708563Y-60782500D01*
X124783437Y-60782500D01*
X124739466Y-60774442D01*
X124701210Y-60751315D01*
X124580529Y-60644401D01*
X124439794Y-60570537D01*
X124347420Y-60547769D01*
X124285471Y-60532500D01*
X124126529Y-60532500D01*
X124075088Y-60545179D01*
X123972205Y-60570537D01*
X123831472Y-60644399D01*
X123712501Y-60749800D01*
X123622212Y-60880605D01*
X123565851Y-61029217D01*
X123544878Y-61201947D01*
X123544554Y-61201907D01*
X123539375Y-61244568D01*
X123505660Y-61293412D01*
X123453108Y-61320994D01*
X123393758Y-61320994D01*
X123341206Y-61293413D01*
X123307491Y-61244568D01*
X123265787Y-61134605D01*
X123193043Y-61029218D01*
X123175498Y-61003799D01*
X123056529Y-60898401D01*
X123056527Y-60898399D01*
X122915794Y-60824537D01*
X122838631Y-60805518D01*
X122761471Y-60786500D01*
X122650912Y-60786500D01*
X122603459Y-60777061D01*
X122563231Y-60750181D01*
X122106819Y-60293769D01*
X122079939Y-60253541D01*
X122070500Y-60206088D01*
X122070500Y-59155000D01*
X131420692Y-59155000D01*
X131439851Y-59312782D01*
X131496212Y-59461394D01*
X131496213Y-59461395D01*
X131586502Y-59592201D01*
X131694421Y-59687810D01*
X131705472Y-59697600D01*
X131846205Y-59771462D01*
X131846207Y-59771463D01*
X132000529Y-59809500D01*
X132159470Y-59809500D01*
X132159471Y-59809500D01*
X132313793Y-59771463D01*
X132454529Y-59697599D01*
X132525135Y-59635046D01*
X132575210Y-59590685D01*
X132613466Y-59567558D01*
X132657437Y-59559500D01*
X136179088Y-59559500D01*
X136226541Y-59568939D01*
X136266769Y-59595819D01*
X137227181Y-60556231D01*
X137254061Y-60596459D01*
X137263500Y-60643912D01*
X137263500Y-60743066D01*
X137265687Y-60749799D01*
X137270444Y-60764439D01*
X137274984Y-60783349D01*
X137275577Y-60787089D01*
X137278502Y-60805556D01*
X137288703Y-60825575D01*
X137296148Y-60843548D01*
X137303094Y-60864928D01*
X137303095Y-60864929D01*
X137316305Y-60883110D01*
X137326473Y-60899703D01*
X137336672Y-60919721D01*
X137336673Y-60919722D01*
X137336674Y-60919723D01*
X137353232Y-60936281D01*
X137353245Y-60936296D01*
X138497181Y-62080231D01*
X138524061Y-62120459D01*
X138533500Y-62167912D01*
X138533500Y-64008859D01*
X138521527Y-64062018D01*
X138487921Y-64104912D01*
X138462519Y-64117596D01*
X138463539Y-64119539D01*
X138309472Y-64200399D01*
X138190501Y-64305800D01*
X138100212Y-64436605D01*
X138043851Y-64585217D01*
X138024692Y-64743000D01*
X138043851Y-64900782D01*
X138100212Y-65049394D01*
X138100213Y-65049395D01*
X138190502Y-65180201D01*
X138298421Y-65275810D01*
X138309472Y-65285600D01*
X138450205Y-65359462D01*
X138450207Y-65359463D01*
X138604529Y-65397500D01*
X138763470Y-65397500D01*
X138763471Y-65397500D01*
X138917793Y-65359463D01*
X139058529Y-65285599D01*
X139177498Y-65180201D01*
X139267787Y-65049395D01*
X139324149Y-64900782D01*
X139343307Y-64743000D01*
X139329777Y-64631571D01*
X139330398Y-64597236D01*
X139331014Y-64593349D01*
X139335553Y-64574445D01*
X139342500Y-64553066D01*
X139342500Y-64424934D01*
X139342500Y-63187166D01*
X139342500Y-61917166D01*
X139342500Y-61884934D01*
X139335555Y-61863560D01*
X139331014Y-61844642D01*
X139327498Y-61822446D01*
X139327498Y-61822445D01*
X139317294Y-61802420D01*
X139309846Y-61784438D01*
X139302904Y-61763072D01*
X139302904Y-61763071D01*
X139289692Y-61744886D01*
X139279529Y-61728301D01*
X139275812Y-61721007D01*
X139269326Y-61708277D01*
X139255216Y-61694167D01*
X139255213Y-61694163D01*
X138108819Y-60547769D01*
X138081939Y-60507541D01*
X138072500Y-60460088D01*
X138072500Y-60360935D01*
X138065556Y-60339564D01*
X138061014Y-60320642D01*
X138057498Y-60298446D01*
X138057498Y-60298445D01*
X138047294Y-60278420D01*
X138039846Y-60260438D01*
X138032904Y-60239072D01*
X138032904Y-60239071D01*
X138019692Y-60220886D01*
X138009529Y-60204301D01*
X138005812Y-60197007D01*
X137999326Y-60184277D01*
X137985216Y-60170167D01*
X137985213Y-60170163D01*
X136655296Y-58840245D01*
X136655281Y-58840232D01*
X136638723Y-58823674D01*
X136638722Y-58823673D01*
X136638721Y-58823672D01*
X136618703Y-58813473D01*
X136602113Y-58803307D01*
X136583929Y-58790095D01*
X136562548Y-58783148D01*
X136544575Y-58775703D01*
X136524556Y-58765502D01*
X136514447Y-58763900D01*
X136502349Y-58761984D01*
X136483441Y-58757444D01*
X136462066Y-58750500D01*
X132657437Y-58750500D01*
X132613466Y-58742442D01*
X132575210Y-58719315D01*
X132454529Y-58612401D01*
X132313794Y-58538537D01*
X132236632Y-58519518D01*
X132159471Y-58500500D01*
X132000529Y-58500500D01*
X131949088Y-58513178D01*
X131846205Y-58538537D01*
X131705472Y-58612399D01*
X131586501Y-58717800D01*
X131496212Y-58848605D01*
X131439851Y-58997217D01*
X131420692Y-59155000D01*
X122070500Y-59155000D01*
X122070500Y-58059958D01*
X122079939Y-58012505D01*
X122106819Y-57972277D01*
X122402604Y-57676492D01*
X123335819Y-56743274D01*
X123385182Y-56713025D01*
X123442898Y-56708483D01*
X123496385Y-56730638D01*
X123533985Y-56774661D01*
X123547500Y-56830956D01*
X123547500Y-57059145D01*
X123536576Y-57110036D01*
X123505728Y-57151960D01*
X123458501Y-57193799D01*
X123368212Y-57324605D01*
X123311851Y-57473217D01*
X123292692Y-57631000D01*
X123311851Y-57788782D01*
X123368212Y-57937394D01*
X123368213Y-57937395D01*
X123458502Y-58068201D01*
X123566421Y-58163810D01*
X123577472Y-58173600D01*
X123718205Y-58247462D01*
X123718207Y-58247463D01*
X123872529Y-58285500D01*
X124031470Y-58285500D01*
X124031471Y-58285500D01*
X124185793Y-58247463D01*
X124326529Y-58173599D01*
X124445498Y-58068201D01*
X124535787Y-57937395D01*
X124592149Y-57788782D01*
X124611307Y-57631000D01*
X124592149Y-57473218D01*
X124535787Y-57324605D01*
X124445498Y-57193799D01*
X124398272Y-57151960D01*
X124367424Y-57110036D01*
X124356500Y-57059145D01*
X124356500Y-56833912D01*
X124365939Y-56786459D01*
X124392819Y-56746231D01*
X124845230Y-56293819D01*
X124885458Y-56266939D01*
X124932911Y-56257500D01*
X129254166Y-56257500D01*
X129317834Y-56257500D01*
X130589498Y-56257500D01*
X130638102Y-56267422D01*
X130678927Y-56295602D01*
X130705440Y-56337528D01*
X130734213Y-56413395D01*
X130824502Y-56544201D01*
X130932421Y-56639810D01*
X130943472Y-56649600D01*
X131055665Y-56708483D01*
X131084207Y-56723463D01*
X131238529Y-56761500D01*
X131397470Y-56761500D01*
X131397471Y-56761500D01*
X131551793Y-56723463D01*
X131692529Y-56649599D01*
X131731584Y-56614999D01*
X137124531Y-56614999D01*
X137144364Y-56841689D01*
X137203261Y-57061497D01*
X137299432Y-57267735D01*
X137429953Y-57454140D01*
X137590859Y-57615046D01*
X137777264Y-57745567D01*
X137777265Y-57745567D01*
X137777266Y-57745568D01*
X137983504Y-57841739D01*
X138203308Y-57900635D01*
X138288261Y-57908067D01*
X138373214Y-57915500D01*
X138373216Y-57915500D01*
X138486784Y-57915500D01*
X138486786Y-57915500D01*
X138554747Y-57909553D01*
X138656692Y-57900635D01*
X138876496Y-57841739D01*
X139082734Y-57745568D01*
X139269139Y-57615047D01*
X139430047Y-57454139D01*
X139560568Y-57267734D01*
X139656739Y-57061496D01*
X139715635Y-56841692D01*
X139735468Y-56615000D01*
X139715635Y-56388308D01*
X139656739Y-56168504D01*
X139560568Y-55962266D01*
X139524385Y-55910591D01*
X139430046Y-55775859D01*
X139269140Y-55614953D01*
X139082735Y-55484432D01*
X138876497Y-55388261D01*
X138656689Y-55329364D01*
X138486786Y-55314500D01*
X138486784Y-55314500D01*
X138373216Y-55314500D01*
X138373214Y-55314500D01*
X138203310Y-55329364D01*
X137983502Y-55388261D01*
X137777264Y-55484432D01*
X137590859Y-55614953D01*
X137429953Y-55775859D01*
X137299432Y-55962264D01*
X137203261Y-56168502D01*
X137144364Y-56388310D01*
X137124531Y-56614999D01*
X131731584Y-56614999D01*
X131811498Y-56544201D01*
X131901787Y-56413395D01*
X131958149Y-56264782D01*
X131977307Y-56107000D01*
X131958149Y-55949218D01*
X131944592Y-55913471D01*
X131937438Y-55854553D01*
X131958484Y-55799060D01*
X132002908Y-55759703D01*
X132060534Y-55745500D01*
X132159470Y-55745500D01*
X132159471Y-55745500D01*
X132313793Y-55707463D01*
X132454529Y-55633599D01*
X132573498Y-55528201D01*
X132663787Y-55397395D01*
X132720149Y-55248782D01*
X132739307Y-55091000D01*
X132720149Y-54933218D01*
X132663787Y-54784605D01*
X132573498Y-54653799D01*
X132454529Y-54548401D01*
X132454527Y-54548399D01*
X132313794Y-54474537D01*
X132236631Y-54455518D01*
X132159471Y-54436500D01*
X132000529Y-54436500D01*
X131949088Y-54449178D01*
X131846205Y-54474537D01*
X131705470Y-54548401D01*
X131584790Y-54655315D01*
X131546534Y-54678442D01*
X131502563Y-54686500D01*
X124373955Y-54686500D01*
X124373943Y-54686501D01*
X124351979Y-54686501D01*
X124330606Y-54693445D01*
X124311689Y-54697986D01*
X124289490Y-54701501D01*
X124269458Y-54711708D01*
X124251489Y-54719151D01*
X124230115Y-54726096D01*
X124211929Y-54739308D01*
X124195352Y-54749467D01*
X124175854Y-54759402D01*
X124175323Y-54759674D01*
X124152531Y-54782465D01*
X124152531Y-54782466D01*
X124135089Y-54799907D01*
X121357461Y-57577535D01*
X121334672Y-57600323D01*
X121324473Y-57620341D01*
X121314311Y-57636924D01*
X121301096Y-57655114D01*
X121294150Y-57676492D01*
X121286705Y-57694466D01*
X121276501Y-57714493D01*
X121272984Y-57736692D01*
X121268445Y-57755599D01*
X121261500Y-57776978D01*
X121261500Y-60489066D01*
X121268444Y-60510439D01*
X121272984Y-60529349D01*
X121274900Y-60541447D01*
X121276502Y-60551556D01*
X121286703Y-60571575D01*
X121294148Y-60589548D01*
X121295124Y-60592550D01*
X121301095Y-60610929D01*
X121314305Y-60629110D01*
X121324473Y-60645703D01*
X121334672Y-60665721D01*
X121334673Y-60665722D01*
X121334674Y-60665723D01*
X121351232Y-60682281D01*
X121351245Y-60682296D01*
X121989448Y-61320498D01*
X122018984Y-61367729D01*
X122024863Y-61423124D01*
X122022692Y-61440999D01*
X122041851Y-61598782D01*
X122098212Y-61747394D01*
X122098213Y-61747395D01*
X122188502Y-61878201D01*
X122296421Y-61973810D01*
X122307472Y-61983600D01*
X122448205Y-62057462D01*
X122448207Y-62057463D01*
X122602529Y-62095500D01*
X122602530Y-62095500D01*
X122661500Y-62095500D01*
X122723500Y-62112113D01*
X122768887Y-62157500D01*
X122785500Y-62219500D01*
X122785500Y-67093066D01*
X122792444Y-67114439D01*
X122796985Y-67133352D01*
X122800502Y-67155556D01*
X122810703Y-67175575D01*
X122818148Y-67193548D01*
X122825095Y-67214929D01*
X122829402Y-67228184D01*
X122833943Y-67285899D01*
X122811787Y-67339386D01*
X122767764Y-67376985D01*
X122711470Y-67390500D01*
X122602529Y-67390500D01*
X122551088Y-67403179D01*
X122448205Y-67428537D01*
X122307470Y-67502401D01*
X122186789Y-67609316D01*
X122148533Y-67632443D01*
X122116882Y-67638243D01*
X122088560Y-67647445D01*
X122069643Y-67651986D01*
X122047444Y-67655501D01*
X122027412Y-67665708D01*
X122009443Y-67673151D01*
X121988069Y-67680096D01*
X121969883Y-67693308D01*
X121953306Y-67703467D01*
X121933808Y-67713402D01*
X121933277Y-67713674D01*
X121910484Y-67736466D01*
X121910485Y-67736466D01*
X121851901Y-67795046D01*
X121851898Y-67795052D01*
X121315961Y-68330989D01*
X121293172Y-68353777D01*
X121282973Y-68373795D01*
X121272811Y-68390378D01*
X121259596Y-68408568D01*
X121252650Y-68429946D01*
X121245205Y-68447920D01*
X121235001Y-68467947D01*
X121231484Y-68490146D01*
X121226945Y-68509053D01*
X121220000Y-68530432D01*
X121220000Y-70118501D01*
X121203387Y-70180501D01*
X121158000Y-70225888D01*
X121096000Y-70242501D01*
X120749434Y-70242501D01*
X120712316Y-70249883D01*
X120675198Y-70257266D01*
X120591015Y-70313515D01*
X120534765Y-70397699D01*
X120520000Y-70471930D01*
X120520000Y-72222065D01*
X112935459Y-72222065D01*
X112866202Y-72107500D01*
X112863791Y-72103331D01*
X112858791Y-72094285D01*
X112795832Y-71980369D01*
X112791298Y-71971306D01*
X112733130Y-71842063D01*
X112731693Y-71838736D01*
X112678237Y-71709682D01*
X112674423Y-71699146D01*
X112631773Y-71562279D01*
X112631015Y-71559752D01*
X112611420Y-71491735D01*
X112592814Y-71427153D01*
X112590007Y-71415210D01*
X112563397Y-71270007D01*
X112563160Y-71268665D01*
X112540720Y-71136591D01*
X112539199Y-71123353D01*
X112528983Y-70954453D01*
X112522694Y-70842471D01*
X112522597Y-70839000D01*
X113756531Y-70839000D01*
X113776364Y-71065689D01*
X113835261Y-71285497D01*
X113931432Y-71491735D01*
X114061953Y-71678140D01*
X114222859Y-71839046D01*
X114409264Y-71969567D01*
X114409265Y-71969567D01*
X114409266Y-71969568D01*
X114615504Y-72065739D01*
X114835308Y-72124635D01*
X114920262Y-72132067D01*
X115005214Y-72139500D01*
X115005216Y-72139500D01*
X115118784Y-72139500D01*
X115118786Y-72139500D01*
X115186747Y-72133553D01*
X115288692Y-72124635D01*
X115508496Y-72065739D01*
X115714734Y-71969568D01*
X115901139Y-71839047D01*
X116062047Y-71678139D01*
X116192568Y-71491734D01*
X116288739Y-71285496D01*
X116347635Y-71065692D01*
X116367468Y-70839000D01*
X116347635Y-70612308D01*
X116288739Y-70392504D01*
X116192568Y-70186266D01*
X116188531Y-70180501D01*
X116062046Y-69999859D01*
X115901140Y-69838953D01*
X115714735Y-69708432D01*
X115508497Y-69612261D01*
X115288689Y-69553364D01*
X115118786Y-69538500D01*
X115118784Y-69538500D01*
X115005216Y-69538500D01*
X115005214Y-69538500D01*
X114835310Y-69553364D01*
X114615502Y-69612261D01*
X114409264Y-69708432D01*
X114222859Y-69838953D01*
X114061953Y-69999859D01*
X113931432Y-70186264D01*
X113835261Y-70392502D01*
X113776364Y-70612310D01*
X113756531Y-70839000D01*
X112522597Y-70839000D01*
X112522500Y-70835521D01*
X112522500Y-56618479D01*
X112522598Y-56614999D01*
X113756531Y-56614999D01*
X113776364Y-56841689D01*
X113835261Y-57061497D01*
X113931432Y-57267735D01*
X114061953Y-57454140D01*
X114222859Y-57615046D01*
X114409264Y-57745567D01*
X114409265Y-57745567D01*
X114409266Y-57745568D01*
X114615504Y-57841739D01*
X114835308Y-57900635D01*
X114920261Y-57908067D01*
X115005214Y-57915500D01*
X115005216Y-57915500D01*
X115118784Y-57915500D01*
X115118786Y-57915500D01*
X115186747Y-57909553D01*
X115288692Y-57900635D01*
X115508496Y-57841739D01*
X115714734Y-57745568D01*
X115901139Y-57615047D01*
X116062047Y-57454139D01*
X116192568Y-57267734D01*
X116288739Y-57061496D01*
X116347635Y-56841692D01*
X116367468Y-56615000D01*
X116347635Y-56388308D01*
X116288739Y-56168504D01*
X116192568Y-55962266D01*
X116156385Y-55910591D01*
X116062046Y-55775859D01*
X115901140Y-55614953D01*
X115714735Y-55484432D01*
X115508497Y-55388261D01*
X115288689Y-55329364D01*
X115118786Y-55314500D01*
X115118784Y-55314500D01*
X115005216Y-55314500D01*
X115005214Y-55314500D01*
X114835310Y-55329364D01*
X114615502Y-55388261D01*
X114409264Y-55484432D01*
X114222859Y-55614953D01*
X114061953Y-55775859D01*
X113931432Y-55962264D01*
X113835261Y-56168502D01*
X113776364Y-56388310D01*
X113756531Y-56614999D01*
X112522598Y-56614999D01*
X112522695Y-56611528D01*
X112522773Y-56610123D01*
X112528989Y-56499450D01*
X112539200Y-56330642D01*
X112540719Y-56317413D01*
X112563169Y-56185282D01*
X112563388Y-56184044D01*
X112590009Y-56038780D01*
X112592812Y-56026855D01*
X112631040Y-55894161D01*
X112631757Y-55891772D01*
X112674427Y-55754839D01*
X112678231Y-55744330D01*
X112731714Y-55615214D01*
X112733109Y-55611984D01*
X112791307Y-55482673D01*
X112795821Y-55473650D01*
X112863820Y-55350615D01*
X112866172Y-55346549D01*
X112939051Y-55225991D01*
X112944027Y-55218406D01*
X113025605Y-55103431D01*
X113029048Y-55098815D01*
X113115697Y-54988215D01*
X113120797Y-54982122D01*
X113214892Y-54876829D01*
X113219603Y-54871847D01*
X113318847Y-54772603D01*
X113323829Y-54767892D01*
X113429122Y-54673797D01*
X113435215Y-54668697D01*
X113545815Y-54582048D01*
X113550431Y-54578605D01*
X113665410Y-54497024D01*
X113672991Y-54492051D01*
X113793549Y-54419172D01*
X113797615Y-54416820D01*
X113920650Y-54348821D01*
X113929673Y-54344307D01*
X114058984Y-54286109D01*
X114062214Y-54284714D01*
X114191330Y-54231231D01*
X114201839Y-54227427D01*
X114338772Y-54184757D01*
X114341161Y-54184040D01*
X114473855Y-54145812D01*
X114485780Y-54143009D01*
X114631044Y-54116388D01*
X114632282Y-54116169D01*
X114764413Y-54093719D01*
X114777642Y-54092200D01*
X114946450Y-54081989D01*
X115058527Y-54075695D01*
X115065479Y-54075500D01*
X138426521Y-54075500D01*
X138433471Y-54075694D01*
G37*
%TD.AperFunction*%
%TD*%
M02*
