%TF.GenerationSoftware,KiCad,Pcbnew,7.0.1*%
%TF.CreationDate,2025-06-24T15:41:59+07:00*%
%TF.ProjectId,positron_tlv493d,706f7369-7472-46f6-9e5f-746c76343933,rev?*%
%TF.SameCoordinates,Original*%
%TF.FileFunction,Copper,L1,Top*%
%TF.FilePolarity,Positive*%
%FSLAX46Y46*%
G04 Gerber Fmt 4.6, Leading zero omitted, Abs format (unit mm)*
G04 Created by KiCad (PCBNEW 7.0.1) date 2025-06-24 15:41:59*
%MOMM*%
%LPD*%
G01*
G04 APERTURE LIST*
G04 Aperture macros list*
%AMRoundRect*
0 Rectangle with rounded corners*
0 $1 Rounding radius*
0 $2 $3 $4 $5 $6 $7 $8 $9 X,Y pos of 4 corners*
0 Add a 4 corners polygon primitive as box body*
4,1,4,$2,$3,$4,$5,$6,$7,$8,$9,$2,$3,0*
0 Add four circle primitives for the rounded corners*
1,1,$1+$1,$2,$3*
1,1,$1+$1,$4,$5*
1,1,$1+$1,$6,$7*
1,1,$1+$1,$8,$9*
0 Add four rect primitives between the rounded corners*
20,1,$1+$1,$2,$3,$4,$5,0*
20,1,$1+$1,$4,$5,$6,$7,0*
20,1,$1+$1,$6,$7,$8,$9,0*
20,1,$1+$1,$8,$9,$2,$3,0*%
G04 Aperture macros list end*
%TA.AperFunction,SMDPad,CuDef*%
%ADD10RoundRect,0.218750X0.256250X-0.218750X0.256250X0.218750X-0.256250X0.218750X-0.256250X-0.218750X0*%
%TD*%
%TA.AperFunction,SMDPad,CuDef*%
%ADD11RoundRect,0.225000X0.225000X0.250000X-0.225000X0.250000X-0.225000X-0.250000X0.225000X-0.250000X0*%
%TD*%
%TA.AperFunction,SMDPad,CuDef*%
%ADD12RoundRect,0.150000X-0.150000X0.587500X-0.150000X-0.587500X0.150000X-0.587500X0.150000X0.587500X0*%
%TD*%
%TA.AperFunction,SMDPad,CuDef*%
%ADD13RoundRect,0.225000X-0.225000X-0.250000X0.225000X-0.250000X0.225000X0.250000X-0.225000X0.250000X0*%
%TD*%
%TA.AperFunction,SMDPad,CuDef*%
%ADD14RoundRect,0.200000X-0.275000X0.200000X-0.275000X-0.200000X0.275000X-0.200000X0.275000X0.200000X0*%
%TD*%
%TA.AperFunction,SMDPad,CuDef*%
%ADD15RoundRect,0.200000X-0.200000X-0.275000X0.200000X-0.275000X0.200000X0.275000X-0.200000X0.275000X0*%
%TD*%
%TA.AperFunction,SMDPad,CuDef*%
%ADD16R,1.560000X0.650000*%
%TD*%
%TA.AperFunction,SMDPad,CuDef*%
%ADD17RoundRect,0.150000X0.150000X-0.587500X0.150000X0.587500X-0.150000X0.587500X-0.150000X-0.587500X0*%
%TD*%
%TA.AperFunction,SMDPad,CuDef*%
%ADD18RoundRect,0.150000X-0.625000X0.150000X-0.625000X-0.150000X0.625000X-0.150000X0.625000X0.150000X0*%
%TD*%
%TA.AperFunction,SMDPad,CuDef*%
%ADD19RoundRect,0.250000X-0.650000X0.350000X-0.650000X-0.350000X0.650000X-0.350000X0.650000X0.350000X0*%
%TD*%
%TA.AperFunction,ComponentPad*%
%ADD20R,1.700000X1.700000*%
%TD*%
%TA.AperFunction,ComponentPad*%
%ADD21O,1.700000X1.700000*%
%TD*%
%TA.AperFunction,SMDPad,CuDef*%
%ADD22RoundRect,0.150000X0.625000X-0.150000X0.625000X0.150000X-0.625000X0.150000X-0.625000X-0.150000X0*%
%TD*%
%TA.AperFunction,SMDPad,CuDef*%
%ADD23RoundRect,0.250000X0.650000X-0.350000X0.650000X0.350000X-0.650000X0.350000X-0.650000X-0.350000X0*%
%TD*%
%TA.AperFunction,SMDPad,CuDef*%
%ADD24RoundRect,0.200000X0.200000X0.275000X-0.200000X0.275000X-0.200000X-0.275000X0.200000X-0.275000X0*%
%TD*%
%TA.AperFunction,SMDPad,CuDef*%
%ADD25RoundRect,0.150000X0.150000X-0.512500X0.150000X0.512500X-0.150000X0.512500X-0.150000X-0.512500X0*%
%TD*%
%TA.AperFunction,ViaPad*%
%ADD26C,0.800000*%
%TD*%
%TA.AperFunction,Conductor*%
%ADD27C,0.250000*%
%TD*%
%TA.AperFunction,Conductor*%
%ADD28C,0.300000*%
%TD*%
G04 APERTURE END LIST*
D10*
%TO.P,D1,1,K*%
%TO.N,GND*%
X132334000Y-67334000D03*
%TO.P,D1,2,A*%
%TO.N,Net-(D1-A)*%
X132334000Y-65759000D03*
%TD*%
D11*
%TO.P,C3,1*%
%TO.N,+3.3V*%
X125489000Y-66521000D03*
%TO.P,C3,2*%
%TO.N,GND*%
X123939000Y-66521000D03*
%TD*%
D12*
%TO.P,Q3,1,G*%
%TO.N,Net-(Q3-G)*%
X121176500Y-55807500D03*
%TO.P,Q3,2,S*%
%TO.N,VIN*%
X119276500Y-55807500D03*
%TO.P,Q3,3,D*%
%TO.N,VCC*%
X120226500Y-57682500D03*
%TD*%
D13*
%TO.P,C2,1*%
%TO.N,+3.3V*%
X121893000Y-60145000D03*
%TO.P,C2,2*%
%TO.N,GND*%
X123443000Y-60145000D03*
%TD*%
D14*
%TO.P,R1,1*%
%TO.N,+3.3V*%
X132334000Y-62648000D03*
%TO.P,R1,2*%
%TO.N,Net-(D1-A)*%
X132334000Y-64298000D03*
%TD*%
D15*
%TO.P,R2,1*%
%TO.N,VCC*%
X129873000Y-60125000D03*
%TO.P,R2,2*%
%TO.N,scl_in*%
X131523000Y-60125000D03*
%TD*%
D14*
%TO.P,R4,1*%
%TO.N,+3.3V*%
X125222000Y-58584000D03*
%TO.P,R4,2*%
%TO.N,scl_out*%
X125222000Y-60234000D03*
%TD*%
D16*
%TO.P,U1,1,SCL/INT*%
%TO.N,scl_out*%
X125388000Y-62785000D03*
%TO.P,U1,2,GND*%
%TO.N,GND*%
X125388000Y-63735000D03*
%TO.P,U1,3,GND*%
X125388000Y-64685000D03*
%TO.P,U1,4,VDD*%
%TO.N,+3.3V*%
X128088000Y-64685000D03*
%TO.P,U1,5,GND*%
%TO.N,GND*%
X128088000Y-63735000D03*
%TO.P,U1,6,SDA/ADDR*%
%TO.N,sda_out*%
X128088000Y-62785000D03*
%TD*%
D17*
%TO.P,Q2,1,G*%
%TO.N,+3.3V*%
X132408000Y-57575000D03*
%TO.P,Q2,2,S*%
%TO.N,sda_out*%
X134308000Y-57575000D03*
%TO.P,Q2,3,D*%
%TO.N,sda_in*%
X133358000Y-55700000D03*
%TD*%
D18*
%TO.P,J2,1,Pin_1*%
%TO.N,GND*%
X137058500Y-62227000D03*
%TO.P,J2,2,Pin_2*%
%TO.N,VIN*%
X137058500Y-63227000D03*
%TO.P,J2,3,Pin_3*%
%TO.N,sda_in*%
X137058500Y-64227000D03*
%TO.P,J2,4,Pin_4*%
%TO.N,scl_in*%
X137058500Y-65227000D03*
D19*
%TO.P,J2,MP*%
%TO.N,N/C*%
X139583500Y-60927000D03*
X139583500Y-66527000D03*
%TD*%
D13*
%TO.P,C1,1*%
%TO.N,VCC*%
X119828500Y-67029000D03*
%TO.P,C1,2*%
%TO.N,GND*%
X121378500Y-67029000D03*
%TD*%
D11*
%TO.P,C4,1*%
%TO.N,GND*%
X129807000Y-66521000D03*
%TO.P,C4,2*%
%TO.N,+3.3V*%
X128257000Y-66521000D03*
%TD*%
D20*
%TO.P,J3,1,Pin_1*%
%TO.N,VIN*%
X121624500Y-71347000D03*
D21*
%TO.P,J3,2,Pin_2*%
%TO.N,+3.3V*%
X124164500Y-71347000D03*
%TO.P,J3,3,Pin_3*%
%TO.N,GND*%
X126704500Y-71347000D03*
%TO.P,J3,4,Pin_4*%
%TO.N,sda_in*%
X129244500Y-71347000D03*
%TO.P,J3,5,Pin_5*%
%TO.N,scl_in*%
X131784500Y-71347000D03*
%TD*%
D14*
%TO.P,R5,1*%
%TO.N,+3.3V*%
X126746000Y-58584000D03*
%TO.P,R5,2*%
%TO.N,sda_out*%
X126746000Y-60234000D03*
%TD*%
D17*
%TO.P,Q1,1,G*%
%TO.N,VCC*%
X128868000Y-57575000D03*
%TO.P,Q1,2,S*%
%TO.N,scl_out*%
X130768000Y-57575000D03*
%TO.P,Q1,3,D*%
%TO.N,scl_in*%
X129818000Y-55700000D03*
%TD*%
D15*
%TO.P,R3,1*%
%TO.N,VCC*%
X132963000Y-60125000D03*
%TO.P,R3,2*%
%TO.N,sda_in*%
X134613000Y-60125000D03*
%TD*%
D22*
%TO.P,J1,1,Pin_1*%
%TO.N,GND*%
X116340500Y-65227000D03*
%TO.P,J1,2,Pin_2*%
%TO.N,VIN*%
X116340500Y-64227000D03*
%TO.P,J1,3,Pin_3*%
%TO.N,sda_in*%
X116340500Y-63227000D03*
%TO.P,J1,4,Pin_4*%
%TO.N,scl_in*%
X116340500Y-62227000D03*
D23*
%TO.P,J1,MP*%
%TO.N,N/C*%
X113815500Y-66527000D03*
X113815500Y-60927000D03*
%TD*%
D24*
%TO.P,R6,1*%
%TO.N,Net-(Q3-G)*%
X120333000Y-60095000D03*
%TO.P,R6,2*%
%TO.N,GND*%
X118683000Y-60095000D03*
%TD*%
D25*
%TO.P,U2,1,VIN*%
%TO.N,VCC*%
X119758000Y-64992500D03*
%TO.P,U2,2,GND*%
%TO.N,GND*%
X120708000Y-64992500D03*
%TO.P,U2,3,EN*%
%TO.N,VCC*%
X121658000Y-64992500D03*
%TO.P,U2,4,NC*%
%TO.N,unconnected-(U2-NC-Pad4)*%
X121658000Y-62717500D03*
%TO.P,U2,5,VOUT*%
%TO.N,+3.3V*%
X119758000Y-62717500D03*
%TD*%
D26*
%TO.N,VCC*%
X129286000Y-61187000D03*
X124206000Y-61187000D03*
%TO.N,GND*%
X135636000Y-55345000D03*
X123952000Y-65251000D03*
X119888000Y-70331000D03*
X135636000Y-72363000D03*
X122936000Y-58647000D03*
X116840000Y-60933000D03*
X118364000Y-72363000D03*
X117856000Y-55091000D03*
X131113256Y-65393238D03*
X128016000Y-59409000D03*
X126746000Y-63727000D03*
X130048000Y-63473000D03*
X116840000Y-66267000D03*
%TO.N,+3.3V*%
X132080000Y-55091000D03*
X123825000Y-67664000D03*
X122682000Y-61441000D03*
%TO.N,scl_out*%
X131318000Y-56107000D03*
X123952000Y-57631000D03*
%TO.N,scl_in*%
X129287425Y-69016612D03*
X138684000Y-64743000D03*
X132080000Y-59155000D03*
%TO.N,sda_in*%
X134874000Y-61187000D03*
X135128000Y-63981000D03*
%TO.N,VIN*%
X122682000Y-68045000D03*
%TD*%
D27*
%TO.N,Net-(D1-A)*%
X132334000Y-65479500D02*
X132334000Y-65759000D01*
X132334000Y-64298000D02*
X132334000Y-65759000D01*
%TO.N,GND*%
X123443000Y-59154000D02*
X122936000Y-58647000D01*
X123443000Y-60145000D02*
X123443000Y-59154000D01*
X126704500Y-72702500D02*
X126788000Y-72786000D01*
X126704500Y-71347000D02*
X126704500Y-72702500D01*
X116288000Y-65786000D02*
X116340500Y-65733500D01*
X116769000Y-66267000D02*
X116288000Y-65786000D01*
X116340500Y-65733500D02*
X116340500Y-65227000D01*
X116840000Y-66267000D02*
X116769000Y-66267000D01*
D28*
%TO.N,VCC*%
X129286000Y-61187000D02*
X129873000Y-60600000D01*
X119433000Y-60626000D02*
X118618000Y-61441000D01*
X130935000Y-61187000D02*
X129873000Y-60125000D01*
X119753500Y-64997000D02*
X119758000Y-64992500D01*
X123952000Y-61441000D02*
X124206000Y-61187000D01*
X118872000Y-64997000D02*
X119753500Y-64997000D01*
X119758000Y-64111000D02*
X119758000Y-64992500D01*
X118618000Y-64743000D02*
X118872000Y-64997000D01*
X123444000Y-61949000D02*
X123952000Y-61441000D01*
X120142000Y-63727000D02*
X119758000Y-64111000D01*
X132963000Y-60125000D02*
X131901000Y-61187000D01*
X129032000Y-59409000D02*
X129032000Y-57739000D01*
X123444000Y-64489000D02*
X123444000Y-61949000D01*
X119758000Y-64992500D02*
X119758000Y-66958500D01*
X120226500Y-57682500D02*
X120226500Y-58562500D01*
X121658000Y-64992500D02*
X121658000Y-64227000D01*
X122940500Y-64992500D02*
X123444000Y-64489000D01*
X129873000Y-60125000D02*
X129748000Y-60125000D01*
X129748000Y-60125000D02*
X129032000Y-59409000D01*
X129873000Y-60600000D02*
X129873000Y-60125000D01*
X121158000Y-63727000D02*
X120142000Y-63727000D01*
X121658000Y-64227000D02*
X121158000Y-63727000D01*
X129032000Y-57739000D02*
X128868000Y-57575000D01*
X119433000Y-59356000D02*
X119433000Y-60626000D01*
X131901000Y-61187000D02*
X130935000Y-61187000D01*
X120226500Y-58562500D02*
X119433000Y-59356000D01*
X121658000Y-64992500D02*
X122940500Y-64992500D01*
X119758000Y-66958500D02*
X119828500Y-67029000D01*
X118618000Y-61441000D02*
X118618000Y-64743000D01*
%TO.N,GND*%
X120904000Y-66013000D02*
X122428000Y-66013000D01*
X122428000Y-66013000D02*
X122936000Y-66521000D01*
X126746000Y-63727000D02*
X128080000Y-63727000D01*
X125396000Y-63727000D02*
X125388000Y-63735000D01*
X126746000Y-63727000D02*
X125396000Y-63727000D01*
X122936000Y-66521000D02*
X123939000Y-66521000D01*
X120708000Y-65817000D02*
X120904000Y-66013000D01*
X128080000Y-63727000D02*
X128088000Y-63735000D01*
X125388000Y-63735000D02*
X125388000Y-64685000D01*
X120708000Y-64992500D02*
X120708000Y-65817000D01*
%TO.N,+3.3V*%
X125489000Y-67524000D02*
X125489000Y-66521000D01*
X121893000Y-60960000D02*
X121947000Y-60960000D01*
X131381000Y-62648000D02*
X131572000Y-62648000D01*
X121947000Y-60960000D02*
X122428000Y-61441000D01*
X119758000Y-61571000D02*
X119888000Y-61441000D01*
X125222000Y-58584000D02*
X125222000Y-57123000D01*
X128088000Y-66352000D02*
X128257000Y-66521000D01*
X125349000Y-67664000D02*
X125489000Y-67524000D01*
X131064000Y-64489000D02*
X131064000Y-62965000D01*
X122428000Y-61441000D02*
X122682000Y-61441000D01*
X128257000Y-66521000D02*
X125489000Y-66521000D01*
X124968000Y-56869000D02*
X122936000Y-56869000D01*
X132408000Y-55419000D02*
X132080000Y-55091000D01*
X119888000Y-61441000D02*
X121412000Y-61441000D01*
X121893000Y-60960000D02*
X121893000Y-60145000D01*
X121893000Y-57912000D02*
X122936000Y-56869000D01*
X128088000Y-64685000D02*
X130868000Y-64685000D01*
X132408000Y-57575000D02*
X132408000Y-55419000D01*
X128088000Y-64685000D02*
X128088000Y-66352000D01*
X125222000Y-57123000D02*
X124968000Y-56869000D01*
X121893000Y-60145000D02*
X121893000Y-57912000D01*
X131572000Y-62648000D02*
X132334000Y-62648000D01*
X119758000Y-62717500D02*
X119758000Y-61571000D01*
X131064000Y-62965000D02*
X131381000Y-62648000D01*
X125222000Y-58584000D02*
X126746000Y-58584000D01*
X123825000Y-67664000D02*
X125349000Y-67664000D01*
X121412000Y-61441000D02*
X121893000Y-60960000D01*
X130868000Y-64685000D02*
X131064000Y-64489000D01*
%TO.N,Net-(D1-A)*%
X132334000Y-65479500D02*
X132334000Y-65733500D01*
%TO.N,scl_out*%
X124777000Y-60234000D02*
X125222000Y-60234000D01*
X131120000Y-57575000D02*
X131318000Y-57377000D01*
X124206000Y-57885000D02*
X124206000Y-59663000D01*
X125222000Y-61441000D02*
X125222000Y-60234000D01*
X125388000Y-61607000D02*
X125222000Y-61441000D01*
X125388000Y-62785000D02*
X125388000Y-61607000D01*
X130768000Y-57575000D02*
X131120000Y-57575000D01*
X124206000Y-59663000D02*
X124777000Y-60234000D01*
X131318000Y-57377000D02*
X131318000Y-56107000D01*
X123952000Y-57631000D02*
X124206000Y-57885000D01*
%TO.N,scl_in*%
X118102000Y-65251000D02*
X118102000Y-67075894D01*
X119606553Y-68580447D02*
X120095106Y-69069000D01*
X137058500Y-67384500D02*
X137058500Y-65227000D01*
X131523000Y-60125000D02*
X131523000Y-59458000D01*
X116340500Y-62227000D02*
X117626000Y-62227000D01*
X131523000Y-59458000D02*
X131826000Y-59155000D01*
X138684000Y-64743000D02*
X138200000Y-65227000D01*
X131318000Y-59155000D02*
X130556000Y-59155000D01*
X117626000Y-62227000D02*
X117856000Y-62457000D01*
X128016000Y-69069000D02*
X129235037Y-69069000D01*
X117856000Y-62457000D02*
X118102000Y-62703000D01*
X131523000Y-60125000D02*
X131523000Y-59360000D01*
X135128000Y-71093000D02*
X135128000Y-69315000D01*
X118102000Y-62703000D02*
X118102000Y-65251000D01*
X118102000Y-67075894D02*
X119606553Y-68580447D01*
X135128000Y-69315000D02*
X137058500Y-67384500D01*
X129235037Y-69069000D02*
X129287425Y-69016612D01*
X131826000Y-59155000D02*
X132080000Y-59155000D01*
X131784500Y-71347000D02*
X134874000Y-71347000D01*
X138200000Y-65227000D02*
X137058500Y-65227000D01*
X134874000Y-71347000D02*
X135128000Y-71093000D01*
X120095106Y-69069000D02*
X128016000Y-69069000D01*
X129818000Y-58417000D02*
X129818000Y-55700000D01*
X130556000Y-59155000D02*
X129818000Y-58417000D01*
X131523000Y-59360000D02*
X131318000Y-59155000D01*
%TO.N,sda_out*%
X133858000Y-61695000D02*
X134366000Y-62203000D01*
X127762000Y-61441000D02*
X128088000Y-61767000D01*
X135636000Y-58139000D02*
X135072000Y-57575000D01*
X135636000Y-61949000D02*
X135636000Y-58139000D01*
X126746000Y-61187000D02*
X127000000Y-61441000D01*
X130810000Y-61695000D02*
X133858000Y-61695000D01*
X129720000Y-62785000D02*
X130810000Y-61695000D01*
X128088000Y-62785000D02*
X129720000Y-62785000D01*
X135072000Y-57575000D02*
X134308000Y-57575000D01*
X134366000Y-62203000D02*
X135382000Y-62203000D01*
X126746000Y-60234000D02*
X126746000Y-61187000D01*
X127000000Y-61441000D02*
X127762000Y-61441000D01*
X135382000Y-62203000D02*
X135636000Y-61949000D01*
X128088000Y-61767000D02*
X128088000Y-62785000D01*
%TO.N,sda_in*%
X135128000Y-63981000D02*
X135636000Y-64489000D01*
X129244500Y-71347000D02*
X129244500Y-70118500D01*
X116340500Y-63227000D02*
X117356000Y-63227000D01*
X134613000Y-60926000D02*
X134874000Y-61187000D01*
X133858000Y-69569000D02*
X135636000Y-67791000D01*
X134613000Y-60125000D02*
X134613000Y-60926000D01*
X129244500Y-70035500D02*
X129244500Y-70118500D01*
X129244500Y-70118500D02*
X129794000Y-69569000D01*
X133358000Y-58401000D02*
X133358000Y-55700000D01*
X117602000Y-67283000D02*
X119888000Y-69569000D01*
X135890000Y-64235000D02*
X137050500Y-64235000D01*
X134613000Y-59656000D02*
X133358000Y-58401000D01*
X117602000Y-63473000D02*
X117602000Y-67283000D01*
X119888000Y-69569000D02*
X128778000Y-69569000D01*
X128778000Y-69569000D02*
X129244500Y-70035500D01*
X135636000Y-64489000D02*
X135890000Y-64235000D01*
X134613000Y-60125000D02*
X134613000Y-59656000D01*
X129794000Y-69569000D02*
X133858000Y-69569000D01*
X137050500Y-64235000D02*
X137058500Y-64227000D01*
X117356000Y-63227000D02*
X117602000Y-63473000D01*
X135636000Y-67791000D02*
X135636000Y-64489000D01*
%TO.N,Net-(Q3-G)*%
X121176500Y-55807500D02*
X121176500Y-58628500D01*
X121176500Y-58628500D02*
X120333000Y-59472000D01*
X120333000Y-59472000D02*
X120333000Y-60095000D01*
%TO.N,VIN*%
X123444000Y-68553000D02*
X122936000Y-68045000D01*
X131318000Y-69061000D02*
X130302000Y-68045000D01*
X117094000Y-58901000D02*
X115316000Y-60679000D01*
X134366000Y-63219000D02*
X134366000Y-64279661D01*
X128000000Y-68569000D02*
X123714000Y-68569000D01*
X123714000Y-68569000D02*
X123698000Y-68553000D01*
X130302000Y-68045000D02*
X128524000Y-68045000D01*
X134620000Y-62965000D02*
X134366000Y-63219000D01*
X115316000Y-60679000D02*
X115316000Y-61441000D01*
X115070000Y-64227000D02*
X114808000Y-64489000D01*
X114808000Y-64489000D02*
X114808000Y-65505000D01*
X115316000Y-61441000D02*
X114808000Y-61949000D01*
X118110000Y-58901000D02*
X117094000Y-58901000D01*
X134829339Y-64743000D02*
X134874000Y-64743000D01*
X118872000Y-71347000D02*
X121624500Y-71347000D01*
X128524000Y-68045000D02*
X128000000Y-68569000D01*
X119276500Y-55807500D02*
X119276500Y-57734500D01*
X123698000Y-68553000D02*
X123444000Y-68553000D01*
X135644000Y-63227000D02*
X135382000Y-62965000D01*
X134874000Y-64743000D02*
X134874000Y-67845894D01*
X118110000Y-70585000D02*
X118872000Y-71347000D01*
X133658894Y-69061000D02*
X131318000Y-69061000D01*
X114808000Y-65505000D02*
X118110000Y-68807000D01*
X114808000Y-61949000D02*
X114808000Y-63965000D01*
X122936000Y-68045000D02*
X122682000Y-68045000D01*
X114808000Y-63965000D02*
X115070000Y-64227000D01*
X116340500Y-64227000D02*
X115070000Y-64227000D01*
X135382000Y-62965000D02*
X134620000Y-62965000D01*
X137058500Y-63227000D02*
X135644000Y-63227000D01*
X118110000Y-68807000D02*
X118110000Y-70585000D01*
X134366000Y-64279661D02*
X134829339Y-64743000D01*
X134874000Y-67845894D02*
X133658894Y-69061000D01*
X119276500Y-57734500D02*
X118110000Y-58901000D01*
%TD*%
%TA.AperFunction,Conductor*%
%TO.N,GND*%
G36*
X138433471Y-54075694D02*
G01*
X138545527Y-54081987D01*
X138714353Y-54092199D01*
X138727591Y-54093720D01*
X138859665Y-54116160D01*
X138861007Y-54116397D01*
X139006210Y-54143007D01*
X139018153Y-54145814D01*
X139150788Y-54184025D01*
X139153279Y-54184773D01*
X139290146Y-54227423D01*
X139300682Y-54231237D01*
X139429736Y-54284693D01*
X139433063Y-54286130D01*
X139562306Y-54344298D01*
X139571372Y-54348834D01*
X139694331Y-54416791D01*
X139698500Y-54419202D01*
X139818988Y-54492040D01*
X139826592Y-54497027D01*
X139941525Y-54578575D01*
X139946223Y-54582078D01*
X140037769Y-54653800D01*
X140056752Y-54668672D01*
X140062906Y-54673823D01*
X140168133Y-54767859D01*
X140173187Y-54772638D01*
X140272360Y-54871811D01*
X140277139Y-54876865D01*
X140371175Y-54982092D01*
X140376326Y-54988246D01*
X140462904Y-55098754D01*
X140466423Y-55103473D01*
X140547971Y-55218406D01*
X140552958Y-55226010D01*
X140625796Y-55346498D01*
X140628207Y-55350667D01*
X140696164Y-55473626D01*
X140700710Y-55482713D01*
X140737474Y-55564399D01*
X140758832Y-55611853D01*
X140760317Y-55615291D01*
X140813756Y-55744303D01*
X140817580Y-55754866D01*
X140860214Y-55891684D01*
X140860983Y-55894246D01*
X140899180Y-56026831D01*
X140901995Y-56038807D01*
X140928578Y-56183865D01*
X140928857Y-56185446D01*
X140951275Y-56317385D01*
X140952801Y-56330670D01*
X140962997Y-56499242D01*
X140963028Y-56499774D01*
X140969305Y-56611527D01*
X140969500Y-56618481D01*
X140969500Y-60419368D01*
X140950762Y-60484911D01*
X140900212Y-60530645D01*
X140833126Y-60542749D01*
X140769780Y-60517564D01*
X140729319Y-60462703D01*
X140680842Y-60332733D01*
X140593904Y-60216596D01*
X140477767Y-60129658D01*
X140477764Y-60129657D01*
X140477763Y-60129656D01*
X140341845Y-60078960D01*
X140316090Y-60076191D01*
X140281755Y-60072500D01*
X140281751Y-60072500D01*
X138885248Y-60072500D01*
X138825158Y-60078959D01*
X138825158Y-60078960D01*
X138689233Y-60129658D01*
X138573096Y-60216596D01*
X138489412Y-60328387D01*
X138486156Y-60332736D01*
X138435460Y-60468654D01*
X138429000Y-60528748D01*
X138429000Y-61325251D01*
X138433411Y-61366277D01*
X138435460Y-61385342D01*
X138486158Y-61521267D01*
X138573096Y-61637404D01*
X138689233Y-61724342D01*
X138703330Y-61729600D01*
X138825154Y-61775039D01*
X138825155Y-61775039D01*
X138825158Y-61775040D01*
X138885245Y-61781500D01*
X140281754Y-61781499D01*
X140341842Y-61775040D01*
X140477767Y-61724342D01*
X140593904Y-61637404D01*
X140680842Y-61521267D01*
X140706781Y-61451722D01*
X140729319Y-61391299D01*
X140769780Y-61336437D01*
X140833126Y-61311252D01*
X140900212Y-61323356D01*
X140950762Y-61369090D01*
X140969500Y-61434633D01*
X140969500Y-66019368D01*
X140950762Y-66084911D01*
X140900212Y-66130645D01*
X140833126Y-66142749D01*
X140769780Y-66117564D01*
X140729319Y-66062703D01*
X140680842Y-65932733D01*
X140593904Y-65816596D01*
X140477767Y-65729658D01*
X140477764Y-65729657D01*
X140477763Y-65729656D01*
X140341845Y-65678960D01*
X140316090Y-65676191D01*
X140281755Y-65672500D01*
X140281751Y-65672500D01*
X138885248Y-65672500D01*
X138825157Y-65678960D01*
X138825158Y-65678960D01*
X138689233Y-65729658D01*
X138573096Y-65816596D01*
X138514300Y-65895140D01*
X138486156Y-65932736D01*
X138435460Y-66068654D01*
X138433259Y-66089131D01*
X138429576Y-66123394D01*
X138429000Y-66128748D01*
X138429000Y-66925251D01*
X138430203Y-66936437D01*
X138435460Y-66985342D01*
X138486158Y-67121267D01*
X138573096Y-67237404D01*
X138689233Y-67324342D01*
X138689236Y-67324343D01*
X138825154Y-67375039D01*
X138825155Y-67375039D01*
X138825158Y-67375040D01*
X138885245Y-67381500D01*
X140281754Y-67381499D01*
X140341842Y-67375040D01*
X140477767Y-67324342D01*
X140593904Y-67237404D01*
X140680842Y-67121267D01*
X140708342Y-67047537D01*
X140729319Y-66991299D01*
X140769780Y-66936437D01*
X140833126Y-66911252D01*
X140900212Y-66923356D01*
X140950762Y-66969090D01*
X140969500Y-67034633D01*
X140969500Y-70835519D01*
X140969305Y-70842473D01*
X140963028Y-70954224D01*
X140962997Y-70954756D01*
X140952801Y-71123328D01*
X140951275Y-71136613D01*
X140928857Y-71268552D01*
X140928578Y-71270133D01*
X140901995Y-71415191D01*
X140899180Y-71427167D01*
X140860983Y-71559752D01*
X140860214Y-71562314D01*
X140817580Y-71699132D01*
X140813756Y-71709695D01*
X140760317Y-71838707D01*
X140758832Y-71842145D01*
X140700712Y-71971282D01*
X140696164Y-71980372D01*
X140628207Y-72103331D01*
X140625796Y-72107500D01*
X140552958Y-72227988D01*
X140547971Y-72235592D01*
X140466423Y-72350525D01*
X140462904Y-72355244D01*
X140376326Y-72465752D01*
X140371175Y-72471906D01*
X140277139Y-72577133D01*
X140272360Y-72582187D01*
X140173187Y-72681360D01*
X140168133Y-72686139D01*
X140062906Y-72780175D01*
X140056752Y-72785326D01*
X139946244Y-72871904D01*
X139941525Y-72875423D01*
X139826592Y-72956971D01*
X139818988Y-72961958D01*
X139698500Y-73034796D01*
X139694331Y-73037207D01*
X139571372Y-73105164D01*
X139562282Y-73109712D01*
X139433145Y-73167832D01*
X139429707Y-73169317D01*
X139300695Y-73222756D01*
X139290132Y-73226580D01*
X139153314Y-73269214D01*
X139150752Y-73269983D01*
X139018167Y-73308180D01*
X139006191Y-73310995D01*
X138861133Y-73337578D01*
X138859552Y-73337857D01*
X138727613Y-73360275D01*
X138714328Y-73361801D01*
X138545756Y-73371997D01*
X138545224Y-73372028D01*
X138437513Y-73378078D01*
X138433471Y-73378305D01*
X138426519Y-73378500D01*
X115065481Y-73378500D01*
X115058528Y-73378305D01*
X115054045Y-73378053D01*
X114946774Y-73372028D01*
X114946242Y-73371997D01*
X114777670Y-73361801D01*
X114764385Y-73360275D01*
X114632446Y-73337857D01*
X114630865Y-73337578D01*
X114485807Y-73310995D01*
X114473831Y-73308180D01*
X114341246Y-73269983D01*
X114338684Y-73269214D01*
X114201866Y-73226580D01*
X114191303Y-73222756D01*
X114062291Y-73169317D01*
X114058873Y-73167841D01*
X113929713Y-73109710D01*
X113920626Y-73105164D01*
X113797667Y-73037207D01*
X113793498Y-73034796D01*
X113673010Y-72961958D01*
X113665406Y-72956971D01*
X113550473Y-72875423D01*
X113545754Y-72871904D01*
X113435246Y-72785326D01*
X113429092Y-72780175D01*
X113323865Y-72686139D01*
X113318811Y-72681360D01*
X113219638Y-72582187D01*
X113214859Y-72577133D01*
X113120823Y-72471906D01*
X113115672Y-72465752D01*
X113104506Y-72451500D01*
X113029078Y-72355223D01*
X113025575Y-72350525D01*
X112944027Y-72235592D01*
X112939040Y-72227988D01*
X112866202Y-72107500D01*
X112863791Y-72103331D01*
X112858791Y-72094285D01*
X112795832Y-71980369D01*
X112791298Y-71971306D01*
X112733130Y-71842063D01*
X112731693Y-71838736D01*
X112678237Y-71709682D01*
X112674423Y-71699146D01*
X112631773Y-71562279D01*
X112631015Y-71559752D01*
X112611420Y-71491735D01*
X112592814Y-71427153D01*
X112590007Y-71415210D01*
X112563397Y-71270007D01*
X112563160Y-71268665D01*
X112540720Y-71136591D01*
X112539199Y-71123353D01*
X112528983Y-70954453D01*
X112522694Y-70842471D01*
X112522597Y-70839000D01*
X113756531Y-70839000D01*
X113776364Y-71065689D01*
X113835261Y-71285497D01*
X113931432Y-71491735D01*
X114061953Y-71678140D01*
X114222859Y-71839046D01*
X114409264Y-71969567D01*
X114409265Y-71969567D01*
X114409266Y-71969568D01*
X114615504Y-72065739D01*
X114835308Y-72124635D01*
X114920262Y-72132067D01*
X115005214Y-72139500D01*
X115005216Y-72139500D01*
X115118784Y-72139500D01*
X115118786Y-72139500D01*
X115186747Y-72133553D01*
X115288692Y-72124635D01*
X115508496Y-72065739D01*
X115714734Y-71969568D01*
X115901139Y-71839047D01*
X116062047Y-71678139D01*
X116192568Y-71491734D01*
X116288739Y-71285496D01*
X116347635Y-71065692D01*
X116367468Y-70839000D01*
X116347635Y-70612308D01*
X116288739Y-70392504D01*
X116192568Y-70186266D01*
X116168726Y-70152216D01*
X116062046Y-69999859D01*
X115901140Y-69838953D01*
X115714735Y-69708432D01*
X115508497Y-69612261D01*
X115288689Y-69553364D01*
X115118786Y-69538500D01*
X115118784Y-69538500D01*
X115005216Y-69538500D01*
X115005214Y-69538500D01*
X114835310Y-69553364D01*
X114615502Y-69612261D01*
X114409264Y-69708432D01*
X114222859Y-69838953D01*
X114061953Y-69999859D01*
X113931432Y-70186264D01*
X113835261Y-70392502D01*
X113776364Y-70612310D01*
X113756531Y-70839000D01*
X112522597Y-70839000D01*
X112522500Y-70835521D01*
X112522500Y-67232459D01*
X112537668Y-67173032D01*
X112579461Y-67128143D01*
X112637655Y-67108775D01*
X112698012Y-67119665D01*
X112745765Y-67158147D01*
X112805096Y-67237404D01*
X112921233Y-67324342D01*
X112921236Y-67324343D01*
X113057154Y-67375039D01*
X113057155Y-67375039D01*
X113057158Y-67375040D01*
X113117245Y-67381500D01*
X114513754Y-67381499D01*
X114573842Y-67375040D01*
X114709767Y-67324342D01*
X114825904Y-67237404D01*
X114912842Y-67121267D01*
X114963540Y-66985342D01*
X114970000Y-66925255D01*
X114969999Y-66538409D01*
X114983514Y-66482116D01*
X115021113Y-66438093D01*
X115074601Y-66415938D01*
X115132317Y-66420480D01*
X115181680Y-66450730D01*
X117669181Y-68938231D01*
X117696061Y-68978459D01*
X117705500Y-69025912D01*
X117705500Y-70649066D01*
X117712444Y-70670439D01*
X117716985Y-70689352D01*
X117720502Y-70711556D01*
X117730703Y-70731575D01*
X117738148Y-70749548D01*
X117742540Y-70763065D01*
X117745095Y-70770929D01*
X117758305Y-70789110D01*
X117768473Y-70805703D01*
X117778672Y-70825721D01*
X117778673Y-70825722D01*
X117778674Y-70825723D01*
X117795232Y-70842281D01*
X117795245Y-70842296D01*
X118540674Y-71587723D01*
X118631277Y-71678326D01*
X118651301Y-71688528D01*
X118667886Y-71698692D01*
X118676223Y-71704750D01*
X118686069Y-71711904D01*
X118686070Y-71711904D01*
X118686071Y-71711905D01*
X118707449Y-71718850D01*
X118725420Y-71726294D01*
X118745445Y-71736498D01*
X118767650Y-71740014D01*
X118786548Y-71744551D01*
X118807934Y-71751500D01*
X118840166Y-71751500D01*
X118936066Y-71751500D01*
X120396001Y-71751500D01*
X120458001Y-71768113D01*
X120503388Y-71813500D01*
X120520001Y-71875500D01*
X120520001Y-72222066D01*
X120522014Y-72232186D01*
X120534766Y-72296301D01*
X120591015Y-72380484D01*
X120641006Y-72413887D01*
X120675199Y-72436734D01*
X120749433Y-72451500D01*
X122499566Y-72451499D01*
X122573801Y-72436734D01*
X122657984Y-72380484D01*
X122714234Y-72296301D01*
X122729000Y-72222067D01*
X122728999Y-70471934D01*
X122714234Y-70397699D01*
X122685072Y-70354056D01*
X122657984Y-70313515D01*
X122573800Y-70257265D01*
X122499569Y-70242500D01*
X120749434Y-70242500D01*
X120675198Y-70257266D01*
X120591015Y-70313515D01*
X120534765Y-70397699D01*
X120520000Y-70471931D01*
X120520000Y-70818500D01*
X120503387Y-70880500D01*
X120458000Y-70925887D01*
X120396000Y-70942500D01*
X119090911Y-70942500D01*
X119043458Y-70933061D01*
X119003230Y-70906181D01*
X118550819Y-70453769D01*
X118523939Y-70413541D01*
X118514500Y-70366088D01*
X118514500Y-69066912D01*
X118528015Y-69010617D01*
X118565615Y-68966594D01*
X118619102Y-68944439D01*
X118676818Y-68948981D01*
X118726181Y-68979231D01*
X119633163Y-69886213D01*
X119633167Y-69886216D01*
X119647277Y-69900326D01*
X119660007Y-69906812D01*
X119667301Y-69910529D01*
X119683886Y-69920692D01*
X119702071Y-69933904D01*
X119723438Y-69940846D01*
X119741420Y-69948294D01*
X119761445Y-69958498D01*
X119766281Y-69959263D01*
X119783642Y-69962014D01*
X119802560Y-69966555D01*
X119823934Y-69973500D01*
X119856166Y-69973500D01*
X119952066Y-69973500D01*
X125919131Y-69973500D01*
X125979247Y-69989047D01*
X126024289Y-70031790D01*
X126042961Y-70091010D01*
X126030582Y-70151858D01*
X125990255Y-70199075D01*
X125833418Y-70308893D01*
X125666390Y-70475921D01*
X125530900Y-70669421D01*
X125431068Y-70883510D01*
X125423654Y-70911178D01*
X125394999Y-70963185D01*
X125345451Y-70995906D01*
X125286369Y-71001839D01*
X125231304Y-70979624D01*
X125192880Y-70934354D01*
X125178851Y-70906181D01*
X125107588Y-70763065D01*
X125037640Y-70670439D01*
X124984231Y-70599713D01*
X124832964Y-70461815D01*
X124658927Y-70354056D01*
X124643313Y-70348007D01*
X124468056Y-70280112D01*
X124266847Y-70242500D01*
X124062153Y-70242500D01*
X123860944Y-70280111D01*
X123860944Y-70280112D01*
X123670072Y-70354056D01*
X123496035Y-70461815D01*
X123344768Y-70599713D01*
X123221411Y-70763065D01*
X123130170Y-70946300D01*
X123074154Y-71143176D01*
X123055268Y-71346999D01*
X123074154Y-71550823D01*
X123130170Y-71747699D01*
X123221411Y-71930934D01*
X123344768Y-72094286D01*
X123496035Y-72232184D01*
X123496037Y-72232185D01*
X123496038Y-72232186D01*
X123670073Y-72339944D01*
X123860944Y-72413888D01*
X124062153Y-72451500D01*
X124266845Y-72451500D01*
X124266847Y-72451500D01*
X124468056Y-72413888D01*
X124658927Y-72339944D01*
X124832962Y-72232186D01*
X124984232Y-72094285D01*
X125107588Y-71930935D01*
X125107588Y-71930933D01*
X125107590Y-71930932D01*
X125192880Y-71759646D01*
X125231303Y-71714375D01*
X125286370Y-71692160D01*
X125345451Y-71698093D01*
X125395000Y-71730815D01*
X125423654Y-71782822D01*
X125431067Y-71810488D01*
X125530899Y-72024576D01*
X125666393Y-72218081D01*
X125833418Y-72385106D01*
X126026923Y-72520600D01*
X126241007Y-72620430D01*
X126454499Y-72677635D01*
X126454500Y-72677636D01*
X126454500Y-71221000D01*
X126471113Y-71159000D01*
X126516500Y-71113613D01*
X126578500Y-71097000D01*
X126830500Y-71097000D01*
X126892500Y-71113613D01*
X126937887Y-71159000D01*
X126954500Y-71221000D01*
X126954500Y-72677635D01*
X127167992Y-72620430D01*
X127382076Y-72520600D01*
X127575581Y-72385106D01*
X127742606Y-72218081D01*
X127878100Y-72024576D01*
X127977931Y-71810490D01*
X127985344Y-71782825D01*
X128013997Y-71730817D01*
X128063546Y-71698094D01*
X128122628Y-71692159D01*
X128177695Y-71714375D01*
X128216119Y-71759645D01*
X128301411Y-71930934D01*
X128424768Y-72094286D01*
X128576035Y-72232184D01*
X128576037Y-72232185D01*
X128576038Y-72232186D01*
X128750073Y-72339944D01*
X128940944Y-72413888D01*
X129142153Y-72451500D01*
X129346845Y-72451500D01*
X129346847Y-72451500D01*
X129548056Y-72413888D01*
X129738927Y-72339944D01*
X129912962Y-72232186D01*
X130064232Y-72094285D01*
X130187588Y-71930935D01*
X130278828Y-71747701D01*
X130278829Y-71747699D01*
X130334845Y-71550823D01*
X130347411Y-71415210D01*
X130353732Y-71347000D01*
X130334845Y-71143179D01*
X130334845Y-71143176D01*
X130278829Y-70946300D01*
X130187588Y-70763065D01*
X130064231Y-70599713D01*
X129912964Y-70461815D01*
X129774486Y-70376073D01*
X129735098Y-70337137D01*
X129716590Y-70284936D01*
X129722655Y-70229884D01*
X129752080Y-70182969D01*
X129925230Y-70009818D01*
X129965458Y-69982939D01*
X130012911Y-69973500D01*
X133922065Y-69973500D01*
X133922066Y-69973500D01*
X133943445Y-69966553D01*
X133962353Y-69962014D01*
X133984555Y-69958498D01*
X134004568Y-69948299D01*
X134022554Y-69940849D01*
X134043929Y-69933905D01*
X134062119Y-69920687D01*
X134078703Y-69910525D01*
X134098723Y-69900326D01*
X134107280Y-69891768D01*
X134107286Y-69891764D01*
X134511819Y-69487231D01*
X134561182Y-69456981D01*
X134618898Y-69452439D01*
X134672385Y-69474594D01*
X134709985Y-69518617D01*
X134723500Y-69574912D01*
X134723500Y-70818500D01*
X134706887Y-70880500D01*
X134661500Y-70925887D01*
X134599500Y-70942500D01*
X132893714Y-70942500D01*
X132828436Y-70923927D01*
X132782714Y-70873772D01*
X132727588Y-70763065D01*
X132604231Y-70599713D01*
X132452964Y-70461815D01*
X132278927Y-70354056D01*
X132263313Y-70348007D01*
X132088056Y-70280112D01*
X131886847Y-70242500D01*
X131682153Y-70242500D01*
X131480944Y-70280111D01*
X131480944Y-70280112D01*
X131290072Y-70354056D01*
X131116035Y-70461815D01*
X130964768Y-70599713D01*
X130841411Y-70763065D01*
X130750170Y-70946300D01*
X130694154Y-71143176D01*
X130675268Y-71347000D01*
X130694154Y-71550823D01*
X130750170Y-71747699D01*
X130841411Y-71930934D01*
X130964768Y-72094286D01*
X131116035Y-72232184D01*
X131116037Y-72232185D01*
X131116038Y-72232186D01*
X131290073Y-72339944D01*
X131480944Y-72413888D01*
X131682153Y-72451500D01*
X131886845Y-72451500D01*
X131886847Y-72451500D01*
X132088056Y-72413888D01*
X132278927Y-72339944D01*
X132452962Y-72232186D01*
X132604232Y-72094285D01*
X132727588Y-71930935D01*
X132773343Y-71839047D01*
X132782714Y-71820228D01*
X132828436Y-71770073D01*
X132893714Y-71751500D01*
X134938065Y-71751500D01*
X134938066Y-71751500D01*
X134959445Y-71744553D01*
X134978353Y-71740014D01*
X135000555Y-71736498D01*
X135020568Y-71726299D01*
X135038554Y-71718849D01*
X135059929Y-71711905D01*
X135078119Y-71698687D01*
X135094703Y-71688525D01*
X135114723Y-71678326D01*
X135123280Y-71669768D01*
X135123286Y-71669764D01*
X135450764Y-71342287D01*
X135450768Y-71342279D01*
X135459326Y-71333723D01*
X135469529Y-71313696D01*
X135479688Y-71297118D01*
X135492904Y-71278929D01*
X135499847Y-71257555D01*
X135507295Y-71239577D01*
X135517498Y-71219555D01*
X135521014Y-71197348D01*
X135525556Y-71178435D01*
X135532500Y-71157066D01*
X135532500Y-71028934D01*
X135532500Y-70839000D01*
X137124531Y-70839000D01*
X137144364Y-71065689D01*
X137203261Y-71285497D01*
X137299432Y-71491735D01*
X137429953Y-71678140D01*
X137590859Y-71839046D01*
X137777264Y-71969567D01*
X137777265Y-71969567D01*
X137777266Y-71969568D01*
X137983504Y-72065739D01*
X138203308Y-72124635D01*
X138288262Y-72132067D01*
X138373214Y-72139500D01*
X138373216Y-72139500D01*
X138486784Y-72139500D01*
X138486786Y-72139500D01*
X138554747Y-72133553D01*
X138656692Y-72124635D01*
X138876496Y-72065739D01*
X139082734Y-71969568D01*
X139269139Y-71839047D01*
X139430047Y-71678139D01*
X139560568Y-71491734D01*
X139656739Y-71285496D01*
X139715635Y-71065692D01*
X139735468Y-70839000D01*
X139715635Y-70612308D01*
X139656739Y-70392504D01*
X139560568Y-70186266D01*
X139536726Y-70152216D01*
X139430046Y-69999859D01*
X139269140Y-69838953D01*
X139082735Y-69708432D01*
X138876497Y-69612261D01*
X138656689Y-69553364D01*
X138486786Y-69538500D01*
X138486784Y-69538500D01*
X138373216Y-69538500D01*
X138373214Y-69538500D01*
X138203310Y-69553364D01*
X137983502Y-69612261D01*
X137777264Y-69708432D01*
X137590859Y-69838953D01*
X137429953Y-69999859D01*
X137299432Y-70186264D01*
X137203261Y-70392502D01*
X137144364Y-70612310D01*
X137124531Y-70839000D01*
X135532500Y-70839000D01*
X135532500Y-69533912D01*
X135541939Y-69486459D01*
X135568819Y-69446231D01*
X137381264Y-67633787D01*
X137381268Y-67633779D01*
X137389826Y-67625223D01*
X137400029Y-67605196D01*
X137410188Y-67588618D01*
X137423404Y-67570429D01*
X137430347Y-67549055D01*
X137437795Y-67531077D01*
X137447998Y-67511055D01*
X137451514Y-67488848D01*
X137456056Y-67469935D01*
X137463000Y-67448566D01*
X137463000Y-67320434D01*
X137463000Y-65905500D01*
X137479613Y-65843500D01*
X137525000Y-65798113D01*
X137587000Y-65781500D01*
X137715336Y-65781500D01*
X137810056Y-65766498D01*
X137896205Y-65722602D01*
X137924223Y-65708326D01*
X137964730Y-65667819D01*
X138004958Y-65640939D01*
X138052411Y-65631500D01*
X138264065Y-65631500D01*
X138264066Y-65631500D01*
X138285445Y-65624553D01*
X138304353Y-65620014D01*
X138326555Y-65616498D01*
X138346568Y-65606299D01*
X138364554Y-65598849D01*
X138385929Y-65591905D01*
X138404119Y-65578687D01*
X138420703Y-65568525D01*
X138440723Y-65558326D01*
X138449280Y-65549768D01*
X138449286Y-65549764D01*
X138565229Y-65433820D01*
X138605458Y-65406939D01*
X138652911Y-65397500D01*
X138763470Y-65397500D01*
X138763471Y-65397500D01*
X138917793Y-65359463D01*
X139058529Y-65285599D01*
X139177498Y-65180201D01*
X139267787Y-65049395D01*
X139324149Y-64900782D01*
X139343307Y-64743000D01*
X139324149Y-64585218D01*
X139267787Y-64436605D01*
X139177498Y-64305799D01*
X139058529Y-64200401D01*
X139058527Y-64200399D01*
X138917794Y-64126537D01*
X138832443Y-64105500D01*
X138763471Y-64088500D01*
X138604529Y-64088500D01*
X138556070Y-64100444D01*
X138450205Y-64126537D01*
X138309470Y-64200401D01*
X138294228Y-64213905D01*
X138244577Y-64240735D01*
X138188177Y-64242781D01*
X138136712Y-64219619D01*
X138100843Y-64176047D01*
X138088000Y-64121091D01*
X138088000Y-64045164D01*
X138072998Y-63950443D01*
X138014826Y-63836277D01*
X137993230Y-63814681D01*
X137961136Y-63759094D01*
X137961136Y-63694906D01*
X137993230Y-63639319D01*
X138001049Y-63631500D01*
X138014826Y-63617723D01*
X138043912Y-63560638D01*
X138072998Y-63503556D01*
X138088000Y-63408836D01*
X138088000Y-63045164D01*
X138076906Y-62975120D01*
X138081448Y-62917404D01*
X138111698Y-62868040D01*
X138201184Y-62778554D01*
X138284780Y-62637200D01*
X138330599Y-62479488D01*
X138330795Y-62477000D01*
X136932500Y-62477000D01*
X136870500Y-62460387D01*
X136825113Y-62415000D01*
X136808500Y-62353000D01*
X136808500Y-61427000D01*
X137308500Y-61427000D01*
X137308500Y-61977000D01*
X138330795Y-61977000D01*
X138330795Y-61976999D01*
X138330599Y-61974511D01*
X138284780Y-61816799D01*
X138201182Y-61675442D01*
X138085057Y-61559317D01*
X137943697Y-61475717D01*
X137785993Y-61429900D01*
X137749139Y-61427000D01*
X137308500Y-61427000D01*
X136808500Y-61427000D01*
X136367861Y-61427000D01*
X136331006Y-61429900D01*
X136199095Y-61468224D01*
X136142222Y-61471130D01*
X136090048Y-61448309D01*
X136053576Y-61404573D01*
X136040500Y-61349148D01*
X136040500Y-58096909D01*
X136040499Y-58096897D01*
X136040499Y-58074936D01*
X136040499Y-58074934D01*
X136033554Y-58053561D01*
X136029013Y-58034644D01*
X136025498Y-58012445D01*
X136015291Y-57992413D01*
X136007850Y-57974449D01*
X136000904Y-57953071D01*
X135997555Y-57948461D01*
X135987691Y-57934884D01*
X135977527Y-57918297D01*
X135972992Y-57909397D01*
X135967326Y-57898277D01*
X135876723Y-57807674D01*
X135781960Y-57712911D01*
X135329296Y-57260245D01*
X135329281Y-57260232D01*
X135312723Y-57243674D01*
X135312722Y-57243673D01*
X135312721Y-57243672D01*
X135292703Y-57233473D01*
X135276113Y-57223307D01*
X135257929Y-57210095D01*
X135236548Y-57203148D01*
X135218575Y-57195703D01*
X135198556Y-57185502D01*
X135188447Y-57183900D01*
X135176349Y-57181984D01*
X135157441Y-57177444D01*
X135136066Y-57170500D01*
X134986500Y-57170500D01*
X134924500Y-57153887D01*
X134879113Y-57108500D01*
X134862500Y-57046500D01*
X134862500Y-56955664D01*
X134847498Y-56860943D01*
X134789326Y-56746777D01*
X134698722Y-56656173D01*
X134617916Y-56614999D01*
X137124531Y-56614999D01*
X137144364Y-56841689D01*
X137203261Y-57061497D01*
X137299432Y-57267735D01*
X137429953Y-57454140D01*
X137590859Y-57615046D01*
X137777264Y-57745567D01*
X137777265Y-57745567D01*
X137777266Y-57745568D01*
X137983504Y-57841739D01*
X138203308Y-57900635D01*
X138268357Y-57906326D01*
X138373214Y-57915500D01*
X138373216Y-57915500D01*
X138486784Y-57915500D01*
X138486786Y-57915500D01*
X138556542Y-57909397D01*
X138656692Y-57900635D01*
X138876496Y-57841739D01*
X139082734Y-57745568D01*
X139269139Y-57615047D01*
X139430047Y-57454139D01*
X139560568Y-57267734D01*
X139656739Y-57061496D01*
X139715635Y-56841692D01*
X139735468Y-56615000D01*
X139715635Y-56388308D01*
X139656739Y-56168504D01*
X139560568Y-55962266D01*
X139524385Y-55910591D01*
X139430046Y-55775859D01*
X139269140Y-55614953D01*
X139082735Y-55484432D01*
X138876497Y-55388261D01*
X138656689Y-55329364D01*
X138486786Y-55314500D01*
X138486784Y-55314500D01*
X138373216Y-55314500D01*
X138373214Y-55314500D01*
X138203310Y-55329364D01*
X137983502Y-55388261D01*
X137777264Y-55484432D01*
X137590859Y-55614953D01*
X137429953Y-55775859D01*
X137299432Y-55962264D01*
X137203261Y-56168502D01*
X137144364Y-56388310D01*
X137124531Y-56614999D01*
X134617916Y-56614999D01*
X134584556Y-56598001D01*
X134489836Y-56583000D01*
X134489834Y-56583000D01*
X134126166Y-56583000D01*
X134057288Y-56593909D01*
X134024152Y-56599157D01*
X133957301Y-56591243D01*
X133904435Y-56549566D01*
X133881137Y-56486409D01*
X133894271Y-56420387D01*
X133897498Y-56414055D01*
X133912500Y-56319334D01*
X133912500Y-55080666D01*
X133904736Y-55031648D01*
X133897498Y-54985943D01*
X133839326Y-54871777D01*
X133748722Y-54781173D01*
X133634556Y-54723001D01*
X133539836Y-54708000D01*
X133539834Y-54708000D01*
X133176166Y-54708000D01*
X133176164Y-54708000D01*
X133081443Y-54723001D01*
X132967279Y-54781172D01*
X132881908Y-54866543D01*
X132829325Y-54897790D01*
X132768202Y-54900099D01*
X132713411Y-54872908D01*
X132678285Y-54822833D01*
X132675504Y-54815500D01*
X132663787Y-54784605D01*
X132573498Y-54653799D01*
X132454529Y-54548401D01*
X132454527Y-54548399D01*
X132313794Y-54474537D01*
X132236631Y-54455518D01*
X132159471Y-54436500D01*
X132000529Y-54436500D01*
X131949088Y-54449178D01*
X131846205Y-54474537D01*
X131705472Y-54548399D01*
X131586501Y-54653800D01*
X131496212Y-54784605D01*
X131439851Y-54933217D01*
X131420692Y-55090999D01*
X131439851Y-55248782D01*
X131453408Y-55284529D01*
X131460562Y-55343447D01*
X131439516Y-55398940D01*
X131395092Y-55438297D01*
X131337466Y-55452500D01*
X131238529Y-55452500D01*
X131187088Y-55465178D01*
X131084205Y-55490537D01*
X130943472Y-55564399D01*
X130824501Y-55669800D01*
X130734212Y-55800605D01*
X130677851Y-55949217D01*
X130658692Y-56106999D01*
X130677850Y-56264781D01*
X130677851Y-56264782D01*
X130724699Y-56388310D01*
X130734833Y-56415029D01*
X130741987Y-56473946D01*
X130720941Y-56529440D01*
X130676517Y-56568796D01*
X130618891Y-56583000D01*
X130586166Y-56583000D01*
X130517288Y-56593909D01*
X130484152Y-56599157D01*
X130417301Y-56591243D01*
X130364435Y-56549566D01*
X130341137Y-56486409D01*
X130354271Y-56420387D01*
X130357498Y-56414055D01*
X130372500Y-56319334D01*
X130372500Y-55080666D01*
X130364736Y-55031648D01*
X130357498Y-54985943D01*
X130299326Y-54871777D01*
X130208722Y-54781173D01*
X130094556Y-54723001D01*
X129999836Y-54708000D01*
X129999834Y-54708000D01*
X129636166Y-54708000D01*
X129636164Y-54708000D01*
X129541443Y-54723001D01*
X129427277Y-54781173D01*
X129336673Y-54871777D01*
X129278501Y-54985943D01*
X129263500Y-55080664D01*
X129263500Y-56319336D01*
X129278501Y-56414053D01*
X129281729Y-56420388D01*
X129294862Y-56486412D01*
X129271562Y-56549568D01*
X129218697Y-56591244D01*
X129151847Y-56599156D01*
X129049838Y-56583000D01*
X129049834Y-56583000D01*
X128686166Y-56583000D01*
X128686164Y-56583000D01*
X128591443Y-56598001D01*
X128477277Y-56656173D01*
X128386673Y-56746777D01*
X128328501Y-56860943D01*
X128313500Y-56955664D01*
X128313500Y-58194336D01*
X128328501Y-58289056D01*
X128383276Y-58396555D01*
X128386674Y-58403223D01*
X128477277Y-58493826D01*
X128543473Y-58527555D01*
X128559796Y-58535872D01*
X128609228Y-58581567D01*
X128627500Y-58646356D01*
X128627500Y-59344934D01*
X128627500Y-59473066D01*
X128634187Y-59493650D01*
X128634444Y-59494439D01*
X128638985Y-59513352D01*
X128642502Y-59535556D01*
X128652703Y-59555575D01*
X128660148Y-59573548D01*
X128667095Y-59594929D01*
X128674576Y-59605226D01*
X128680305Y-59613110D01*
X128690473Y-59629703D01*
X128700672Y-59649721D01*
X128700673Y-59649722D01*
X128700674Y-59649723D01*
X128717232Y-59666281D01*
X128717245Y-59666296D01*
X129182181Y-60131231D01*
X129209061Y-60171459D01*
X129218500Y-60218912D01*
X129218500Y-60432401D01*
X129206528Y-60485559D01*
X129172923Y-60528452D01*
X129124175Y-60552798D01*
X129052205Y-60570537D01*
X128911472Y-60644399D01*
X128792501Y-60749800D01*
X128702212Y-60880605D01*
X128645851Y-61029217D01*
X128626692Y-61186999D01*
X128645851Y-61344782D01*
X128702212Y-61493394D01*
X128715252Y-61512285D01*
X128792502Y-61624201D01*
X128881373Y-61702934D01*
X128911472Y-61729600D01*
X129042751Y-61798500D01*
X129052207Y-61803463D01*
X129206529Y-61841500D01*
X129365470Y-61841500D01*
X129365471Y-61841500D01*
X129519793Y-61803463D01*
X129660529Y-61729599D01*
X129779498Y-61624201D01*
X129869787Y-61493395D01*
X129926149Y-61344782D01*
X129945307Y-61187000D01*
X129943136Y-61169123D01*
X129949014Y-61113730D01*
X129978549Y-61066499D01*
X130022819Y-61022229D01*
X130078405Y-60990136D01*
X130142593Y-60990136D01*
X130198180Y-61022230D01*
X130466769Y-61290819D01*
X130498863Y-61346406D01*
X130498863Y-61410594D01*
X130466769Y-61466181D01*
X129588769Y-62344181D01*
X129548541Y-62371061D01*
X129501088Y-62380500D01*
X129187244Y-62380500D01*
X129128791Y-62365858D01*
X129084142Y-62325391D01*
X129051484Y-62276516D01*
X128967300Y-62220265D01*
X128893069Y-62205500D01*
X128893067Y-62205500D01*
X128616500Y-62205500D01*
X128554500Y-62188887D01*
X128509113Y-62143500D01*
X128492500Y-62081500D01*
X128492500Y-61702936D01*
X128492500Y-61702934D01*
X128485551Y-61681548D01*
X128481014Y-61662650D01*
X128477498Y-61640445D01*
X128467294Y-61620420D01*
X128459850Y-61602449D01*
X128452905Y-61581071D01*
X128439692Y-61562886D01*
X128429528Y-61546301D01*
X128419326Y-61526277D01*
X128328723Y-61435674D01*
X128025515Y-61132465D01*
X128025514Y-61132464D01*
X128019293Y-61126243D01*
X128019285Y-61126236D01*
X128002723Y-61109674D01*
X128002722Y-61109673D01*
X128002721Y-61109672D01*
X127982703Y-61099473D01*
X127966113Y-61089307D01*
X127947929Y-61076095D01*
X127926548Y-61069148D01*
X127908575Y-61061703D01*
X127888556Y-61051502D01*
X127878447Y-61049900D01*
X127866349Y-61047984D01*
X127847441Y-61043444D01*
X127826066Y-61036500D01*
X127346857Y-61036500D01*
X127287282Y-61021251D01*
X127242360Y-60979256D01*
X127223138Y-60920841D01*
X127234344Y-60860376D01*
X127273223Y-60812730D01*
X127346010Y-60759010D01*
X127374269Y-60720720D01*
X127427369Y-60648773D01*
X127472621Y-60519451D01*
X127475500Y-60488749D01*
X127475499Y-59979252D01*
X127472621Y-59948549D01*
X127427369Y-59819227D01*
X127427368Y-59819225D01*
X127346010Y-59708989D01*
X127235773Y-59627631D01*
X127106448Y-59582378D01*
X127075752Y-59579500D01*
X126416253Y-59579500D01*
X126385550Y-59582378D01*
X126256225Y-59627631D01*
X126145989Y-59708989D01*
X126083770Y-59793294D01*
X126039881Y-59830355D01*
X125984000Y-59843660D01*
X125928119Y-59830355D01*
X125884230Y-59793294D01*
X125822010Y-59708989D01*
X125711773Y-59627631D01*
X125582448Y-59582378D01*
X125551752Y-59579500D01*
X124892253Y-59579500D01*
X124861545Y-59582379D01*
X124813509Y-59599187D01*
X124744963Y-59603036D01*
X124684876Y-59569826D01*
X124646819Y-59531769D01*
X124619939Y-59491541D01*
X124610500Y-59444088D01*
X124610500Y-59322537D01*
X124624333Y-59265623D01*
X124662745Y-59221408D01*
X124717166Y-59199755D01*
X124775454Y-59205495D01*
X124861549Y-59235621D01*
X124892251Y-59238500D01*
X125551748Y-59238499D01*
X125582451Y-59235621D01*
X125711773Y-59190369D01*
X125822010Y-59109010D01*
X125873778Y-59038866D01*
X125917668Y-59001805D01*
X125973549Y-58988500D01*
X125994451Y-58988500D01*
X126050332Y-59001805D01*
X126094221Y-59038866D01*
X126145989Y-59109010D01*
X126208304Y-59155000D01*
X126256227Y-59190369D01*
X126385549Y-59235621D01*
X126416251Y-59238500D01*
X127075748Y-59238499D01*
X127106451Y-59235621D01*
X127235773Y-59190369D01*
X127346010Y-59109010D01*
X127427369Y-58998773D01*
X127472621Y-58869451D01*
X127475500Y-58838749D01*
X127475499Y-58329252D01*
X127472621Y-58298549D01*
X127427369Y-58169227D01*
X127427368Y-58169225D01*
X127346010Y-58058989D01*
X127235773Y-57977631D01*
X127150501Y-57947793D01*
X127106451Y-57932379D01*
X127106450Y-57932378D01*
X127106448Y-57932378D01*
X127075752Y-57929500D01*
X126416253Y-57929500D01*
X126385550Y-57932378D01*
X126256225Y-57977631D01*
X126145989Y-58058989D01*
X126094221Y-58129134D01*
X126050332Y-58166195D01*
X125994451Y-58179500D01*
X125973549Y-58179500D01*
X125917668Y-58166195D01*
X125873779Y-58129134D01*
X125822010Y-58058989D01*
X125711772Y-57977630D01*
X125709548Y-57976852D01*
X125666160Y-57950710D01*
X125636847Y-57909397D01*
X125626500Y-57859810D01*
X125626500Y-57058935D01*
X125619556Y-57037564D01*
X125615014Y-57018642D01*
X125611498Y-56996446D01*
X125611498Y-56996445D01*
X125601294Y-56976420D01*
X125593846Y-56958438D01*
X125586904Y-56937072D01*
X125586904Y-56937071D01*
X125573692Y-56918886D01*
X125563529Y-56902301D01*
X125559812Y-56895007D01*
X125553326Y-56882277D01*
X125539216Y-56868167D01*
X125539213Y-56868163D01*
X125225296Y-56554245D01*
X125225281Y-56554232D01*
X125208723Y-56537674D01*
X125208722Y-56537673D01*
X125208721Y-56537672D01*
X125188703Y-56527473D01*
X125172113Y-56517307D01*
X125153929Y-56504095D01*
X125132548Y-56497148D01*
X125114575Y-56489703D01*
X125094556Y-56479502D01*
X125084447Y-56477900D01*
X125072349Y-56475984D01*
X125053441Y-56471444D01*
X125032066Y-56464500D01*
X124999834Y-56464500D01*
X123000066Y-56464500D01*
X122871934Y-56464500D01*
X122871932Y-56464500D01*
X122850553Y-56471445D01*
X122831646Y-56475984D01*
X122809447Y-56479501D01*
X122789420Y-56489705D01*
X122771446Y-56497150D01*
X122750070Y-56504095D01*
X122731882Y-56517309D01*
X122715300Y-56527470D01*
X122695277Y-56537673D01*
X122613904Y-56619042D01*
X122613899Y-56619051D01*
X121792681Y-57440269D01*
X121743318Y-57470519D01*
X121685602Y-57475061D01*
X121632115Y-57452906D01*
X121594515Y-57408883D01*
X121581000Y-57352588D01*
X121581000Y-56763911D01*
X121590439Y-56716458D01*
X121617319Y-56676230D01*
X121637376Y-56656173D01*
X121657826Y-56635723D01*
X121696174Y-56560462D01*
X121715998Y-56521556D01*
X121731000Y-56426836D01*
X121731000Y-55188164D01*
X121715998Y-55093443D01*
X121657826Y-54979277D01*
X121567222Y-54888673D01*
X121453056Y-54830501D01*
X121358336Y-54815500D01*
X121358334Y-54815500D01*
X120994666Y-54815500D01*
X120994664Y-54815500D01*
X120899943Y-54830501D01*
X120785777Y-54888673D01*
X120695173Y-54979277D01*
X120637001Y-55093443D01*
X120622000Y-55188164D01*
X120622000Y-56426836D01*
X120637001Y-56521553D01*
X120637001Y-56521554D01*
X120637002Y-56521555D01*
X120640017Y-56527473D01*
X120640229Y-56527888D01*
X120653362Y-56593912D01*
X120630062Y-56657068D01*
X120577197Y-56698744D01*
X120510347Y-56706656D01*
X120408338Y-56690500D01*
X120408334Y-56690500D01*
X120044666Y-56690500D01*
X119956095Y-56704527D01*
X119942652Y-56706657D01*
X119875801Y-56698743D01*
X119822935Y-56657066D01*
X119799637Y-56593909D01*
X119812771Y-56527887D01*
X119815998Y-56521555D01*
X119831000Y-56426834D01*
X119831000Y-55188166D01*
X119827934Y-55168810D01*
X119815998Y-55093443D01*
X119757826Y-54979277D01*
X119667222Y-54888673D01*
X119553056Y-54830501D01*
X119458336Y-54815500D01*
X119458334Y-54815500D01*
X119094666Y-54815500D01*
X119094664Y-54815500D01*
X118999943Y-54830501D01*
X118885777Y-54888673D01*
X118795173Y-54979277D01*
X118737001Y-55093443D01*
X118722000Y-55188164D01*
X118722000Y-56426836D01*
X118737001Y-56521556D01*
X118795173Y-56635722D01*
X118835681Y-56676230D01*
X118862561Y-56716458D01*
X118872000Y-56763911D01*
X118872000Y-57515588D01*
X118862561Y-57563041D01*
X118835681Y-57603269D01*
X117978769Y-58460181D01*
X117938541Y-58487061D01*
X117891088Y-58496500D01*
X117029932Y-58496500D01*
X117008553Y-58503445D01*
X116989646Y-58507984D01*
X116967447Y-58511501D01*
X116947420Y-58521705D01*
X116929446Y-58529150D01*
X116908070Y-58536095D01*
X116889882Y-58549309D01*
X116873300Y-58559470D01*
X116853279Y-58569672D01*
X116853276Y-58569674D01*
X116853277Y-58569674D01*
X116835402Y-58587549D01*
X116813045Y-58609905D01*
X116813044Y-58609906D01*
X115089967Y-60332982D01*
X115045619Y-60361483D01*
X114993439Y-60368985D01*
X114942858Y-60354133D01*
X114903021Y-60319613D01*
X114825904Y-60216596D01*
X114709767Y-60129658D01*
X114709764Y-60129657D01*
X114709763Y-60129656D01*
X114573845Y-60078960D01*
X114548090Y-60076191D01*
X114513755Y-60072500D01*
X114513751Y-60072500D01*
X113117248Y-60072500D01*
X113057158Y-60078959D01*
X113057158Y-60078960D01*
X112921233Y-60129658D01*
X112805096Y-60216596D01*
X112745765Y-60295852D01*
X112698012Y-60334335D01*
X112637655Y-60345225D01*
X112579461Y-60325857D01*
X112537668Y-60280968D01*
X112522500Y-60221541D01*
X112522500Y-56618479D01*
X112522598Y-56614999D01*
X113756531Y-56614999D01*
X113776364Y-56841689D01*
X113835261Y-57061497D01*
X113931432Y-57267735D01*
X114061953Y-57454140D01*
X114222859Y-57615046D01*
X114409264Y-57745567D01*
X114409265Y-57745567D01*
X114409266Y-57745568D01*
X114615504Y-57841739D01*
X114835308Y-57900635D01*
X114900357Y-57906326D01*
X115005214Y-57915500D01*
X115005216Y-57915500D01*
X115118784Y-57915500D01*
X115118786Y-57915500D01*
X115188542Y-57909397D01*
X115288692Y-57900635D01*
X115508496Y-57841739D01*
X115714734Y-57745568D01*
X115901139Y-57615047D01*
X116062047Y-57454139D01*
X116192568Y-57267734D01*
X116288739Y-57061496D01*
X116347635Y-56841692D01*
X116367468Y-56615000D01*
X116347635Y-56388308D01*
X116288739Y-56168504D01*
X116192568Y-55962266D01*
X116156385Y-55910591D01*
X116062046Y-55775859D01*
X115901140Y-55614953D01*
X115714735Y-55484432D01*
X115508497Y-55388261D01*
X115288689Y-55329364D01*
X115118786Y-55314500D01*
X115118784Y-55314500D01*
X115005216Y-55314500D01*
X115005214Y-55314500D01*
X114835310Y-55329364D01*
X114615502Y-55388261D01*
X114409264Y-55484432D01*
X114222859Y-55614953D01*
X114061953Y-55775859D01*
X113931432Y-55962264D01*
X113835261Y-56168502D01*
X113776364Y-56388310D01*
X113756531Y-56614999D01*
X112522598Y-56614999D01*
X112522695Y-56611528D01*
X112523390Y-56599156D01*
X112528989Y-56499450D01*
X112539200Y-56330642D01*
X112540719Y-56317413D01*
X112563169Y-56185282D01*
X112563388Y-56184044D01*
X112590009Y-56038780D01*
X112592812Y-56026855D01*
X112631040Y-55894161D01*
X112631757Y-55891772D01*
X112674427Y-55754839D01*
X112678231Y-55744330D01*
X112731714Y-55615214D01*
X112733109Y-55611984D01*
X112791307Y-55482673D01*
X112795821Y-55473650D01*
X112863820Y-55350615D01*
X112866172Y-55346549D01*
X112939051Y-55225991D01*
X112944027Y-55218406D01*
X113025605Y-55103431D01*
X113029048Y-55098815D01*
X113115697Y-54988215D01*
X113120797Y-54982122D01*
X113214892Y-54876829D01*
X113219603Y-54871847D01*
X113318847Y-54772603D01*
X113323829Y-54767892D01*
X113429122Y-54673797D01*
X113435215Y-54668697D01*
X113545815Y-54582048D01*
X113550431Y-54578605D01*
X113665410Y-54497024D01*
X113672991Y-54492051D01*
X113793549Y-54419172D01*
X113797615Y-54416820D01*
X113920650Y-54348821D01*
X113929673Y-54344307D01*
X114058984Y-54286109D01*
X114062214Y-54284714D01*
X114191330Y-54231231D01*
X114201839Y-54227427D01*
X114338772Y-54184757D01*
X114341161Y-54184040D01*
X114473855Y-54145812D01*
X114485780Y-54143009D01*
X114631044Y-54116388D01*
X114632282Y-54116169D01*
X114764413Y-54093719D01*
X114777642Y-54092200D01*
X114946450Y-54081989D01*
X115058527Y-54075695D01*
X115065479Y-54075500D01*
X138426521Y-54075500D01*
X138433471Y-54075694D01*
G37*
%TD.AperFunction*%
%TA.AperFunction,Conductor*%
G36*
X124847684Y-61625278D02*
G01*
X124883777Y-61668189D01*
X124890671Y-61681720D01*
X124890673Y-61681722D01*
X124890674Y-61681723D01*
X124907232Y-61698281D01*
X124907245Y-61698296D01*
X124947180Y-61738230D01*
X124974061Y-61778459D01*
X124983500Y-61825912D01*
X124983500Y-62081501D01*
X124966887Y-62143501D01*
X124921500Y-62188888D01*
X124859500Y-62205501D01*
X124582934Y-62205501D01*
X124579591Y-62206166D01*
X124508698Y-62220266D01*
X124424515Y-62276515D01*
X124368265Y-62360699D01*
X124353500Y-62434931D01*
X124353500Y-62913868D01*
X124340384Y-62969372D01*
X124303811Y-63013135D01*
X124250811Y-63052810D01*
X124164647Y-63167910D01*
X124114402Y-63302624D01*
X124108000Y-63362176D01*
X124108000Y-63485000D01*
X125514000Y-63485000D01*
X125576000Y-63501613D01*
X125621387Y-63547000D01*
X125638000Y-63609000D01*
X125638000Y-64435000D01*
X126668000Y-64435000D01*
X126668000Y-64411959D01*
X126683168Y-64352532D01*
X126724960Y-64307644D01*
X126783154Y-64288275D01*
X126843511Y-64299165D01*
X126891267Y-64337648D01*
X126950812Y-64417190D01*
X127003810Y-64456864D01*
X127040384Y-64500626D01*
X127053500Y-64556131D01*
X127053500Y-65035065D01*
X127068266Y-65109301D01*
X127124515Y-65193484D01*
X127208699Y-65249734D01*
X127282931Y-65264500D01*
X127282933Y-65264500D01*
X127559500Y-65264500D01*
X127621500Y-65281113D01*
X127666887Y-65326500D01*
X127683500Y-65388500D01*
X127683500Y-65895140D01*
X127677154Y-65934299D01*
X127658767Y-65969450D01*
X127602187Y-66045032D01*
X127581508Y-66078069D01*
X127540577Y-66106488D01*
X127491764Y-66116500D01*
X126254236Y-66116500D01*
X126205423Y-66106488D01*
X126164492Y-66078069D01*
X126143816Y-66045038D01*
X126139176Y-66038839D01*
X126139175Y-66038837D01*
X126056544Y-65928456D01*
X125946163Y-65845825D01*
X125816973Y-65797640D01*
X125759864Y-65791500D01*
X125218136Y-65791500D01*
X125172448Y-65796412D01*
X125161026Y-65797640D01*
X125031834Y-65845826D01*
X124950089Y-65907020D01*
X124886804Y-65931262D01*
X124820226Y-65918613D01*
X124770241Y-65872851D01*
X124736572Y-65818266D01*
X124639987Y-65721681D01*
X124609737Y-65672318D01*
X124605195Y-65614602D01*
X124627350Y-65561115D01*
X124671373Y-65523515D01*
X124727668Y-65510000D01*
X125138000Y-65510000D01*
X125138000Y-64935000D01*
X125638000Y-64935000D01*
X125638000Y-65510000D01*
X126215824Y-65510000D01*
X126275375Y-65503597D01*
X126410089Y-65453352D01*
X126525188Y-65367188D01*
X126611352Y-65252089D01*
X126661597Y-65117375D01*
X126668000Y-65057824D01*
X126668000Y-64935000D01*
X125638000Y-64935000D01*
X125138000Y-64935000D01*
X124108000Y-64935000D01*
X124108000Y-65057824D01*
X124114402Y-65117375D01*
X124164647Y-65252089D01*
X124236509Y-65348084D01*
X124259525Y-65401832D01*
X124255354Y-65460151D01*
X124224924Y-65510076D01*
X124189000Y-65546000D01*
X124189000Y-66647000D01*
X124172387Y-66709000D01*
X124127000Y-66754387D01*
X124065000Y-66771000D01*
X122989001Y-66771000D01*
X122989001Y-66819315D01*
X122999143Y-66918605D01*
X123052453Y-67079486D01*
X123141424Y-67223729D01*
X123193895Y-67276199D01*
X123220291Y-67315277D01*
X123230189Y-67361385D01*
X123222155Y-67407854D01*
X123214388Y-67428333D01*
X123172938Y-67483492D01*
X123108424Y-67507958D01*
X123040821Y-67494157D01*
X123012357Y-67479218D01*
X122915793Y-67428537D01*
X122915792Y-67428536D01*
X122915791Y-67428536D01*
X122789380Y-67397379D01*
X122761471Y-67390500D01*
X122602529Y-67390500D01*
X122482173Y-67420165D01*
X122426475Y-67421006D01*
X122376027Y-67397379D01*
X122341013Y-67354051D01*
X122328500Y-67299768D01*
X122328500Y-67279000D01*
X121628500Y-67279000D01*
X121628500Y-68003999D01*
X121651815Y-68003999D01*
X121751103Y-67993856D01*
X121862381Y-67956982D01*
X121916538Y-67951617D01*
X121967776Y-67969958D01*
X122006226Y-68008472D01*
X122024482Y-68059741D01*
X122041851Y-68202782D01*
X122098212Y-68351394D01*
X122098213Y-68351395D01*
X122172445Y-68458939D01*
X122180122Y-68470060D01*
X122201846Y-68533013D01*
X122187869Y-68598126D01*
X122142222Y-68646617D01*
X122078072Y-68664500D01*
X120314018Y-68664500D01*
X120266565Y-68655061D01*
X120226337Y-68628181D01*
X119568337Y-67970181D01*
X119538087Y-67920818D01*
X119533545Y-67863102D01*
X119555700Y-67809615D01*
X119599723Y-67772015D01*
X119656018Y-67758500D01*
X120099360Y-67758500D01*
X120099364Y-67758500D01*
X120156473Y-67752360D01*
X120285663Y-67704175D01*
X120367412Y-67642977D01*
X120430694Y-67618737D01*
X120497273Y-67631386D01*
X120547258Y-67677148D01*
X120580927Y-67731733D01*
X120700767Y-67851573D01*
X120845013Y-67940546D01*
X121005893Y-67993856D01*
X121105185Y-68004000D01*
X121128500Y-68004000D01*
X121128500Y-66903000D01*
X121145113Y-66841000D01*
X121190500Y-66795613D01*
X121252500Y-66779000D01*
X122328499Y-66779000D01*
X122328499Y-66730685D01*
X122318356Y-66631394D01*
X122265046Y-66470513D01*
X122176073Y-66326267D01*
X122120806Y-66271000D01*
X122989000Y-66271000D01*
X123689000Y-66271000D01*
X123689000Y-65546001D01*
X123665685Y-65546001D01*
X123566394Y-65556143D01*
X123405513Y-65609453D01*
X123261267Y-65698426D01*
X123141426Y-65818267D01*
X123052453Y-65962513D01*
X122999143Y-66123393D01*
X122989000Y-66222685D01*
X122989000Y-66271000D01*
X122120806Y-66271000D01*
X122056232Y-66206426D01*
X121912058Y-66117498D01*
X121867669Y-66070174D01*
X121853258Y-66006912D01*
X121872769Y-65945031D01*
X121920860Y-65901475D01*
X121934551Y-65894498D01*
X121934555Y-65894498D01*
X122048723Y-65836326D01*
X122139326Y-65745723D01*
X122176728Y-65672318D01*
X122197498Y-65631556D01*
X122212500Y-65536836D01*
X122212500Y-65521000D01*
X122229113Y-65459000D01*
X122274500Y-65413613D01*
X122336500Y-65397000D01*
X123004565Y-65397000D01*
X123004566Y-65397000D01*
X123025945Y-65390053D01*
X123044853Y-65385514D01*
X123067055Y-65381998D01*
X123087068Y-65371799D01*
X123105054Y-65364349D01*
X123126429Y-65357405D01*
X123144619Y-65344187D01*
X123161203Y-65334025D01*
X123181223Y-65323826D01*
X123189780Y-65315268D01*
X123189786Y-65315264D01*
X123324851Y-65180199D01*
X123752535Y-64752514D01*
X123752534Y-64752514D01*
X123775326Y-64729723D01*
X123775328Y-64729718D01*
X123780721Y-64724326D01*
X123783499Y-64713681D01*
X123785531Y-64709693D01*
X123795690Y-64693115D01*
X123808905Y-64674928D01*
X123815851Y-64653548D01*
X123823289Y-64635589D01*
X123833498Y-64615555D01*
X123837014Y-64593357D01*
X123841557Y-64574434D01*
X123848500Y-64553067D01*
X123848500Y-63985000D01*
X124108000Y-63985000D01*
X124108000Y-64107824D01*
X124114603Y-64169252D01*
X124121955Y-64209999D01*
X124114603Y-64250750D01*
X124108000Y-64312177D01*
X124108000Y-64435000D01*
X125138000Y-64435000D01*
X125138000Y-63985000D01*
X124108000Y-63985000D01*
X123848500Y-63985000D01*
X123848500Y-62167913D01*
X123857939Y-62120461D01*
X123884818Y-62080232D01*
X124030500Y-61934549D01*
X124087229Y-61877818D01*
X124127458Y-61850939D01*
X124174911Y-61841500D01*
X124285470Y-61841500D01*
X124285471Y-61841500D01*
X124439793Y-61803463D01*
X124580529Y-61729599D01*
X124691068Y-61631669D01*
X124740355Y-61604940D01*
X124796380Y-61602653D01*
X124847684Y-61625278D01*
G37*
%TD.AperFunction*%
%TA.AperFunction,Conductor*%
G36*
X133686541Y-62108939D02*
G01*
X133726769Y-62135819D01*
X133892993Y-62302042D01*
X134034674Y-62443723D01*
X134125277Y-62534326D01*
X134145297Y-62544527D01*
X134161884Y-62554691D01*
X134172725Y-62562567D01*
X134180071Y-62567904D01*
X134187618Y-62570356D01*
X134240356Y-62604116D01*
X134269874Y-62659340D01*
X134268645Y-62721945D01*
X134236981Y-62775968D01*
X134057465Y-62955485D01*
X134057461Y-62955489D01*
X134034672Y-62978277D01*
X134024473Y-62998295D01*
X134014311Y-63014878D01*
X134001096Y-63033068D01*
X134001095Y-63033070D01*
X134001095Y-63033071D01*
X133994682Y-63052810D01*
X133994150Y-63054446D01*
X133986705Y-63072420D01*
X133976501Y-63092447D01*
X133972984Y-63114646D01*
X133968445Y-63133553D01*
X133961500Y-63154932D01*
X133961500Y-63154934D01*
X133961500Y-63187166D01*
X133961500Y-64215595D01*
X133961500Y-64343727D01*
X133966062Y-64357770D01*
X133968444Y-64365100D01*
X133972985Y-64384013D01*
X133976502Y-64406217D01*
X133986703Y-64426236D01*
X133994148Y-64444209D01*
X133995434Y-64448166D01*
X134001095Y-64465590D01*
X134014305Y-64483771D01*
X134024473Y-64500364D01*
X134034672Y-64520382D01*
X134034673Y-64520383D01*
X134034674Y-64520384D01*
X134051232Y-64536942D01*
X134051245Y-64536957D01*
X134433181Y-64918892D01*
X134460061Y-64959120D01*
X134469500Y-65006573D01*
X134469500Y-67626983D01*
X134460061Y-67674436D01*
X134433181Y-67714664D01*
X133527663Y-68620181D01*
X133487435Y-68647061D01*
X133439982Y-68656500D01*
X131536912Y-68656500D01*
X131489459Y-68647061D01*
X131449231Y-68620181D01*
X130559296Y-67730245D01*
X130559281Y-67730232D01*
X130542723Y-67713674D01*
X130542722Y-67713673D01*
X130542721Y-67713672D01*
X130522703Y-67703473D01*
X130506113Y-67693307D01*
X130487929Y-67680095D01*
X130466548Y-67673148D01*
X130448575Y-67665703D01*
X130428556Y-67655502D01*
X130416302Y-67653561D01*
X130406349Y-67651984D01*
X130387444Y-67647445D01*
X130383327Y-67646107D01*
X130325850Y-67606913D01*
X130316065Y-67584000D01*
X131359001Y-67584000D01*
X131359001Y-67600643D01*
X131369056Y-67699082D01*
X131421906Y-67858573D01*
X131510114Y-68001581D01*
X131628918Y-68120385D01*
X131771926Y-68208593D01*
X131931416Y-68261443D01*
X132029857Y-68271500D01*
X132084000Y-68271500D01*
X132084000Y-67584000D01*
X132584000Y-67584000D01*
X132584000Y-68271499D01*
X132638143Y-68271499D01*
X132736582Y-68261443D01*
X132896073Y-68208593D01*
X133039081Y-68120385D01*
X133157885Y-68001581D01*
X133246093Y-67858573D01*
X133298943Y-67699083D01*
X133309000Y-67600643D01*
X133309000Y-67584000D01*
X132584000Y-67584000D01*
X132084000Y-67584000D01*
X131359001Y-67584000D01*
X130316065Y-67584000D01*
X130298526Y-67542932D01*
X130309958Y-67474306D01*
X130356548Y-67422639D01*
X130484732Y-67343573D01*
X130604573Y-67223732D01*
X130693546Y-67079486D01*
X130746856Y-66918606D01*
X130757000Y-66819315D01*
X130757000Y-66771000D01*
X129681000Y-66771000D01*
X129619000Y-66754387D01*
X129573613Y-66709000D01*
X129557000Y-66647000D01*
X129557000Y-65546001D01*
X129533685Y-65546001D01*
X129434394Y-65556143D01*
X129273513Y-65609453D01*
X129129267Y-65698426D01*
X129009428Y-65818265D01*
X128975758Y-65872852D01*
X128925772Y-65918613D01*
X128859194Y-65931262D01*
X128795910Y-65907020D01*
X128714165Y-65845826D01*
X128714163Y-65845825D01*
X128635796Y-65816596D01*
X128573166Y-65793236D01*
X128530930Y-65766797D01*
X128502512Y-65725867D01*
X128492500Y-65677054D01*
X128492500Y-65546000D01*
X130057000Y-65546000D01*
X130057000Y-66271000D01*
X130756999Y-66271000D01*
X130756999Y-66222685D01*
X130746856Y-66123394D01*
X130693546Y-65962513D01*
X130604573Y-65818267D01*
X130484732Y-65698426D01*
X130340486Y-65609453D01*
X130179606Y-65556143D01*
X130080315Y-65546000D01*
X130057000Y-65546000D01*
X128492500Y-65546000D01*
X128492500Y-65388499D01*
X128509113Y-65326499D01*
X128554500Y-65281112D01*
X128616500Y-65264499D01*
X128893065Y-65264499D01*
X128893066Y-65264499D01*
X128967301Y-65249734D01*
X129051484Y-65193484D01*
X129084141Y-65144609D01*
X129128791Y-65104142D01*
X129187244Y-65089500D01*
X130932065Y-65089500D01*
X130932066Y-65089500D01*
X130953445Y-65082553D01*
X130972353Y-65078014D01*
X130994555Y-65074498D01*
X131014568Y-65064299D01*
X131032554Y-65056849D01*
X131053929Y-65049905D01*
X131072119Y-65036687D01*
X131088703Y-65026525D01*
X131108723Y-65016326D01*
X131117280Y-65007768D01*
X131117286Y-65007764D01*
X131386764Y-64738287D01*
X131386768Y-64738279D01*
X131395326Y-64729723D01*
X131405525Y-64709703D01*
X131415691Y-64693114D01*
X131428905Y-64674929D01*
X131428905Y-64674928D01*
X131431809Y-64670932D01*
X131484033Y-64629528D01*
X131550149Y-64621140D01*
X131611057Y-64648191D01*
X131649164Y-64702867D01*
X131652630Y-64712772D01*
X131733989Y-64823010D01*
X131857672Y-64914292D01*
X131894637Y-64957993D01*
X131908037Y-65013641D01*
X131895016Y-65069378D01*
X131858348Y-65113329D01*
X131739672Y-65202167D01*
X131739669Y-65202170D01*
X131739670Y-65202170D01*
X131662292Y-65305537D01*
X131658116Y-65311115D01*
X131610559Y-65438616D01*
X131610559Y-65438619D01*
X131604500Y-65494978D01*
X131604500Y-66023022D01*
X131606200Y-66038837D01*
X131610559Y-66079383D01*
X131638137Y-66153319D01*
X131658117Y-66206887D01*
X131731644Y-66305108D01*
X131742077Y-66319045D01*
X131766318Y-66382330D01*
X131753668Y-66448908D01*
X131707906Y-66498893D01*
X131628921Y-66547611D01*
X131510114Y-66666418D01*
X131421906Y-66809426D01*
X131369056Y-66968916D01*
X131359000Y-67067357D01*
X131359000Y-67084000D01*
X133308999Y-67084000D01*
X133308999Y-67067357D01*
X133298943Y-66968917D01*
X133246093Y-66809426D01*
X133157885Y-66666418D01*
X133039081Y-66547614D01*
X132960093Y-66498894D01*
X132914331Y-66448909D01*
X132901681Y-66382330D01*
X132925923Y-66319045D01*
X132936356Y-66305108D01*
X133009883Y-66206887D01*
X133057441Y-66079381D01*
X133063500Y-66023022D01*
X133063500Y-65494978D01*
X133057441Y-65438619D01*
X133009883Y-65311113D01*
X132928330Y-65202170D01*
X132819387Y-65120617D01*
X132819383Y-65120615D01*
X132809651Y-65113330D01*
X132772983Y-65069379D01*
X132759962Y-65013641D01*
X132773362Y-64957993D01*
X132810328Y-64914292D01*
X132934009Y-64823011D01*
X132935634Y-64820809D01*
X133015369Y-64712773D01*
X133060621Y-64583451D01*
X133063500Y-64552749D01*
X133063499Y-64043252D01*
X133060621Y-64012549D01*
X133015369Y-63883227D01*
X133015368Y-63883225D01*
X132934010Y-63772989D01*
X132823773Y-63691631D01*
X132694448Y-63646378D01*
X132663752Y-63643500D01*
X132004253Y-63643500D01*
X131973550Y-63646378D01*
X131844225Y-63691631D01*
X131733989Y-63772989D01*
X131692270Y-63829518D01*
X131644624Y-63868396D01*
X131584159Y-63879603D01*
X131525745Y-63860381D01*
X131483749Y-63815459D01*
X131468500Y-63755884D01*
X131468500Y-63190116D01*
X131483749Y-63130541D01*
X131525745Y-63085619D01*
X131584159Y-63066397D01*
X131644624Y-63077604D01*
X131692270Y-63116482D01*
X131733989Y-63173010D01*
X131781933Y-63208394D01*
X131844227Y-63254369D01*
X131973549Y-63299621D01*
X132004251Y-63302500D01*
X132663748Y-63302499D01*
X132694451Y-63299621D01*
X132823773Y-63254369D01*
X132934010Y-63173010D01*
X133015369Y-63062773D01*
X133060621Y-62933451D01*
X133063500Y-62902749D01*
X133063499Y-62393252D01*
X133060621Y-62362549D01*
X133026295Y-62264454D01*
X133020556Y-62206166D01*
X133042208Y-62151745D01*
X133086424Y-62113333D01*
X133143338Y-62099500D01*
X133639088Y-62099500D01*
X133686541Y-62108939D01*
G37*
%TD.AperFunction*%
%TA.AperFunction,Conductor*%
G36*
X116528500Y-64993613D02*
G01*
X116573887Y-65039000D01*
X116590500Y-65101000D01*
X116590500Y-66027000D01*
X117031140Y-66027000D01*
X117063772Y-66024432D01*
X117129795Y-66037565D01*
X117179228Y-66083260D01*
X117197500Y-66148050D01*
X117197500Y-67023088D01*
X117183985Y-67079383D01*
X117146385Y-67123406D01*
X117092898Y-67145561D01*
X117035182Y-67141019D01*
X116985819Y-67110769D01*
X116083956Y-66208906D01*
X116051862Y-66153319D01*
X116051862Y-66089131D01*
X116083956Y-66033544D01*
X116090500Y-66027000D01*
X116090500Y-65101000D01*
X116107113Y-65039000D01*
X116152500Y-64993613D01*
X116214500Y-64977000D01*
X116466500Y-64977000D01*
X116528500Y-64993613D01*
G37*
%TD.AperFunction*%
%TA.AperFunction,Conductor*%
G36*
X131114384Y-62113015D02*
G01*
X131158408Y-62150616D01*
X131180563Y-62204104D01*
X131176019Y-62261820D01*
X131145768Y-62311183D01*
X131058904Y-62398042D01*
X131058899Y-62398051D01*
X130755461Y-62701489D01*
X130732672Y-62724277D01*
X130722473Y-62744295D01*
X130712311Y-62760878D01*
X130699096Y-62779068D01*
X130692150Y-62800446D01*
X130684705Y-62818420D01*
X130674501Y-62838447D01*
X130670984Y-62860646D01*
X130666445Y-62879553D01*
X130659500Y-62900932D01*
X130659500Y-64156500D01*
X130642887Y-64218500D01*
X130597500Y-64263887D01*
X130535500Y-64280500D01*
X129487482Y-64280500D01*
X129421689Y-64261606D01*
X129375946Y-64210682D01*
X129364192Y-64143246D01*
X129368000Y-64107824D01*
X129368000Y-63985000D01*
X127962000Y-63985000D01*
X127900000Y-63968387D01*
X127854613Y-63923000D01*
X127838000Y-63861000D01*
X127838000Y-63609000D01*
X127854613Y-63547000D01*
X127900000Y-63501613D01*
X127962000Y-63485000D01*
X129368000Y-63485000D01*
X129368000Y-63362176D01*
X129364192Y-63326754D01*
X129375946Y-63259318D01*
X129421689Y-63208394D01*
X129487482Y-63189500D01*
X129784065Y-63189500D01*
X129784066Y-63189500D01*
X129805445Y-63182553D01*
X129824353Y-63178014D01*
X129846555Y-63174498D01*
X129866568Y-63164299D01*
X129884554Y-63156849D01*
X129905929Y-63149905D01*
X129924119Y-63136687D01*
X129940703Y-63126525D01*
X129960723Y-63116326D01*
X129969280Y-63107768D01*
X129969286Y-63107764D01*
X130941231Y-62135819D01*
X130981459Y-62108939D01*
X131028912Y-62099500D01*
X131058089Y-62099500D01*
X131114384Y-62113015D01*
G37*
%TD.AperFunction*%
%TA.AperFunction,Conductor*%
G36*
X119620885Y-58110095D02*
G01*
X119658485Y-58154118D01*
X119672000Y-58210413D01*
X119672000Y-58301836D01*
X119687001Y-58396554D01*
X119691127Y-58404651D01*
X119704472Y-58454456D01*
X119696406Y-58505383D01*
X119668323Y-58548626D01*
X119124465Y-59092485D01*
X119124460Y-59092490D01*
X119122575Y-59094336D01*
X119122551Y-59094359D01*
X119065169Y-59125533D01*
X119023531Y-59124063D01*
X119023210Y-59127600D01*
X118939576Y-59120000D01*
X118933000Y-59120000D01*
X118933000Y-60221000D01*
X118916387Y-60283000D01*
X118871000Y-60328387D01*
X118809000Y-60345000D01*
X117783001Y-60345000D01*
X117783001Y-60426579D01*
X117789408Y-60497104D01*
X117839981Y-60659397D01*
X117927925Y-60804875D01*
X118048124Y-60925074D01*
X118193602Y-61013018D01*
X118215942Y-61019980D01*
X118262395Y-61046551D01*
X118293324Y-61090223D01*
X118302969Y-61142861D01*
X118289534Y-61194663D01*
X118276473Y-61220295D01*
X118266311Y-61236878D01*
X118253096Y-61255068D01*
X118246150Y-61276446D01*
X118238705Y-61294420D01*
X118228501Y-61314447D01*
X118224984Y-61336646D01*
X118220445Y-61355553D01*
X118213500Y-61376932D01*
X118213500Y-61943088D01*
X118199985Y-61999383D01*
X118162385Y-62043406D01*
X118108898Y-62065561D01*
X118051181Y-62061019D01*
X118001820Y-62030770D01*
X117889515Y-61918465D01*
X117889514Y-61918464D01*
X117883289Y-61912239D01*
X117883281Y-61912232D01*
X117866723Y-61895674D01*
X117866722Y-61895673D01*
X117866721Y-61895672D01*
X117846703Y-61885473D01*
X117830113Y-61875307D01*
X117811929Y-61862095D01*
X117790548Y-61855148D01*
X117772575Y-61847703D01*
X117752556Y-61837502D01*
X117740169Y-61835540D01*
X117730349Y-61833984D01*
X117711441Y-61829444D01*
X117690066Y-61822500D01*
X117334411Y-61822500D01*
X117286958Y-61813061D01*
X117246730Y-61786181D01*
X117206222Y-61745673D01*
X117092056Y-61687501D01*
X116997336Y-61672500D01*
X116997334Y-61672500D01*
X115836768Y-61672500D01*
X115780473Y-61658985D01*
X115736450Y-61621385D01*
X115714295Y-61567897D01*
X115718837Y-61510181D01*
X115720499Y-61505066D01*
X115720499Y-61483103D01*
X115720500Y-61483091D01*
X115720500Y-60897912D01*
X115729939Y-60850459D01*
X115756819Y-60810231D01*
X117225230Y-59341819D01*
X117265458Y-59314939D01*
X117312911Y-59305500D01*
X117756203Y-59305500D01*
X117818743Y-59322426D01*
X117864209Y-59368584D01*
X117880189Y-59431373D01*
X117862320Y-59493650D01*
X117839980Y-59530603D01*
X117789409Y-59692893D01*
X117783000Y-59763424D01*
X117783000Y-59845000D01*
X118433000Y-59845000D01*
X118433000Y-59201412D01*
X118442439Y-59153959D01*
X118469319Y-59113731D01*
X119460319Y-58122732D01*
X119509682Y-58092482D01*
X119567398Y-58087940D01*
X119620885Y-58110095D01*
G37*
%TD.AperFunction*%
%TA.AperFunction,Conductor*%
G36*
X123265575Y-57287703D02*
G01*
X123309999Y-57327060D01*
X123331045Y-57382553D01*
X123323891Y-57441471D01*
X123311851Y-57473217D01*
X123292692Y-57631000D01*
X123311851Y-57788782D01*
X123368212Y-57937394D01*
X123379031Y-57953068D01*
X123458502Y-58068201D01*
X123552970Y-58151893D01*
X123577472Y-58173600D01*
X123731539Y-58254461D01*
X123730519Y-58256403D01*
X123755921Y-58269088D01*
X123789527Y-58311982D01*
X123801500Y-58365141D01*
X123801500Y-59046000D01*
X123784887Y-59108000D01*
X123739500Y-59153387D01*
X123698673Y-59164326D01*
X123693000Y-59170000D01*
X123693000Y-60271000D01*
X123676387Y-60333000D01*
X123631000Y-60378387D01*
X123569000Y-60395000D01*
X123317000Y-60395000D01*
X123255000Y-60378387D01*
X123209613Y-60333000D01*
X123193000Y-60271000D01*
X123193000Y-59170001D01*
X123169685Y-59170001D01*
X123070394Y-59180143D01*
X122909513Y-59233453D01*
X122765267Y-59322426D01*
X122645428Y-59442265D01*
X122611758Y-59496852D01*
X122561772Y-59542613D01*
X122495194Y-59555262D01*
X122431909Y-59531020D01*
X122423853Y-59524989D01*
X122350163Y-59469825D01*
X122350162Y-59469824D01*
X122347189Y-59467599D01*
X122310616Y-59423836D01*
X122297500Y-59368332D01*
X122297500Y-58130912D01*
X122306939Y-58083459D01*
X122333819Y-58043231D01*
X123067230Y-57309819D01*
X123107458Y-57282939D01*
X123154911Y-57273500D01*
X123207949Y-57273500D01*
X123265575Y-57287703D01*
G37*
%TD.AperFunction*%
%TD*%
M02*
