%TF.GenerationSoftware,KiCad,Pcbnew,7.0.1*%
%TF.CreationDate,2025-06-24T15:41:59+07:00*%
%TF.ProjectId,positron_tlv493d,706f7369-7472-46f6-9e5f-746c76343933,rev?*%
%TF.SameCoordinates,Original*%
%TF.FileFunction,Soldermask,Top*%
%TF.FilePolarity,Negative*%
%FSLAX46Y46*%
G04 Gerber Fmt 4.6, Leading zero omitted, Abs format (unit mm)*
G04 Created by KiCad (PCBNEW 7.0.1) date 2025-06-24 15:41:59*
%MOMM*%
%LPD*%
G01*
G04 APERTURE LIST*
G04 Aperture macros list*
%AMRoundRect*
0 Rectangle with rounded corners*
0 $1 Rounding radius*
0 $2 $3 $4 $5 $6 $7 $8 $9 X,Y pos of 4 corners*
0 Add a 4 corners polygon primitive as box body*
4,1,4,$2,$3,$4,$5,$6,$7,$8,$9,$2,$3,0*
0 Add four circle primitives for the rounded corners*
1,1,$1+$1,$2,$3*
1,1,$1+$1,$4,$5*
1,1,$1+$1,$6,$7*
1,1,$1+$1,$8,$9*
0 Add four rect primitives between the rounded corners*
20,1,$1+$1,$2,$3,$4,$5,0*
20,1,$1+$1,$4,$5,$6,$7,0*
20,1,$1+$1,$6,$7,$8,$9,0*
20,1,$1+$1,$8,$9,$2,$3,0*%
G04 Aperture macros list end*
%ADD10RoundRect,0.218750X0.256250X-0.218750X0.256250X0.218750X-0.256250X0.218750X-0.256250X-0.218750X0*%
%ADD11RoundRect,0.225000X0.225000X0.250000X-0.225000X0.250000X-0.225000X-0.250000X0.225000X-0.250000X0*%
%ADD12C,2.100000*%
%ADD13RoundRect,0.150000X-0.150000X0.587500X-0.150000X-0.587500X0.150000X-0.587500X0.150000X0.587500X0*%
%ADD14RoundRect,0.225000X-0.225000X-0.250000X0.225000X-0.250000X0.225000X0.250000X-0.225000X0.250000X0*%
%ADD15RoundRect,0.200000X-0.275000X0.200000X-0.275000X-0.200000X0.275000X-0.200000X0.275000X0.200000X0*%
%ADD16RoundRect,0.200000X-0.200000X-0.275000X0.200000X-0.275000X0.200000X0.275000X-0.200000X0.275000X0*%
%ADD17R,1.560000X0.650000*%
%ADD18RoundRect,0.150000X0.150000X-0.587500X0.150000X0.587500X-0.150000X0.587500X-0.150000X-0.587500X0*%
%ADD19RoundRect,0.150000X-0.625000X0.150000X-0.625000X-0.150000X0.625000X-0.150000X0.625000X0.150000X0*%
%ADD20RoundRect,0.250000X-0.650000X0.350000X-0.650000X-0.350000X0.650000X-0.350000X0.650000X0.350000X0*%
%ADD21R,1.700000X1.700000*%
%ADD22O,1.700000X1.700000*%
%ADD23RoundRect,0.150000X0.625000X-0.150000X0.625000X0.150000X-0.625000X0.150000X-0.625000X-0.150000X0*%
%ADD24RoundRect,0.250000X0.650000X-0.350000X0.650000X0.350000X-0.650000X0.350000X-0.650000X-0.350000X0*%
%ADD25RoundRect,0.200000X0.200000X0.275000X-0.200000X0.275000X-0.200000X-0.275000X0.200000X-0.275000X0*%
%ADD26RoundRect,0.150000X0.150000X-0.512500X0.150000X0.512500X-0.150000X0.512500X-0.150000X-0.512500X0*%
G04 APERTURE END LIST*
D10*
%TO.C,D1*%
X132334000Y-67334000D03*
X132334000Y-65759000D03*
%TD*%
D11*
%TO.C,C3*%
X125489000Y-66521000D03*
X123939000Y-66521000D03*
%TD*%
D12*
%TO.C,H2*%
X115062000Y-70839000D03*
%TD*%
D13*
%TO.C,Q3*%
X121176500Y-55807500D03*
X119276500Y-55807500D03*
X120226500Y-57682500D03*
%TD*%
D14*
%TO.C,C2*%
X121893000Y-60145000D03*
X123443000Y-60145000D03*
%TD*%
D15*
%TO.C,R1*%
X132334000Y-62648000D03*
X132334000Y-64298000D03*
%TD*%
D16*
%TO.C,R2*%
X129873000Y-60125000D03*
X131523000Y-60125000D03*
%TD*%
D15*
%TO.C,R4*%
X125222000Y-58584000D03*
X125222000Y-60234000D03*
%TD*%
D17*
%TO.C,U1*%
X125388000Y-62785000D03*
X125388000Y-63735000D03*
X125388000Y-64685000D03*
X128088000Y-64685000D03*
X128088000Y-63735000D03*
X128088000Y-62785000D03*
%TD*%
D12*
%TO.C,H1*%
X115062000Y-56615000D03*
%TD*%
D18*
%TO.C,Q2*%
X132408000Y-57575000D03*
X134308000Y-57575000D03*
X133358000Y-55700000D03*
%TD*%
D19*
%TO.C,J2*%
X137058500Y-62227000D03*
X137058500Y-63227000D03*
X137058500Y-64227000D03*
X137058500Y-65227000D03*
D20*
X139583500Y-60927000D03*
X139583500Y-66527000D03*
%TD*%
D14*
%TO.C,C1*%
X119828500Y-67029000D03*
X121378500Y-67029000D03*
%TD*%
D12*
%TO.C,H4*%
X138430000Y-56615000D03*
%TD*%
D11*
%TO.C,C4*%
X129807000Y-66521000D03*
X128257000Y-66521000D03*
%TD*%
D21*
%TO.C,J3*%
X121624500Y-71347000D03*
D22*
X124164500Y-71347000D03*
X126704500Y-71347000D03*
X129244500Y-71347000D03*
X131784500Y-71347000D03*
%TD*%
D15*
%TO.C,R5*%
X126746000Y-58584000D03*
X126746000Y-60234000D03*
%TD*%
D18*
%TO.C,Q1*%
X128868000Y-57575000D03*
X130768000Y-57575000D03*
X129818000Y-55700000D03*
%TD*%
D16*
%TO.C,R3*%
X132963000Y-60125000D03*
X134613000Y-60125000D03*
%TD*%
D23*
%TO.C,J1*%
X116340500Y-65227000D03*
X116340500Y-64227000D03*
X116340500Y-63227000D03*
X116340500Y-62227000D03*
D24*
X113815500Y-66527000D03*
X113815500Y-60927000D03*
%TD*%
D25*
%TO.C,R6*%
X120333000Y-60095000D03*
X118683000Y-60095000D03*
%TD*%
D12*
%TO.C,H3*%
X138430000Y-70839000D03*
%TD*%
D26*
%TO.C,U2*%
X119758000Y-64992500D03*
X120708000Y-64992500D03*
X121658000Y-64992500D03*
X121658000Y-62717500D03*
X119758000Y-62717500D03*
%TD*%
M02*
